<svg width="15" height="15" viewBox="0 0 15 15" fill="none" xmlns="http://www.w3.org/2000/svg">
<g clip-path="url(#clip0_205_179)">
<path d="M7.5 0.46875C6.10935 0.46875 4.74993 0.881126 3.59365 1.65373C2.43737 2.42633 1.53615 3.52446 1.00398 4.80926C0.471797 6.09405 0.332554 7.5078 0.603857 8.87173C0.875159 10.2357 1.54482 11.4885 2.52816 12.4718C3.5115 13.4552 4.76435 14.1248 6.12827 14.3961C7.4922 14.6674 8.90595 14.5282 10.1907 13.996C11.4755 13.4638 12.5737 12.5626 13.3463 11.4064C14.1189 10.2501 14.5313 8.89065 14.5313 7.5C14.5313 5.6352 13.7905 3.84677 12.4718 2.52816C11.1532 1.20954 9.36481 0.46875 7.5 0.46875ZM7.5 13.7484C6.26418 13.7484 5.05611 13.382 4.02856 12.6954C3.00101 12.0088 2.20013 11.0329 1.7272 9.89117C1.25427 8.74942 1.13053 7.49307 1.37163 6.28099C1.61273 5.06891 2.20783 3.95555 3.08169 3.08169C3.95555 2.20783 5.06891 1.61272 6.28099 1.37162C7.49307 1.13053 8.74942 1.25427 9.89118 1.7272C11.0329 2.20013 12.0088 3.001 12.6954 4.02855C13.382 5.0561 13.7484 6.26418 13.7484 7.5C13.746 9.15643 13.0869 10.7443 11.9156 11.9156C10.7443 13.0868 9.15643 13.746 7.5 13.7484Z" fill="#A271EC"/>
<path d="M6.66252 8.57325C6.58442 8.65144 6.45773 8.65148 6.37959 8.57334L5.16202 7.35577C5.08411 7.27786 4.95786 7.27763 4.87967 7.35527L4.49805 7.73421C4.41941 7.81229 4.41925 7.93943 4.4977 8.0177L6.37967 9.8956C6.4578 9.97356 6.58432 9.9735 6.66236 9.89545L10.927 5.63077C11.005 5.55286 11.0052 5.42661 10.9275 5.34842L10.5485 4.96673C10.4705 4.88812 10.3434 4.88793 10.2651 4.96631L6.66252 8.57325Z" fill="#A271EC"/>
</g>
<defs>
<clipPath id="clip0_205_179">
<rect width="15" height="15" fill="white"/>
</clipPath>
</defs>
</svg>
