<svg width="246" height="199" viewBox="0 0 246 199" fill="none" xmlns="http://www.w3.org/2000/svg">
<path d="M8.00003 187.5C8.00003 187.5 7.50003 97 137 97C266.5 97 243 2 243 2" stroke="#343B4E" stroke-opacity="0.2" stroke-dasharray="2 2"/>
<path d="M161.947 127.502L181.468 187.42L159.583 180.567L145.958 198.999L127.885 143.53" fill="#EE6C6C"/>
<path d="M89.5462 128.805L71.5391 187.421L93.4239 180.569L107.049 199.001L123.94 143.811" fill="#EE6C6C"/>
<path d="M131.908 33.2705L136.901 30.442C138.179 29.7181 139.59 29.2582 141.049 29.0898C142.508 28.9214 143.986 29.0477 145.396 29.4614C146.805 29.8751 148.117 30.5676 149.254 31.498C150.391 32.4283 151.329 33.5775 152.013 34.8774L154.669 39.9634C155.551 41.6382 156.85 43.0565 158.442 44.0804C160.034 45.1042 161.863 45.6989 163.753 45.8065L169.489 46.1252C170.96 46.2082 172.398 46.5864 173.719 47.2374C175.04 47.8883 176.217 48.7986 177.178 49.9139C178.14 51.0292 178.867 52.3268 179.317 53.7293C179.766 55.1317 179.929 56.6103 179.794 58.0768L179.303 63.8003C179.139 65.6864 179.467 67.5827 180.254 69.3047C181.04 71.0267 182.259 72.5159 183.791 73.6273L188.439 77.0003C189.627 77.8621 190.63 78.9534 191.388 80.2098C192.147 81.4661 192.645 82.8618 192.855 84.3143C193.064 85.7668 192.979 87.2465 192.607 88.6658C192.234 90.0851 191.58 91.4152 190.684 92.5773L187.178 97.1189C186.021 98.6165 185.271 100.388 185.001 102.261C184.731 104.134 184.95 106.046 185.637 107.809L187.722 113.121C188.255 114.488 188.508 115.948 188.467 117.415C188.426 118.881 188.09 120.325 187.481 121.66C186.872 122.994 186.001 124.193 184.92 125.186C183.84 126.178 182.571 126.943 181.189 127.436L175.784 129.362C173.999 129.996 172.41 131.082 171.169 132.513C169.929 133.944 169.08 135.672 168.706 137.529L167.577 143.159C167.287 144.602 166.709 145.972 165.879 147.187C165.048 148.402 163.982 149.438 162.743 150.232C161.504 151.026 160.117 151.563 158.666 151.81C157.216 152.058 155.73 152.01 154.297 151.671L148.707 150.344C146.863 149.912 144.938 149.965 143.121 150.498C141.303 151.031 139.654 152.025 138.335 153.385L134.351 157.501C133.329 158.554 132.106 159.39 130.755 159.962C129.403 160.533 127.951 160.828 126.483 160.828C125.016 160.828 123.564 160.533 122.212 159.962C120.861 159.39 119.638 158.554 118.615 157.501L114.631 153.385C113.312 152.025 111.664 151.031 109.846 150.498C108.029 149.965 106.104 149.912 104.26 150.344L98.6692 151.671C97.2369 152.01 95.7511 152.058 94.3002 151.81C92.8493 151.563 91.4631 151.026 90.224 150.232C88.9848 149.438 87.9183 148.402 87.0877 147.187C86.2572 145.972 85.6797 144.602 85.3896 143.159L84.2608 137.529C83.8864 135.672 83.0378 133.944 81.7974 132.513C80.557 131.082 78.9672 129.996 77.1828 129.362L71.778 127.436C70.3961 126.943 69.1271 126.178 68.0462 125.186C66.9654 124.193 66.0945 122.994 65.4853 121.66C64.8761 120.325 64.5409 118.881 64.4995 117.415C64.4581 115.948 64.7114 114.488 65.2444 113.121L67.3293 107.809C68.0166 106.046 68.2359 104.134 67.966 102.261C67.6961 100.388 66.946 98.6165 65.7889 97.1189L62.2831 92.5773C61.3869 91.4152 60.733 90.0851 60.3601 88.6658C59.9871 87.2465 59.9028 85.7668 60.1121 84.3143C60.3214 82.8618 60.82 81.4661 61.5784 80.2098C62.3368 78.9534 63.3395 77.8621 64.5273 77.0003L69.1752 73.6273C70.7077 72.5159 71.9266 71.0267 72.7131 69.3047C73.4997 67.5827 73.8271 65.6864 73.6637 63.8003L73.1723 58.0768C73.0381 56.6103 73.2005 55.1317 73.6499 53.7293C74.0993 52.3268 74.8266 51.0292 75.7882 49.9139C76.7499 48.7986 77.9263 47.8883 79.2474 47.2374C80.5684 46.5864 82.007 46.2082 83.4773 46.1252L89.2141 45.8065C91.1036 45.6989 92.933 45.1042 94.5247 44.0804C96.1163 43.0565 97.416 41.6382 98.2973 39.9634L100.953 34.8774C101.637 33.5722 102.577 32.4182 103.717 31.4843C104.857 30.5504 106.173 29.8557 107.587 29.4418C109.002 29.0278 110.485 28.903 111.948 29.0748C113.412 29.2467 114.825 29.7117 116.105 30.442L121.098 33.2705C122.747 34.2039 124.609 34.6945 126.503 34.6945C128.398 34.6945 130.26 34.2039 131.908 33.2705Z" fill="#B4B2FF"/>
<path d="M126.504 122.232C141.576 122.232 153.794 110.014 153.794 94.9419C153.794 79.8703 141.576 67.6523 126.504 67.6523C111.433 67.6523 99.2148 79.8703 99.2148 94.9419C99.2148 110.014 111.433 122.232 126.504 122.232Z" fill="white"/>
<path d="M112.906 92.4819L123.655 103.261C124.065 103.673 124.739 103.648 125.119 103.208L141.236 84.5469" stroke="#4DB45E" stroke-width="3"/>
<path d="M126.503 67.651C131.901 67.651 137.177 69.2515 141.664 72.2502C146.152 75.2488 149.65 79.5108 151.715 84.4973C153.781 89.4839 154.321 94.9709 153.268 100.265C152.215 105.558 149.616 110.421 145.8 114.237C141.983 118.054 137.121 120.653 131.827 121.706C126.533 122.759 121.046 122.218 116.06 120.153C111.073 118.087 106.811 114.59 103.813 110.102C100.814 105.614 99.2135 100.338 99.2135 94.9406C99.2135 87.703 102.089 80.7618 107.206 75.644C112.324 70.5262 119.265 67.651 126.503 67.651ZM126.503 57.0273C119.005 57.0273 111.674 59.2509 105.44 63.4169C99.2048 67.5828 94.3454 73.5041 91.4758 80.4318C88.6063 87.3596 87.8555 94.9827 89.3184 102.337C90.7812 109.692 94.3921 116.447 99.6944 121.749C104.997 127.052 111.752 130.663 119.107 132.125C126.461 133.588 134.084 132.837 141.012 129.968C147.94 127.098 153.861 122.239 158.027 116.004C162.193 109.769 164.416 102.439 164.416 94.9406C164.406 84.8886 160.408 75.2514 153.3 68.1435C146.192 61.0357 136.555 57.0379 126.503 57.0273Z" fill="#FFBEDC"/>
<path fill-rule="evenodd" clip-rule="evenodd" d="M15 187.5L14.9989 187.5L14.9955 187.5L14.9899 187.5L14.982 187.5L14.9719 187.501L14.9596 187.502L14.945 187.503L14.9283 187.504L14.9093 187.505L14.8882 187.507L14.8648 187.51L14.8394 187.513L14.8117 187.516L14.782 187.52L14.7502 187.525L14.7163 187.53L14.6803 187.536L14.6423 187.543L14.6023 187.55L14.5604 187.559L14.5165 187.568L14.4707 187.578L14.423 187.589L14.3734 187.601L14.322 187.614L14.2689 187.627L14.214 187.642L14.1574 187.658L14.0992 187.675L14.0393 187.694L13.9778 187.713L13.9148 187.733L13.8503 187.755L13.7843 187.778L13.7169 187.802L13.6482 187.828L13.5781 187.855L13.5067 187.883L13.4341 187.912L13.3604 187.943L13.2855 187.975L13.2095 188.008L13.1325 188.043L13.0546 188.08L12.9756 188.117L12.8959 188.156L12.8153 188.197L12.7339 188.238L12.6518 188.282L12.569 188.326L12.4857 188.373L12.4017 188.42L12.3173 188.469L12.2324 188.519L12.1471 188.571L12.0615 188.624L11.9755 188.679L11.8894 188.734L11.803 188.792L11.7165 188.85L11.6299 188.91L11.5433 188.971L11.4568 189.034L11.3703 189.097L11.2839 189.162L11.1977 189.229L11.1117 189.296L11.026 189.365L10.9406 189.434L10.8556 189.505L10.7711 189.577L10.687 189.65L10.6034 189.724L10.5203 189.799L10.4379 189.875L10.3561 189.952L10.2751 190.03L10.1947 190.109L10.1151 190.188L10.0364 190.269L9.95844 190.35L9.88142 190.431L9.80532 190.514L9.73018 190.597L9.65605 190.68L9.58294 190.764L9.51089 190.849L9.43993 190.934L9.3701 191.019L9.30141 191.105L9.2339 191.191L9.16759 191.277L9.10251 191.363L9.03867 191.45L8.9761 191.536L8.91483 191.623L8.85486 191.71L8.79621 191.796L8.7389 191.882L8.68295 191.969L8.62837 192.055L8.57516 192.14L8.52334 192.226L8.47291 192.311L8.42389 192.395L8.37628 192.479L8.33007 192.562L8.28528 192.645L8.2419 192.727L8.19994 192.809L8.15939 192.889L8.12024 192.969L8.0825 193.048L8.04615 193.126L8.01119 193.203L7.97761 193.279L7.9454 193.354L7.91454 193.428L7.88502 193.501L7.85683 193.572L7.82994 193.643L7.80435 193.711L7.78003 193.779L7.75696 193.845L7.73513 193.91L7.7145 193.973L7.69505 194.034L7.67676 194.094L7.6596 194.153L7.64354 194.21L7.62856 194.265L7.61463 194.318L7.6017 194.369L7.58976 194.419L7.57877 194.467L7.56869 194.513L7.55949 194.557L7.55114 194.599L7.54359 194.639L7.53681 194.677L7.53077 194.713L7.52541 194.748L7.52071 194.78L7.51662 194.809L7.51311 194.837L7.51012 194.863L7.50763 194.886L7.50558 194.908L7.50393 194.927L7.50264 194.944L7.50167 194.959L7.50097 194.971L7.50049 194.981L7.50021 194.989L7.50005 194.995L7.5 194.999L7.49999 195L7.49998 194.999L7.49993 194.996L7.4998 194.99L7.49953 194.983L7.49909 194.973L7.49843 194.961L7.49751 194.946L7.49627 194.93L7.49468 194.911L7.4927 194.89L7.49028 194.867L7.48737 194.841L7.48394 194.814L7.47995 194.784L7.47535 194.753L7.4701 194.719L7.46417 194.683L7.45751 194.645L7.45009 194.606L7.44187 194.564L7.4328 194.52L7.42287 194.474L7.41202 194.427L7.40024 194.377L7.38747 194.326L7.3737 194.273L7.35889 194.218L7.343 194.162L7.32602 194.104L7.30791 194.044L7.28865 193.983L7.26821 193.92L7.24657 193.855L7.2237 193.79L7.19958 193.722L7.17419 193.654L7.14751 193.584L7.11953 193.512L7.09022 193.44L7.05958 193.366L7.02758 193.292L6.99422 193.216L6.95948 193.139L6.92335 193.061L6.88583 192.982L6.84691 192.902L6.80658 192.822L6.76485 192.74L6.72169 192.658L6.67713 192.576L6.63115 192.492L6.58376 192.408L6.53496 192.324L6.48476 192.239L6.43316 192.154L6.38017 192.068L6.3258 191.982L6.27007 191.896L6.21298 191.81L6.15454 191.723L6.09478 191.637L6.03371 191.55L5.97135 191.464L5.90772 191.377L5.84283 191.291L5.77671 191.205L5.70939 191.119L5.64089 191.033L5.57124 190.947L5.50046 190.862L5.42858 190.778L5.35564 190.694L5.28166 190.61L5.20669 190.527L5.13074 190.444L5.05386 190.363L4.97609 190.281L4.89745 190.201L4.818 190.121L4.73777 190.043L4.6568 189.965L4.57512 189.888L4.4928 189.811L4.40986 189.736L4.32636 189.662L4.24233 189.589L4.15783 189.517L4.0729 189.446L3.98758 189.376L3.90194 189.307L3.816 189.239L3.72984 189.173L3.64349 189.108L3.557 189.044L3.47043 188.981L3.38383 188.92L3.29725 188.86L3.21075 188.801L3.12436 188.743L3.03816 188.687L2.95219 188.633L2.8665 188.579L2.78114 188.527L2.69618 188.477L2.61167 188.428L2.52765 188.38L2.44418 188.334L2.36132 188.289L2.27911 188.245L2.19762 188.203L2.11689 188.163L2.03697 188.123L1.95792 188.085L1.8798 188.049L1.80264 188.014L1.7265 187.98L1.65144 187.948L1.5775 187.917L1.50472 187.887L1.43317 187.859L1.36289 187.832L1.29392 187.806L1.22631 187.782L1.1601 187.759L1.09535 187.737L1.03209 187.716L0.970372 187.697L0.910231 187.678L0.851711 187.661L0.794852 187.645L0.739692 187.63L0.686269 187.616L0.634621 187.603L0.584781 187.591L0.536786 187.58L0.490667 187.569L0.446456 187.56L0.404185 187.552L0.363883 187.544L0.325577 187.537L0.289293 187.531L0.255058 187.526L0.222895 187.521L0.192826 187.517L0.164872 187.513L0.139053 187.51L0.115387 187.508L0.0938896 187.506L0.0745766 187.504L0.0574614 187.503L0.0425558 187.502L0.0298703 187.501L0.0194138 187.501L0.0111935 187.5L0.00521528 187.5L0.00148323 187.5L0 187.5L0.000766622 187.5L0.00378256 187.5L0.0090457 187.5L0.0165524 187.5L0.0262973 187.499L0.0382737 187.498L0.0524732 187.498L0.0688858 187.496L0.0875001 187.495L0.108303 187.493L0.13128 187.49L0.156415 187.488L0.183691 187.484L0.213089 187.48L0.244587 187.476L0.278165 187.471L0.313798 187.465L0.351463 187.458L0.391133 187.451L0.43278 187.443L0.476376 187.434L0.52189 187.424L0.569291 187.413L0.618547 187.401L0.669623 187.389L0.722485 187.375L0.777096 187.36L0.833418 187.344L0.891413 187.327L0.951042 187.309L1.01226 187.29L1.07504 187.27L1.13932 187.248L1.20506 187.226L1.27223 187.202L1.34077 187.176L1.41064 187.15L1.4818 187.122L1.55419 187.093L1.62776 187.062L1.70247 187.03L1.77827 186.997L1.85511 186.962L1.93294 186.926L2.0117 186.889L2.09134 186.85L2.17182 186.81L2.25307 186.768L2.33506 186.725L2.41772 186.681L2.501 186.635L2.58485 186.588L2.66921 186.539L2.75404 186.489L2.83927 186.437L2.92486 186.384L3.01075 186.33L3.09688 186.275L3.18321 186.218L3.26969 186.159L3.35625 186.1L3.44285 186.039L3.52943 185.976L3.61595 185.913L3.70235 185.848L3.78858 185.782L3.87459 185.715L3.96034 185.646L4.04576 185.577L4.13082 185.506L4.21546 185.434L4.29965 185.361L4.38332 185.288L4.46645 185.213L4.54897 185.137L4.63085 185.06L4.71205 184.982L4.79253 184.904L4.87223 184.824L4.95113 184.744L5.02918 184.663L5.10635 184.582L5.1826 184.499L5.25789 184.416L5.33219 184.333L5.40546 184.249L5.47768 184.165L5.54881 184.08L5.61883 183.994L5.6877 183.909L5.7554 183.823L5.8219 183.737L5.88718 183.65L5.95122 183.564L6.01399 183.477L6.07547 183.391L6.13565 183.304L6.19451 183.218L6.25203 183.131L6.3082 183.045L6.363 182.959L6.41643 182.873L6.46847 182.788L6.51912 182.703L6.56837 182.618L6.61621 182.534L6.66264 182.451L6.70765 182.368L6.75125 182.286L6.79344 182.204L6.83422 182.123L6.87359 182.043L6.91155 181.964L6.94812 181.886L6.9833 181.809L7.0171 181.732L7.04953 181.657L7.08061 181.583L7.11034 181.51L7.13874 181.439L7.16583 181.368L7.19163 181.299L7.21615 181.232L7.23942 181.165L7.26145 181.1L7.28227 181.037L7.3019 180.975L7.32038 180.915L7.33771 180.856L7.35394 180.799L7.36909 180.744L7.38319 180.69L7.39628 180.639L7.40837 180.589L7.41951 180.541L7.42974 180.494L7.43907 180.45L7.44756 180.407L7.45523 180.367L7.46213 180.329L7.46829 180.292L7.47375 180.258L7.47855 180.225L7.48274 180.195L7.48634 180.167L7.48941 180.141L7.49198 180.117L7.4941 180.095L7.49581 180.076L7.49715 180.059L7.49817 180.044L7.49891 180.031L7.49942 180.02L7.49973 180.012L7.4999 180.006L7.49997 180.002L7.49999 180L7.49999 180.001L7.50003 180.003L7.50014 180.009L7.50038 180.016L7.50079 180.025L7.50142 180.037L7.5023 180.051L7.50348 180.067L7.50501 180.086L7.50693 180.107L7.50928 180.129L7.5121 180.154L7.51545 180.181L7.51935 180.211L7.52385 180.242L7.52899 180.275L7.53481 180.311L7.54135 180.348L7.54865 180.388L7.55674 180.429L7.56567 180.473L7.57546 180.518L7.58616 180.565L7.59779 180.615L7.6104 180.665L7.62401 180.718L7.63866 180.773L7.65437 180.829L7.67117 180.887L7.6891 180.946L7.70817 181.007L7.72842 181.07L7.74988 181.134L7.77255 181.2L7.79647 181.267L7.82165 181.335L7.84812 181.405L7.8759 181.476L7.90499 181.548L7.93542 181.622L7.9672 181.696L8.00035 181.772L8.03487 181.849L8.07077 181.927L8.10807 182.005L8.14677 182.085L8.18687 182.165L8.22838 182.247L8.27131 182.328L8.31565 182.411L8.3614 182.494L8.40857 182.578L8.45715 182.662L8.50712 182.747L8.5585 182.832L8.61127 182.918L8.66542 183.004L8.72093 183.09L8.77781 183.176L8.83603 183.263L8.89558 183.349L8.95645 183.436L9.0186 183.523L9.08204 183.609L9.14673 183.695L9.21265 183.782L9.27978 183.868L9.34809 183.953L9.41756 184.039L9.48817 184.124L9.55987 184.209L9.63264 184.293L9.70646 184.377L9.78128 184.46L9.85707 184.542L9.93381 184.624L10.0114 184.706L10.0899 184.786L10.1693 184.866L10.2494 184.945L10.3302 185.023L10.4118 185.1L10.494 185.177L10.5769 185.252L10.6603 185.326L10.7442 185.4L10.8287 185.472L10.9135 185.543L10.9988 185.613L11.0844 185.682L11.1703 185.75L11.2564 185.817L11.3427 185.882L11.4292 185.946L11.5157 186.009L11.6023 186.071L11.6889 186.131L11.7755 186.19L11.8619 186.247L11.9481 186.304L12.0341 186.359L12.1199 186.412L12.2053 186.464L12.2903 186.515L12.3749 186.564L12.459 186.612L12.5425 186.659L12.6255 186.704L12.7078 186.748L12.7894 186.79L12.8703 186.831L12.9503 186.87L13.0295 186.909L13.1078 186.945L13.1851 186.981L13.2614 187.014L13.3367 187.047L13.4108 187.078L13.4837 187.108L13.5555 187.137L13.626 187.164L13.6952 187.19L13.763 187.214L13.8294 187.238L13.8944 187.26L13.9579 187.281L14.0199 187.3L14.0803 187.319L14.1391 187.336L14.1962 187.353L14.2516 187.368L14.3053 187.382L14.3572 187.395L14.4074 187.407L14.4557 187.419L14.5021 187.429L14.5466 187.438L14.5892 187.447L14.6298 187.455L14.6684 187.462L14.705 187.468L14.7396 187.473L14.7721 187.478L14.8025 187.482L14.8308 187.486L14.8569 187.489L14.881 187.492L14.9028 187.494L14.9225 187.496L14.9399 187.497L14.9552 187.498L14.9682 187.499L14.979 187.499L14.9876 187.5L14.994 187.5L14.998 187.5L14.9999 187.5L15 187.5Z" fill="#F9C758"/>
<circle cx="243" cy="2" r="2" fill="#4DB45E"/>
</svg>
