<svg width="308" height="220" viewBox="0 0 308 220" fill="none" xmlns="http://www.w3.org/2000/svg">
<rect x="32" y="110" width="243" height="102" rx="51" fill="#DFDCFD"/>
<path d="M174.97 145.508H132.222C132.222 145.508 85.1992 153.785 85.1992 199.308V211.723H221.992V199.308C221.992 153.785 174.97 145.508 174.97 145.508Z" fill="#FFBEDC"/>
<path d="M132.223 145.508V120.678H174.97V145.508C174.97 145.508 170.696 162.062 153.597 162.062C136.497 162.062 132.223 145.508 132.223 145.508H132.223Z" fill="#F4B018"/>
<ellipse cx="154.293" cy="69.2768" rx="54.6275" ry="49.9097" fill="#343B4E"/>
<path d="M192.038 75.1024C192.038 45.6703 115.062 55.7391 115.062 75.1024V102.211C115.062 121.574 132.168 137.065 153.55 137.065C174.932 137.065 192.038 121.574 192.038 102.211V75.1024Z" fill="#F9C758"/>
<path d="M146.35 117.199C148.979 119.013 155.639 121.553 161.248 117.199" stroke="#343B4E" stroke-width="2"/>
<path d="M166.418 95.8474C166.418 93.3644 168.128 91.709 170.693 91.709C173.258 91.709 174.968 93.3644 174.968 95.8474C174.968 98.3305 173.258 99.9859 170.693 99.9859C168.128 99.9859 166.418 98.3305 166.418 95.8474Z" fill="#343B4E"/>
<path d="M132.223 95.8474C132.223 98.3305 133.933 99.9859 136.497 99.9859C139.062 99.9859 140.772 98.3305 140.772 95.8474C140.772 93.3644 139.062 91.709 136.497 91.709C133.933 91.709 132.223 93.3644 132.223 95.8474Z" fill="#343B4E"/>
<path d="M152.311 51.1504C152.311 51.1504 163.916 85.4764 191.719 85.4764C191.719 85.4764 192.324 106.135 188.939 110.744C188.939 110.744 207.435 98.8253 207.435 65.4529L152.311 51.1504Z" fill="#343B4E" stroke="#343B4E"/>
<path d="M154.793 51.1504L100.662 68.4723C100.662 68.4723 105.8 110.744 118.108 110.744C118.108 110.744 115.121 105.977 115.121 85.3174C115.121 85.1585 154.793 76.7359 154.793 51.1504Z" fill="#343B4E" stroke="#343B4E"/>
<path d="M109.354 68.0366C104.81 68.0366 100.452 69.8772 97.2389 73.1534C94.0258 76.4297 92.2207 80.8732 92.2207 85.5066C92.2207 90.1399 94.0258 94.5835 97.2389 97.8597C100.452 101.136 104.81 102.977 109.354 102.977L109.354 85.5066L109.354 68.0366Z" fill="#EE6C6C"/>
<path d="M196.756 102.977C201.3 102.977 205.657 101.137 208.87 97.8602C212.084 94.584 213.889 90.1404 213.889 85.5071C213.889 80.8738 212.084 76.4302 208.87 73.154C205.657 69.8777 201.3 68.0371 196.756 68.0371L196.756 85.5071V102.977Z" fill="#EE6C6C"/>
<path d="M102.15 75.4852C108.43 63.4009 127.074 39.2324 151.418 39.2324C175.762 39.2324 196.918 63.4009 204.453 75.4852" stroke="#EE6C6C" stroke-width="7"/>
<path d="M233.752 28.2434C233.752 12.645 246.397 0 261.995 0C277.594 0 290.239 12.645 290.239 28.2434C290.239 43.8418 277.594 56.4868 261.995 56.4868H233.752V28.2434Z" fill="#B4B2FF"/>
<circle cx="261.997" cy="28.2431" r="21.1826" fill="white" fill-opacity="0.29"/>
<path fill-rule="evenodd" clip-rule="evenodd" d="M20 101L19.9985 101L19.994 101L19.9865 101L19.976 101.001L19.9626 101.001L19.9461 101.002L19.9267 101.003L19.9044 101.005L19.8791 101.007L19.8509 101.01L19.8198 101.013L19.7858 101.017L19.749 101.022L19.7093 101.027L19.6669 101.033L19.6217 101.04L19.5737 101.048L19.5231 101.057L19.4698 101.067L19.4138 101.078L19.3553 101.091L19.2942 101.104L19.2306 101.118L19.1645 101.134L19.0961 101.151L19.0252 101.17L18.952 101.19L18.8766 101.211L18.7989 101.234L18.719 101.258L18.6371 101.284L18.5531 101.311L18.467 101.34L18.3791 101.371L18.2892 101.403L18.1975 101.437L18.1041 101.473L18.009 101.51L17.9122 101.55L17.8138 101.591L17.714 101.633L17.6127 101.678L17.51 101.724L17.4061 101.773L17.3009 101.823L17.1945 101.875L17.087 101.929L16.9785 101.985L16.8691 102.042L16.7587 102.102L16.6475 102.163L16.5356 102.227L16.423 102.292L16.3098 102.359L16.1961 102.428L16.0819 102.499L15.9674 102.571L15.8525 102.646L15.7373 102.722L15.622 102.8L15.5066 102.88L15.3911 102.962L15.2757 103.045L15.1603 103.13L15.0452 103.216L14.9302 103.305L14.8156 103.395L14.7013 103.486L14.5875 103.579L14.4742 103.674L14.3614 103.77L14.2493 103.867L14.1378 103.966L14.0271 104.066L13.9172 104.167L13.8082 104.27L13.7001 104.373L13.5929 104.478L13.4868 104.584L13.3818 104.691L13.2779 104.8L13.1752 104.908L13.0738 105.018L12.9736 105.129L12.8747 105.24L12.7772 105.352L12.6812 105.465L12.5866 105.578L12.4935 105.692L12.4019 105.806L12.3119 105.921L12.2235 106.036L12.1367 106.151L12.0516 106.266L11.9681 106.382L11.8864 106.497L11.8065 106.613L11.7283 106.728L11.6519 106.843L11.5773 106.958L11.5045 107.073L11.4335 107.187L11.3645 107.301L11.2972 107.414L11.2319 107.527L11.1684 107.639L11.1068 107.75L11.047 107.86L10.9892 107.97L10.9333 108.078L10.8792 108.186L10.827 108.292L10.7767 108.398L10.7282 108.502L10.6816 108.605L10.6368 108.706L10.5939 108.806L10.5527 108.904L10.5134 109.001L10.4758 109.097L10.4399 109.19L10.4058 109.282L10.3734 109.372L10.3426 109.46L10.3135 109.546L10.286 109.63L10.2601 109.713L10.2357 109.793L10.2128 109.87L10.1914 109.946L10.1714 110.019L10.1528 110.091L10.1356 110.159L10.1197 110.225L10.105 110.289L10.0916 110.351L10.0793 110.409L10.0682 110.465L10.0581 110.519L10.0491 110.57L10.041 110.618L10.0339 110.663L10.0276 110.706L10.0222 110.746L10.0175 110.783L10.0135 110.817L10.0102 110.849L10.0074 110.877L10.0052 110.902L10.0035 110.925L10.0022 110.945L10.0013 110.961L10.0007 110.975L10.0003 110.986L10.0001 110.994L9.99999 110.998L9.99998 111L9.99997 110.999L9.99991 110.994L9.99973 110.987L9.99938 110.977L9.99879 110.964L9.99791 110.948L9.99667 110.928L9.99503 110.906L9.99291 110.881L9.99026 110.853L9.98703 110.822L9.98316 110.789L9.97859 110.752L9.97327 110.713L9.96713 110.67L9.96014 110.625L9.95223 110.578L9.94335 110.527L9.93345 110.474L9.92249 110.418L9.9104 110.36L9.89716 110.299L9.8827 110.236L9.86698 110.17L9.84996 110.102L9.8316 110.031L9.81185 109.958L9.79067 109.883L9.76803 109.805L9.74388 109.725L9.7182 109.644L9.69095 109.56L9.66209 109.474L9.6316 109.386L9.59944 109.296L9.56559 109.205L9.53002 109.112L9.49271 109.017L9.45363 108.92L9.41277 108.822L9.37011 108.722L9.32562 108.621L9.2793 108.518L9.23114 108.414L9.18111 108.309L9.12922 108.203L9.07545 108.096L9.01979 107.987L8.96226 107.878L8.90284 107.768L8.84153 107.656L8.77834 107.545L8.71328 107.432L8.64634 107.319L8.57754 107.205L8.5069 107.091L8.43441 106.976L8.36009 106.862L8.28397 106.746L8.20606 106.631L8.12638 106.516L8.04495 106.4L7.9618 106.285L7.87695 106.17L7.79044 106.054L7.70228 105.939L7.61252 105.825L7.52119 105.71L7.42832 105.597L7.33394 105.483L7.23811 105.37L7.14085 105.258L7.04222 105.147L6.94225 105.036L6.84098 104.926L6.73848 104.817L6.63478 104.709L6.52994 104.601L6.424 104.495L6.31702 104.39L6.20906 104.286L6.10017 104.183L5.9904 104.082L5.87982 103.981L5.76848 103.883L5.65644 103.785L5.54377 103.689L5.43053 103.594L5.31678 103.501L5.20258 103.409L5.08801 103.319L4.97312 103.23L4.85798 103.144L4.74267 103.058L4.62724 102.975L4.51178 102.893L4.39634 102.813L4.28099 102.734L4.16582 102.658L4.05088 102.583L3.93625 102.51L3.82199 102.439L3.70819 102.37L3.59491 102.302L3.48222 102.237L3.3702 102.173L3.25891 102.112L3.14842 102.052L3.03882 101.994L2.93016 101.938L2.82252 101.883L2.71596 101.831L2.61057 101.781L2.50639 101.732L2.40352 101.685L2.302 101.64L2.20192 101.597L2.10333 101.556L2.0063 101.516L1.9109 101.479L1.81718 101.443L1.72522 101.408L1.63508 101.376L1.5468 101.345L1.46047 101.316L1.37612 101.288L1.29383 101.262L1.21364 101.238L1.13562 101.215L1.0598 101.193L0.986256 101.173L0.915026 101.154L0.846161 101.137L0.779708 101.121L0.715714 101.106L0.654222 101.093L0.595275 101.08L0.538914 101.069L0.485177 101.059L0.434102 101.05L0.385724 101.042L0.340077 101.034L0.297193 101.028L0.257101 101.023L0.219829 101.018L0.185404 101.014L0.153849 101.01L0.125186 101.008L0.0994355 101.005L0.0766152 101.004L0.0567411 101.002L0.0398271 101.001L0.0258851 101.001L0.0149247 101L0.0069537 101L0.00197764 101L0 101L0.00102216 101L0.00504341 101L0.0120609 101L0.0220698 100.999L0.0350631 100.999L0.0510316 100.998L0.0699642 100.997L0.0918477 100.995L0.116667 100.993L0.144404 100.99L0.17504 100.987L0.208554 100.983L0.244922 100.979L0.284118 100.974L0.326116 100.968L0.370887 100.961L0.418398 100.953L0.468617 100.944L0.52151 100.934L0.57704 100.923L0.635168 100.911L0.695853 100.898L0.759055 100.884L0.824729 100.868L0.892831 100.851L0.963313 100.833L1.03613 100.813L1.11122 100.792L1.18855 100.77L1.26806 100.746L1.34968 100.72L1.43338 100.693L1.51909 100.664L1.60675 100.634L1.69631 100.602L1.7877 100.568L1.88086 100.533L1.97573 100.496L2.07225 100.457L2.17035 100.416L2.26996 100.374L2.37103 100.329L2.47348 100.283L2.57725 100.235L2.68226 100.185L2.78845 100.133L2.89576 100.08L3.0041 100.024L3.11341 99.9669L3.22362 99.9076L3.33467 99.8465L3.44646 99.7834L3.55895 99.7185L3.67205 99.6517L3.78569 99.5831L3.89981 99.5126L4.01433 99.4402L4.12918 99.3661L4.24428 99.2901L4.35958 99.2123L4.475 99.1328L4.59047 99.0515L4.70591 98.9685L4.82127 98.8837L4.93647 98.7974L5.05144 98.7093L5.16612 98.6197L5.28045 98.5285L5.39435 98.4357L5.50776 98.3415L5.62062 98.2458L5.73286 98.1486L5.84443 98.0501L5.95526 97.9502L6.06529 97.8491L6.17447 97.7467L6.28274 97.6431L6.39004 97.5383L6.49631 97.4324L6.60151 97.3255L6.70558 97.2177L6.80847 97.1088L6.91013 96.9991L7.01052 96.8886L7.10958 96.7773L7.20728 96.6654L7.30358 96.5527L7.39842 96.4395L7.49177 96.3258L7.5836 96.2117L7.67387 96.0971L7.76253 95.9822L7.84958 95.8671L7.93496 95.7518L8.01865 95.6364L8.10063 95.5209L8.18087 95.4055L8.25935 95.2901L8.33604 95.1749L8.41093 95.06L8.484 94.9453L8.55524 94.831L8.62463 94.7172L8.69216 94.6039L8.75782 94.4911L8.82161 94.3791L8.88351 94.2677L8.94354 94.1572L9.00167 94.0475L9.05792 93.9387L9.11229 93.831L9.16478 93.7244L9.2154 93.6189L9.26416 93.5146L9.31107 93.4116L9.35614 93.31L9.39938 93.2098L9.44081 93.1111L9.48045 93.0139L9.51832 92.9184L9.55444 92.8245L9.58884 92.7324L9.62154 92.6421L9.65256 92.5537L9.68193 92.4672L9.70969 92.3827L9.73587 92.3003L9.7605 92.2199L9.78362 92.1417L9.80526 92.0657L9.82546 91.992L9.84426 91.9206L9.8617 91.8515L9.87783 91.7849L9.89268 91.7207L9.90631 91.659L9.91876 91.5998L9.93008 91.5433L9.94031 91.4893L9.94951 91.438L9.95772 91.3894L9.965 91.3436L9.9714 91.3005L9.97698 91.2601L9.98178 91.2226L9.98587 91.188L9.9893 91.1562L9.99213 91.1273L9.99441 91.1013L9.9962 91.0783L9.99756 91.0582L9.99854 91.041L9.99922 91.0268L9.99964 91.0156L9.99987 91.0074L9.99996 91.0022L9.99998 91L9.99998 91.0008L10 91.0046L10.0002 91.0113L10.0005 91.0211L10.0011 91.0339L10.0019 91.0496L10.0031 91.0683L10.0046 91.0899L10.0067 91.1145L10.0092 91.142L10.0124 91.1724L10.0161 91.2057L10.0206 91.2419L10.0258 91.2808L10.0318 91.3226L10.0386 91.3672L10.0464 91.4145L10.0551 91.4645L10.0649 91.5172L10.0757 91.5725L10.0876 91.6304L10.1006 91.6909L10.1149 91.7539L10.1304 91.8194L10.1472 91.8873L10.1653 91.9576L10.1849 92.0302L10.2058 92.1051L10.2282 92.1823L10.2521 92.2616L10.2776 92.3431L10.3046 92.4266L10.3332 92.5121L10.3634 92.5997L10.3953 92.6891L10.4289 92.7803L10.4642 92.8733L10.5012 92.9681L10.54 93.0645L10.5806 93.1624L10.6229 93.2619L10.6671 93.3629L10.7132 93.4652L10.761 93.5689L10.8108 93.6738L10.8624 93.7799L10.9158 93.8871L10.9712 93.9954L11.0284 94.1046L11.0875 94.2148L11.1485 94.3258L11.2114 94.4375L11.2762 94.5499L11.3428 94.663L11.4113 94.7766L11.4817 94.8907L11.5539 95.0052L11.6279 95.12L11.7037 95.2351L11.7814 95.3504L11.8608 95.4658L11.9419 95.5812L12.0248 95.6967L12.1094 95.8121L12.1956 95.9273L12.2835 96.0423L12.373 96.157L12.4641 96.2713L12.5568 96.3853L12.6509 96.4987L12.7465 96.6116L12.8435 96.7239L12.9419 96.8355L13.0417 96.9464L13.1428 97.0565L13.2451 97.1658L13.3486 97.2741L13.4533 97.3815L13.559 97.4879L13.6658 97.5931L13.7736 97.6973L13.8824 97.8003L13.992 97.9021L14.1025 98.0025L14.2137 98.1017L14.3256 98.1995L14.4382 98.2959L14.5514 98.3909L14.665 98.4844L14.7792 98.5763L14.8937 98.6667L15.0085 98.7555L15.1236 98.8427L15.2389 98.9282L15.3543 99.012L15.4698 99.0941L15.5852 99.1745L15.7006 99.2531L15.8158 99.33L15.9308 99.405L16.0455 99.4782L16.1598 99.5496L16.2737 99.6191L16.387 99.6868L16.4998 99.7526L16.612 99.8166L16.7234 99.8786L16.834 99.9388L16.9438 99.9971L17.0526 100.053L17.1604 100.108L17.2671 100.161L17.3727 100.211L17.4771 100.26L17.5801 100.307L17.6819 100.353L17.7822 100.396L17.881 100.438L17.9783 100.477L18.074 100.515L18.168 100.552L18.2602 100.586L18.3507 100.619L18.4392 100.65L18.5259 100.68L18.6105 100.708L18.6932 100.734L18.7737 100.759L18.8521 100.782L18.9282 100.804L19.0021 100.824L19.0737 100.843L19.143 100.86L19.2098 100.877L19.2742 100.892L19.3361 100.905L19.3955 100.918L19.4522 100.929L19.5064 100.94L19.5579 100.949L19.6067 100.957L19.6528 100.964L19.6961 100.971L19.7367 100.977L19.7744 100.981L19.8093 100.986L19.8413 100.989L19.8704 100.992L19.8966 100.994L19.9199 100.996L19.9403 100.997L19.9576 100.998L19.9721 100.999L19.9835 101L19.9919 101L19.9974 101L19.9998 101L20 101Z" fill="#B758A0"/>
<path d="M260.808 30.992C260.723 30.992 260.648 30.9653 260.584 30.912C260.52 30.848 260.488 30.768 260.488 30.672C260.488 30.5867 260.488 30.5013 260.488 30.416C260.488 30.3307 260.488 30.2453 260.488 30.16C260.531 29.744 260.643 29.376 260.824 29.056C261.016 28.7253 261.235 28.4267 261.48 28.16C261.736 27.8827 261.987 27.6213 262.232 27.376C262.488 27.1307 262.701 26.8907 262.872 26.656C263.053 26.4107 263.16 26.16 263.192 25.904C263.224 25.5947 263.16 25.3333 263 25.12C262.851 24.9067 262.643 24.7467 262.376 24.64C262.12 24.5227 261.848 24.464 261.56 24.464C261.059 24.464 260.648 24.5867 260.328 24.832C260.008 25.0773 259.789 25.472 259.672 26.016C259.64 26.144 259.587 26.24 259.512 26.304C259.437 26.3573 259.336 26.384 259.208 26.384H257.848C257.752 26.384 257.667 26.352 257.592 26.288C257.528 26.2133 257.496 26.1173 257.496 26C257.507 25.5733 257.603 25.1627 257.784 24.768C257.976 24.3627 258.248 24 258.6 23.68C258.963 23.36 259.4 23.1093 259.912 22.928C260.424 22.736 261.011 22.64 261.672 22.64C262.397 22.64 263.005 22.736 263.496 22.928C263.997 23.1093 264.392 23.3493 264.68 23.648C264.979 23.9467 265.192 24.272 265.32 24.624C265.448 24.9653 265.507 25.3013 265.496 25.632C265.475 26.0373 265.384 26.4 265.224 26.72C265.064 27.04 264.867 27.3387 264.632 27.616C264.397 27.8827 264.157 28.1493 263.912 28.416C263.667 28.672 263.448 28.9333 263.256 29.2C263.075 29.4667 262.952 29.7493 262.888 30.048C262.867 30.144 262.851 30.24 262.84 30.336C262.829 30.4213 262.819 30.5067 262.808 30.592C262.765 30.72 262.712 30.8213 262.648 30.896C262.584 30.96 262.493 30.992 262.376 30.992H260.808ZM260.76 34C260.653 34 260.563 33.9627 260.488 33.888C260.413 33.8133 260.376 33.7227 260.376 33.616V32.224C260.376 32.1067 260.413 32.0107 260.488 31.936C260.563 31.8613 260.653 31.824 260.76 31.824H262.312C262.429 31.824 262.525 31.8613 262.6 31.936C262.675 32.0107 262.712 32.1067 262.712 32.224V33.616C262.712 33.7227 262.675 33.8133 262.6 33.888C262.525 33.9627 262.429 34 262.312 34H260.76Z" fill="white"/>
<path d="M270.808 30.992C270.723 30.992 270.648 30.9653 270.584 30.912C270.52 30.848 270.488 30.768 270.488 30.672C270.488 30.5867 270.488 30.5013 270.488 30.416C270.488 30.3307 270.488 30.2453 270.488 30.16C270.531 29.744 270.643 29.376 270.824 29.056C271.016 28.7253 271.235 28.4267 271.48 28.16C271.736 27.8827 271.987 27.6213 272.232 27.376C272.488 27.1307 272.701 26.8907 272.872 26.656C273.053 26.4107 273.16 26.16 273.192 25.904C273.224 25.5947 273.16 25.3333 273 25.12C272.851 24.9067 272.643 24.7467 272.376 24.64C272.12 24.5227 271.848 24.464 271.56 24.464C271.059 24.464 270.648 24.5867 270.328 24.832C270.008 25.0773 269.789 25.472 269.672 26.016C269.64 26.144 269.587 26.24 269.512 26.304C269.437 26.3573 269.336 26.384 269.208 26.384H267.848C267.752 26.384 267.667 26.352 267.592 26.288C267.528 26.2133 267.496 26.1173 267.496 26C267.507 25.5733 267.603 25.1627 267.784 24.768C267.976 24.3627 268.248 24 268.6 23.68C268.963 23.36 269.4 23.1093 269.912 22.928C270.424 22.736 271.011 22.64 271.672 22.64C272.397 22.64 273.005 22.736 273.496 22.928C273.997 23.1093 274.392 23.3493 274.68 23.648C274.979 23.9467 275.192 24.272 275.32 24.624C275.448 24.9653 275.507 25.3013 275.496 25.632C275.475 26.0373 275.384 26.4 275.224 26.72C275.064 27.04 274.867 27.3387 274.632 27.616C274.397 27.8827 274.157 28.1493 273.912 28.416C273.667 28.672 273.448 28.9333 273.256 29.2C273.075 29.4667 272.952 29.7493 272.888 30.048C272.867 30.144 272.851 30.24 272.84 30.336C272.829 30.4213 272.819 30.5067 272.808 30.592C272.765 30.72 272.712 30.8213 272.648 30.896C272.584 30.96 272.493 30.992 272.376 30.992H270.808ZM270.76 34C270.653 34 270.563 33.9627 270.488 33.888C270.413 33.8133 270.376 33.7227 270.376 33.616V32.224C270.376 32.1067 270.413 32.0107 270.488 31.936C270.563 31.8613 270.653 31.824 270.76 31.824H272.312C272.429 31.824 272.525 31.8613 272.6 31.936C272.675 32.0107 272.712 32.1067 272.712 32.224V33.616C272.712 33.7227 272.675 33.8133 272.6 33.888C272.525 33.9627 272.429 34 272.312 34H270.76Z" fill="white"/>
<path d="M250.808 30.992C250.723 30.992 250.648 30.9653 250.584 30.912C250.52 30.848 250.488 30.768 250.488 30.672C250.488 30.5867 250.488 30.5013 250.488 30.416C250.488 30.3307 250.488 30.2453 250.488 30.16C250.531 29.744 250.643 29.376 250.824 29.056C251.016 28.7253 251.235 28.4267 251.48 28.16C251.736 27.8827 251.987 27.6213 252.232 27.376C252.488 27.1307 252.701 26.8907 252.872 26.656C253.053 26.4107 253.16 26.16 253.192 25.904C253.224 25.5947 253.16 25.3333 253 25.12C252.851 24.9067 252.643 24.7467 252.376 24.64C252.12 24.5227 251.848 24.464 251.56 24.464C251.059 24.464 250.648 24.5867 250.328 24.832C250.008 25.0773 249.789 25.472 249.672 26.016C249.64 26.144 249.587 26.24 249.512 26.304C249.437 26.3573 249.336 26.384 249.208 26.384H247.848C247.752 26.384 247.667 26.352 247.592 26.288C247.528 26.2133 247.496 26.1173 247.496 26C247.507 25.5733 247.603 25.1627 247.784 24.768C247.976 24.3627 248.248 24 248.6 23.68C248.963 23.36 249.4 23.1093 249.912 22.928C250.424 22.736 251.011 22.64 251.672 22.64C252.397 22.64 253.005 22.736 253.496 22.928C253.997 23.1093 254.392 23.3493 254.68 23.648C254.979 23.9467 255.192 24.272 255.32 24.624C255.448 24.9653 255.507 25.3013 255.496 25.632C255.475 26.0373 255.384 26.4 255.224 26.72C255.064 27.04 254.867 27.3387 254.632 27.616C254.397 27.8827 254.157 28.1493 253.912 28.416C253.667 28.672 253.448 28.9333 253.256 29.2C253.075 29.4667 252.952 29.7493 252.888 30.048C252.867 30.144 252.851 30.24 252.84 30.336C252.829 30.4213 252.819 30.5067 252.808 30.592C252.765 30.72 252.712 30.8213 252.648 30.896C252.584 30.96 252.493 30.992 252.376 30.992H250.808ZM250.76 34C250.653 34 250.563 33.9627 250.488 33.888C250.413 33.8133 250.376 33.7227 250.376 33.616V32.224C250.376 32.1067 250.413 32.0107 250.488 31.936C250.563 31.8613 250.653 31.824 250.76 31.824H252.312C252.429 31.824 252.525 31.8613 252.6 31.936C252.675 32.0107 252.712 32.1067 252.712 32.224V33.616C252.712 33.7227 252.675 33.8133 252.6 33.888C252.525 33.9627 252.429 34 252.312 34H250.76Z" fill="white"/>
<circle cx="153.5" cy="181.5" r="2.5" fill="white"/>
<circle cx="153.5" cy="189.5" r="2.5" fill="white"/>
<circle cx="153.5" cy="197.5" r="2.5" fill="white"/>
<path fill-rule="evenodd" clip-rule="evenodd" d="M308 206.5L307.999 206.5L307.996 206.5L307.99 206.5L307.982 206.5L307.972 206.501L307.96 206.502L307.945 206.503L307.928 206.504L307.909 206.505L307.888 206.507L307.865 206.51L307.839 206.513L307.812 206.516L307.782 206.52L307.75 206.525L307.716 206.53L307.68 206.536L307.642 206.543L307.602 206.55L307.56 206.559L307.516 206.568L307.471 206.578L307.423 206.589L307.373 206.601L307.322 206.614L307.269 206.627L307.214 206.642L307.157 206.658L307.099 206.675L307.039 206.694L306.978 206.713L306.915 206.733L306.85 206.755L306.784 206.778L306.717 206.802L306.648 206.828L306.578 206.855L306.507 206.883L306.434 206.912L306.36 206.943L306.285 206.975L306.21 207.008L306.133 207.043L306.055 207.08L305.976 207.117L305.896 207.156L305.815 207.197L305.734 207.238L305.652 207.282L305.569 207.326L305.486 207.373L305.402 207.42L305.317 207.469L305.232 207.519L305.147 207.571L305.061 207.624L304.976 207.679L304.889 207.734L304.803 207.792L304.717 207.85L304.63 207.91L304.543 207.971L304.457 208.034L304.37 208.097L304.284 208.162L304.198 208.229L304.112 208.296L304.026 208.365L303.941 208.434L303.856 208.505L303.771 208.577L303.687 208.65L303.603 208.724L303.52 208.799L303.438 208.875L303.356 208.952L303.275 209.03L303.195 209.109L303.115 209.188L303.036 209.269L302.958 209.35L302.881 209.431L302.805 209.514L302.73 209.597L302.656 209.68L302.583 209.764L302.511 209.849L302.44 209.934L302.37 210.019L302.301 210.105L302.234 210.191L302.168 210.277L302.103 210.363L302.039 210.45L301.976 210.536L301.915 210.623L301.855 210.71L301.796 210.796L301.739 210.882L301.683 210.969L301.628 211.055L301.575 211.14L301.523 211.226L301.473 211.311L301.424 211.395L301.376 211.479L301.33 211.562L301.285 211.645L301.242 211.727L301.2 211.809L301.159 211.889L301.12 211.969L301.083 212.048L301.046 212.126L301.011 212.203L300.978 212.279L300.945 212.354L300.915 212.428L300.885 212.501L300.857 212.572L300.83 212.643L300.804 212.711L300.78 212.779L300.757 212.845L300.735 212.91L300.714 212.973L300.695 213.034L300.677 213.094L300.66 213.153L300.644 213.21L300.629 213.265L300.615 213.318L300.602 213.369L300.59 213.419L300.579 213.467L300.569 213.513L300.559 213.557L300.551 213.599L300.544 213.639L300.537 213.677L300.531 213.713L300.525 213.748L300.521 213.78L300.517 213.809L300.513 213.837L300.51 213.863L300.508 213.886L300.506 213.908L300.504 213.927L300.503 213.944L300.502 213.959L300.501 213.971L300.5 213.981L300.5 213.989L300.5 213.995L300.5 213.999L300.5 214L300.5 213.999L300.5 213.996L300.5 213.99L300.5 213.983L300.499 213.973L300.498 213.961L300.498 213.946L300.496 213.93L300.495 213.911L300.493 213.89L300.49 213.867L300.487 213.841L300.484 213.814L300.48 213.784L300.475 213.753L300.47 213.719L300.464 213.683L300.458 213.645L300.45 213.606L300.442 213.564L300.433 213.52L300.423 213.474L300.412 213.427L300.4 213.377L300.387 213.326L300.374 213.273L300.359 213.218L300.343 213.162L300.326 213.104L300.308 213.044L300.289 212.983L300.268 212.92L300.247 212.855L300.224 212.79L300.2 212.722L300.174 212.654L300.148 212.584L300.12 212.512L300.09 212.44L300.06 212.366L300.028 212.292L299.994 212.216L299.959 212.139L299.923 212.061L299.886 211.982L299.847 211.902L299.807 211.822L299.765 211.74L299.722 211.658L299.677 211.576L299.631 211.492L299.584 211.408L299.535 211.324L299.485 211.239L299.433 211.154L299.38 211.068L299.326 210.982L299.27 210.896L299.213 210.81L299.155 210.723L299.095 210.637L299.034 210.55L298.971 210.464L298.908 210.377L298.843 210.291L298.777 210.205L298.709 210.119L298.641 210.033L298.571 209.947L298.5 209.862L298.429 209.778L298.356 209.694L298.282 209.61L298.207 209.527L298.131 209.444L298.054 209.363L297.976 209.281L297.897 209.201L297.818 209.121L297.738 209.043L297.657 208.965L297.575 208.888L297.493 208.811L297.41 208.736L297.326 208.662L297.242 208.589L297.158 208.517L297.073 208.446L296.988 208.376L296.902 208.307L296.816 208.239L296.73 208.173L296.643 208.108L296.557 208.044L296.47 207.981L296.384 207.92L296.297 207.86L296.211 207.801L296.124 207.743L296.038 207.687L295.952 207.633L295.866 207.579L295.781 207.527L295.696 207.477L295.612 207.428L295.528 207.38L295.444 207.334L295.361 207.289L295.279 207.245L295.198 207.203L295.117 207.163L295.037 207.123L294.958 207.085L294.88 207.049L294.803 207.014L294.727 206.98L294.651 206.948L294.577 206.917L294.505 206.887L294.433 206.859L294.363 206.832L294.294 206.806L294.226 206.782L294.16 206.759L294.095 206.737L294.032 206.716L293.97 206.697L293.91 206.678L293.852 206.661L293.795 206.645L293.74 206.63L293.686 206.616L293.635 206.603L293.585 206.591L293.537 206.58L293.491 206.569L293.446 206.56L293.404 206.552L293.364 206.544L293.326 206.537L293.289 206.531L293.255 206.526L293.223 206.521L293.193 206.517L293.165 206.513L293.139 206.51L293.115 206.508L293.094 206.506L293.075 206.504L293.057 206.503L293.043 206.502L293.03 206.501L293.019 206.501L293.011 206.5L293.005 206.5L293.001 206.5L293 206.5L293.001 206.5L293.004 206.5L293.009 206.5L293.017 206.5L293.026 206.499L293.038 206.498L293.052 206.498L293.069 206.496L293.088 206.495L293.108 206.493L293.131 206.49L293.156 206.488L293.184 206.484L293.213 206.48L293.245 206.476L293.278 206.471L293.314 206.465L293.351 206.458L293.391 206.451L293.433 206.443L293.476 206.434L293.522 206.424L293.569 206.413L293.619 206.401L293.67 206.389L293.722 206.375L293.777 206.36L293.833 206.344L293.891 206.327L293.951 206.309L294.012 206.29L294.075 206.27L294.139 206.248L294.205 206.226L294.272 206.202L294.341 206.176L294.411 206.15L294.482 206.122L294.554 206.093L294.628 206.062L294.702 206.03L294.778 205.997L294.855 205.962L294.933 205.926L295.012 205.889L295.091 205.85L295.172 205.81L295.253 205.768L295.335 205.725L295.418 205.681L295.501 205.635L295.585 205.588L295.669 205.539L295.754 205.489L295.839 205.437L295.925 205.384L296.011 205.33L296.097 205.275L296.183 205.218L296.27 205.159L296.356 205.1L296.443 205.039L296.529 204.976L296.616 204.913L296.702 204.848L296.789 204.782L296.875 204.715L296.96 204.646L297.046 204.577L297.131 204.506L297.215 204.434L297.3 204.361L297.383 204.288L297.466 204.213L297.549 204.137L297.631 204.06L297.712 203.982L297.793 203.904L297.872 203.824L297.951 203.744L298.029 203.663L298.106 203.582L298.183 203.499L298.258 203.416L298.332 203.333L298.405 203.249L298.478 203.165L298.549 203.08L298.619 202.994L298.688 202.909L298.755 202.823L298.822 202.737L298.887 202.65L298.951 202.564L299.014 202.477L299.075 202.391L299.136 202.304L299.195 202.218L299.252 202.131L299.308 202.045L299.363 201.959L299.416 201.873L299.468 201.788L299.519 201.703L299.568 201.618L299.616 201.534L299.663 201.451L299.708 201.368L299.751 201.286L299.793 201.204L299.834 201.123L299.874 201.043L299.912 200.964L299.948 200.886L299.983 200.809L300.017 200.732L300.05 200.657L300.081 200.583L300.11 200.51L300.139 200.439L300.166 200.368L300.192 200.299L300.216 200.232L300.239 200.165L300.261 200.1L300.282 200.037L300.302 199.975L300.32 199.915L300.338 199.856L300.354 199.799L300.369 199.744L300.383 199.69L300.396 199.639L300.408 199.589L300.42 199.541L300.43 199.494L300.439 199.45L300.448 199.407L300.455 199.367L300.462 199.329L300.468 199.292L300.474 199.258L300.479 199.225L300.483 199.195L300.486 199.167L300.489 199.141L300.492 199.117L300.494 199.095L300.496 199.076L300.497 199.059L300.498 199.044L300.499 199.031L300.499 199.02L300.5 199.012L300.5 199.006L300.5 199.002L300.5 199L300.5 199.001L300.5 199.003L300.5 199.009L300.5 199.016L300.501 199.025L300.501 199.037L300.502 199.051L300.503 199.067L300.505 199.086L300.507 199.107L300.509 199.129L300.512 199.154L300.515 199.181L300.519 199.211L300.524 199.242L300.529 199.275L300.535 199.311L300.541 199.348L300.549 199.388L300.557 199.429L300.566 199.473L300.575 199.518L300.586 199.565L300.598 199.615L300.61 199.665L300.624 199.718L300.639 199.773L300.654 199.829L300.671 199.887L300.689 199.946L300.708 200.007L300.728 200.07L300.75 200.134L300.773 200.2L300.796 200.267L300.822 200.335L300.848 200.405L300.876 200.476L300.905 200.548L300.935 200.622L300.967 200.696L301 200.772L301.035 200.849L301.071 200.927L301.108 201.005L301.147 201.085L301.187 201.165L301.228 201.247L301.271 201.328L301.316 201.411L301.361 201.494L301.409 201.578L301.457 201.662L301.507 201.747L301.559 201.832L301.611 201.918L301.665 202.004L301.721 202.09L301.778 202.176L301.836 202.263L301.896 202.349L301.956 202.436L302.019 202.523L302.082 202.609L302.147 202.695L302.213 202.782L302.28 202.868L302.348 202.953L302.418 203.039L302.488 203.124L302.56 203.209L302.633 203.293L302.706 203.377L302.781 203.46L302.857 203.542L302.934 203.624L303.011 203.706L303.09 203.786L303.169 203.866L303.249 203.945L303.33 204.023L303.412 204.1L303.494 204.177L303.577 204.252L303.66 204.326L303.744 204.4L303.829 204.472L303.914 204.543L303.999 204.613L304.084 204.682L304.17 204.75L304.256 204.817L304.343 204.882L304.429 204.946L304.516 205.009L304.602 205.071L304.689 205.131L304.775 205.19L304.862 205.247L304.948 205.304L305.034 205.359L305.12 205.412L305.205 205.464L305.29 205.515L305.375 205.564L305.459 205.612L305.543 205.659L305.625 205.704L305.708 205.748L305.789 205.79L305.87 205.831L305.95 205.87L306.03 205.909L306.108 205.945L306.185 205.981L306.261 206.014L306.337 206.047L306.411 206.078L306.484 206.108L306.555 206.137L306.626 206.164L306.695 206.19L306.763 206.214L306.829 206.238L306.894 206.26L306.958 206.281L307.02 206.3L307.08 206.319L307.139 206.336L307.196 206.353L307.252 206.368L307.305 206.382L307.357 206.395L307.407 206.407L307.456 206.419L307.502 206.429L307.547 206.438L307.589 206.447L307.63 206.455L307.668 206.462L307.705 206.468L307.74 206.473L307.772 206.478L307.802 206.482L307.831 206.486L307.857 206.489L307.881 206.492L307.903 206.494L307.922 206.496L307.94 206.497L307.955 206.498L307.968 206.499L307.979 206.499L307.988 206.5L307.994 206.5L307.998 206.5L308 206.5L308 206.5Z" fill="#4DB45E"/>
</svg>
