<svg width="329" height="218" viewBox="0 0 329 218" fill="none" xmlns="http://www.w3.org/2000/svg">
<g clip-path="url(#clip0_205_560)">
<rect x="40" y="114.406" width="243" height="103" rx="51.5" fill="#F5EFFF"/>
<path d="M187.044 148.932H142.448C142.448 148.932 93.3926 157.566 93.3926 205.057V218.01H236.1V205.057C236.1 157.566 187.044 148.932 187.044 148.932Z" fill="#FFC6E0"/>
<path d="M142.447 148.932V123.027H187.043V148.932C187.043 148.932 182.584 166.201 164.745 166.201C146.907 166.201 142.447 148.932 142.447 148.932H142.447Z" fill="#F4B018"/>
<path d="M213.805 97.1191C213.805 101.868 209.792 105.754 204.886 105.754C199.98 105.754 195.967 101.868 195.967 97.1191C195.967 92.37 199.98 88.4844 204.886 88.4844C209.792 88.4844 213.805 92.37 213.805 97.1191Z" fill="#F4B018"/>
<path d="M133.53 97.1191C133.53 92.37 129.516 88.4844 124.611 88.4844C119.705 88.4844 115.691 92.37 115.691 97.1191C115.691 101.868 119.705 105.754 124.611 105.754C129.516 105.754 133.53 101.868 133.53 97.1191Z" fill="#F4B018"/>
<path d="M204.884 71.2178C204.884 38.4058 124.611 49.6309 124.611 71.2178V101.439C124.611 123.026 142.45 140.296 164.748 140.296C187.046 140.296 204.884 123.026 204.884 101.439V71.2178Z" fill="#F9C758"/>
<path d="M195.967 79.8564V97.1259L204.886 88.4912V75.5391L195.967 79.8564Z" fill="#343B4E"/>
<path d="M133.531 79.8564V97.1259L124.611 88.4912V75.5391L133.531 79.8564Z" fill="#343B4E"/>
<path d="M178.123 97.1201C178.123 94.5297 179.907 92.8027 182.583 92.8027C185.258 92.8027 187.042 94.5297 187.042 97.1201C187.042 99.7105 185.258 101.437 182.583 101.437C179.907 101.437 178.123 99.7105 178.123 97.1201Z" fill="#343B4E"/>
<path d="M142.447 97.1201C142.447 99.7105 144.231 101.437 146.907 101.437C149.583 101.437 151.366 99.7105 151.366 97.1201C151.366 94.5297 149.583 92.8027 146.907 92.8027C144.231 92.8027 142.447 94.5297 142.447 97.1201Z" fill="#343B4E"/>
<path d="M204.884 68.9294V79.8524C204.884 79.8524 189.409 71.1313 164.748 71.1313C140.086 71.1313 124.611 79.8524 124.611 79.8524V68.9294C124.611 47.4721 141.692 32.3613 162.741 32.3613H166.755C187.804 32.3613 204.884 47.4721 204.884 68.9294Z" fill="#8B4EE7"/>
<path d="M191.505 75.5304C184.548 73.6308 175.54 72.0333 164.971 72.0333H164.525C153.956 72.0333 144.947 73.6308 137.99 75.5304C138.347 31.4932 164.748 32.3567 164.748 32.3567C164.748 32.3567 191.149 31.4932 191.505 75.5304H191.505Z" fill="#F5EFFF"/>
<path d="M164.748 71.2188C140.791 71.2188 125.49 79.357 124.611 79.8535C126.021 84.8789 136.001 92.8056 138.811 92.8056C140.715 92.8056 142.691 92.0501 145.179 91.0873C149.407 89.4597 155.427 88.4882 164.748 88.4882C174.059 88.4882 179.527 89.4553 183.683 91.083C186.154 92.0501 188.103 92.8056 190.016 92.8056C192.812 92.8056 203.332 85.2718 204.884 79.8535C203.783 79.2361 188.513 71.2188 164.748 71.2188L164.748 71.2188Z" fill="#6226BC"/>
<path d="M164.744 36.6777C168.439 36.6777 171.433 34.7447 171.433 32.3603C171.433 29.9759 168.439 28.043 164.744 28.043C161.05 28.043 158.055 29.9759 158.055 32.3603C158.055 34.7447 161.05 36.6777 164.744 36.6777Z" fill="#B384FB"/>
<path d="M162.064 49.0847C162.064 48.4306 162.595 47.9004 163.249 47.9004H171.166C171.166 49.5938 169.794 50.9666 168.1 50.9666H162.88C162.429 50.9666 162.064 50.6016 162.064 50.1514V49.0847Z" fill="#8B4EE7"/>
<path d="M162.064 52.9187C162.064 52.2646 162.595 51.7344 163.249 51.7344H169.083C169.083 53.4278 167.71 54.8006 166.017 54.8006H162.693C162.346 54.8006 162.064 54.5192 162.064 54.172V52.9187Z" fill="#F9C758"/>
<path d="M163.249 55.6738C162.595 55.6738 162.064 56.2041 162.064 56.8581V60.8546C163.821 60.8546 165.245 59.4308 165.245 57.6745V56.1378C165.245 55.8816 165.037 55.6738 164.781 55.6738H163.249Z" fill="#F97228"/>
<path d="M156.713 120.43C159.546 122.384 166.723 125.121 172.767 120.43" stroke="#343B4E"/>
<path d="M118 159.354V218.406H212V159.354L201.237 152.406V182.975C197.17 187.143 184.876 195.48 168.229 195.48C151.582 195.48 134.504 187.143 128.046 182.975V152.406L118 159.354Z" fill="#8B4EE7"/>
<g opacity="0.88">
<path d="M114.43 247.152L93.366 158.691L84.3496 160.432L97.7115 250.378C97.7414 250.578 97.7753 250.778 97.814 250.978L98.3948 253.987C99.3901 259.15 103.02 262.791 106.501 262.119L110.639 261.32C114.12 260.648 116.134 255.918 115.138 250.755L114.557 247.746C114.519 247.548 114.477 247.35 114.43 247.152ZM107.499 256.166C105.19 256.611 102.71 253.823 101.959 249.934C101.209 246.045 102.473 242.534 104.783 242.087C107.093 241.64 109.572 244.429 110.323 248.319C111.073 252.208 109.809 255.72 107.499 256.166Z" fill="#4F52FF"/>
<path d="M92.0294 127.329L95.3983 144.788C95.5167 145.401 95.4927 146.034 95.3281 146.636C95.1636 147.239 94.8629 147.796 94.4492 148.264L90.1523 153.124C89.5557 153.799 88.7526 154.258 87.8682 154.429C86.9838 154.599 86.0677 154.472 85.2629 154.068L79.4666 151.154C78.9085 150.873 78.4223 150.469 78.0454 149.97C77.6685 149.472 77.411 148.894 77.2927 148.281L73.9233 130.822C73.4151 128.187 70.021 127.339 68.3828 129.463C64.4642 134.543 62.6656 141.338 64.0063 148.284C66.4291 160.84 77.8823 167.588 89.9591 165.257C102.036 162.925 110.155 152.399 107.733 139.842C106.392 132.895 102.195 127.258 96.667 124.001C94.3561 122.644 91.5235 124.695 92.0294 127.329Z" fill="#6226BC"/>
<path d="M90.3848 127.645L93.7537 145.104C93.8721 145.718 93.8481 146.35 93.6835 146.953C93.519 147.555 93.2183 148.112 92.8046 148.58L88.5077 153.44C87.9112 154.115 87.1081 154.574 86.2237 154.745C85.3393 154.915 84.4232 154.789 83.6184 154.384L77.8221 151.47C77.2639 151.189 76.7776 150.785 76.4007 150.286C76.0238 149.788 75.7663 149.21 75.6482 148.597L72.2787 131.138C71.7711 128.502 68.3765 127.656 66.7383 129.779C62.8197 134.859 61.0211 141.653 62.3618 148.6C64.7845 161.156 76.2378 167.904 88.3145 165.573C100.391 163.242 108.514 152.715 106.089 140.158C104.748 133.212 100.551 127.575 95.023 124.318C92.7115 122.96 89.8766 125.012 90.3848 127.645Z" fill="#8B4EE7"/>
<path d="M113.119 247.404L92.0555 158.943L83.0391 160.684L96.401 250.63C96.4308 250.831 96.4654 251.031 96.5034 251.23L97.0842 254.239C98.0796 259.403 101.71 263.043 105.191 262.371L109.329 261.573C112.81 260.9 114.824 256.171 113.827 251.007L113.247 247.998C113.207 247.801 113.165 247.604 113.119 247.404ZM106.189 256.418C103.879 256.863 101.399 254.075 100.649 250.186C99.8987 246.297 101.163 242.786 103.472 242.339C105.781 241.892 108.262 244.681 109.012 248.57C109.762 252.459 108.498 255.972 106.189 256.418Z" fill="#8B4EE7"/>
</g>
<path d="M12 41.4063C12 25.9067 24.5649 13.3418 40.0645 13.3418H41C57.0163 13.3418 70 26.3255 70 42.3418V69.4708H40.0645C24.5649 69.4708 12 56.9059 12 41.4063Z" fill="#CFB2FF"/>
<circle cx="21.0484" cy="21.0484" r="21.0484" transform="matrix(-1 0 0 1 62.0488 20.3574)" fill="white" fill-opacity="0.31"/>
<circle cx="16.371" cy="16.371" r="16.371" transform="matrix(-1 0 0 1 57.3711 25.0352)" fill="white"/>
<g clip-path="url(#clip1_205_560)">
<path d="M45.5614 47.9526C45.5224 47.9136 45.0547 47.4069 44.3141 46.6273C43.2227 45.497 38.4673 40.4298 38.3894 40.3518C38.0386 40.001 36.3625 41.2873 34.9593 39.8841C34.0628 38.9875 33.7509 37.8572 34.1407 36.4929L35.9337 38.2859C35.9337 38.2859 36.5964 38.2859 37.259 37.6623C37.8826 36.9996 37.8826 36.337 37.8826 36.337L36.0896 34.583C37.3759 34.1932 38.6232 34.505 39.5197 35.4015C40.884 36.7658 39.6757 38.4808 40.0265 38.8316C40.1044 38.8706 46.7697 45.2241 46.8477 45.3021C47.5103 45.9257 47.5493 45.9647 47.5883 45.9647C48.134 46.5494 48.173 47.4849 47.6273 48.0306C47.0816 48.5763 46.1461 48.5373 45.5614 47.9526H45.5614ZM46.4579 46.2765C46.1461 46.2765 45.8732 46.5494 45.8732 46.8612C45.8732 47.173 46.1461 47.4459 46.4579 47.4459C46.7697 47.4459 47.0426 47.173 47.0426 46.8612C47.0426 46.5494 46.8087 46.2765 46.4579 46.2765Z" fill="#343B4E"/>
<path d="M34.7649 46.472L44.7044 36.6104L45.6789 35.1682L47.4719 34.3887L48.0176 34.9344L47.238 36.7274L45.7958 37.7018L35.8563 47.5634L34.7649 46.472Z" fill="#B0BEC5"/>
<path d="M40.0265 40.158C40.845 38.2091 41.3128 39.2615 42.2483 40.158C43.1448 41.0545 44.1972 41.5222 42.2483 42.3798C40.3383 43.1983 38.2335 46.9403 37.4149 47.7978C36.5964 48.6163 35.5829 48.6943 34.6475 47.7978C33.7509 46.9013 33.8289 45.8878 34.6475 45.0303C35.466 44.2118 39.2079 42.1069 40.0265 40.158V40.158Z" fill="#FFC107"/>
<path d="M42.2473 40.158C41.3508 39.2615 40.883 38.2091 40.0255 40.158L42.2473 42.3798C44.1572 41.5612 43.1438 41.0935 42.2473 40.158Z" fill="#FF9800"/>
</g>
<path fill-rule="evenodd" clip-rule="evenodd" d="M321 206.906L320.999 206.906L320.996 206.906L320.991 206.906L320.984 206.907L320.976 206.907L320.965 206.908L320.952 206.908L320.938 206.91L320.921 206.911L320.903 206.913L320.883 206.915L320.861 206.917L320.837 206.92L320.811 206.924L320.783 206.928L320.754 206.933L320.723 206.938L320.69 206.944L320.655 206.95L320.619 206.957L320.581 206.965L320.541 206.974L320.5 206.983L320.457 206.994L320.412 207.005L320.366 207.017L320.319 207.03L320.27 207.043L320.219 207.058L320.167 207.074L320.114 207.091L320.059 207.109L320.004 207.127L319.946 207.147L319.888 207.168L319.828 207.19L319.768 207.214L319.706 207.238L319.643 207.263L319.579 207.29L319.514 207.318L319.448 207.347L319.382 207.377L319.314 207.409L319.246 207.441L319.176 207.475L319.107 207.51L319.036 207.546L318.965 207.584L318.893 207.622L318.821 207.662L318.748 207.704L318.675 207.746L318.601 207.79L318.527 207.834L318.453 207.88L318.379 207.928L318.304 207.976L318.229 208.026L318.154 208.076L318.079 208.128L318.004 208.181L317.929 208.235L317.854 208.291L317.779 208.347L317.705 208.404L317.63 208.463L317.556 208.522L317.482 208.583L317.408 208.644L317.335 208.706L317.262 208.77L317.19 208.834L317.118 208.899L317.046 208.965L316.975 209.032L316.905 209.099L316.835 209.167L316.766 209.236L316.698 209.306L316.631 209.376L316.564 209.447L316.498 209.518L316.433 209.59L316.369 209.662L316.305 209.735L316.243 209.809L316.181 209.882L316.121 209.956L316.061 210.03L316.003 210.105L315.945 210.18L315.889 210.254L315.834 210.329L315.779 210.404L315.726 210.48L315.674 210.555L315.623 210.63L315.574 210.704L315.525 210.779L315.478 210.854L315.432 210.928L315.387 211.002L315.343 211.075L315.301 211.149L315.259 211.221L315.219 211.294L315.181 211.365L315.143 211.437L315.107 211.507L315.071 211.577L315.038 211.646L315.005 211.715L314.973 211.782L314.943 211.849L314.914 211.915L314.886 211.98L314.859 212.044L314.834 212.107L314.809 212.169L314.786 212.23L314.764 212.29L314.743 212.348L314.723 212.405L314.704 212.461L314.686 212.516L314.669 212.569L314.653 212.621L314.638 212.672L314.624 212.721L314.611 212.769L314.599 212.815L314.588 212.86L314.578 212.903L314.568 212.944L314.56 212.984L314.552 213.022L314.544 213.059L314.538 213.094L314.532 213.127L314.527 213.158L314.522 213.187L314.518 213.215L314.514 213.241L314.511 213.265L314.509 213.287L314.507 213.308L314.505 213.326L314.503 213.343L314.502 213.358L314.501 213.37L314.501 213.381L314.5 213.39L314.5 213.397L314.5 213.402L314.5 213.405L314.5 213.406L314.5 213.405L314.5 213.403L314.5 213.398L314.5 213.391L314.499 213.383L314.499 213.372L314.498 213.36L314.497 213.345L314.495 213.329L314.494 213.311L314.492 213.291L314.489 213.269L314.486 213.245L314.483 213.219L314.479 213.192L314.474 213.163L314.469 213.132L314.463 213.099L314.457 213.064L314.45 213.028L314.442 212.99L314.433 212.951L314.424 212.91L314.414 212.867L314.402 212.822L314.391 212.776L314.378 212.729L314.364 212.68L314.349 212.63L314.334 212.578L314.317 212.525L314.299 212.47L314.28 212.414L314.261 212.357L314.24 212.299L314.218 212.239L314.195 212.179L314.17 212.117L314.145 212.054L314.118 211.99L314.091 211.926L314.062 211.86L314.032 211.793L314 211.726L313.968 211.657L313.934 211.588L313.899 211.518L313.863 211.448L313.825 211.377L313.787 211.305L313.747 211.233L313.706 211.16L313.664 211.087L313.62 211.014L313.575 210.94L313.529 210.865L313.482 210.791L313.434 210.716L313.385 210.641L313.334 210.567L313.282 210.491L313.229 210.416L313.175 210.341L313.12 210.266L313.064 210.192L313.006 210.117L312.948 210.042L312.889 209.968L312.828 209.894L312.767 209.82L312.705 209.747L312.642 209.674L312.577 209.602L312.512 209.53L312.447 209.458L312.38 209.387L312.313 209.317L312.244 209.247L312.176 209.178L312.106 209.11L312.036 209.042L311.965 208.975L311.894 208.909L311.822 208.844L311.75 208.78L311.677 208.716L311.603 208.654L311.53 208.592L311.456 208.532L311.382 208.472L311.307 208.414L311.233 208.356L311.158 208.3L311.083 208.244L311.008 208.19L310.933 208.137L310.858 208.085L310.783 208.034L310.708 207.984L310.633 207.935L310.559 207.888L310.484 207.842L310.41 207.797L310.337 207.753L310.263 207.71L310.191 207.669L310.118 207.629L310.046 207.59L309.975 207.552L309.905 207.516L309.835 207.48L309.765 207.446L309.697 207.414L309.629 207.382L309.562 207.352L309.496 207.322L309.431 207.294L309.367 207.268L309.304 207.242L309.242 207.217L309.181 207.194L309.121 207.172L309.063 207.151L309.005 207.13L308.949 207.111L308.894 207.094L308.841 207.077L308.789 207.061L308.738 207.046L308.689 207.032L308.641 207.019L308.595 207.007L308.55 206.995L308.507 206.985L308.465 206.975L308.425 206.966L308.387 206.958L308.35 206.951L308.315 206.945L308.282 206.939L308.251 206.933L308.221 206.929L308.193 206.924L308.167 206.921L308.143 206.918L308.121 206.915L308.1 206.913L308.081 206.911L308.065 206.91L308.05 206.909L308.037 206.908L308.026 206.907L308.017 206.907L308.01 206.906L308.005 206.906L308.001 206.906L308 206.906L308.001 206.906L308.003 206.906L308.008 206.906L308.014 206.906L308.023 206.905L308.033 206.905L308.045 206.904L308.06 206.903L308.076 206.902L308.094 206.9L308.114 206.898L308.136 206.896L308.159 206.893L308.185 206.889L308.212 206.885L308.241 206.881L308.272 206.876L308.305 206.87L308.339 206.864L308.375 206.856L308.413 206.849L308.452 206.84L308.493 206.831L308.536 206.821L308.58 206.81L308.626 206.798L308.673 206.785L308.722 206.771L308.773 206.757L308.824 206.741L308.877 206.724L308.932 206.707L308.987 206.688L309.044 206.668L309.103 206.648L309.162 206.626L309.223 206.603L309.284 206.578L309.347 206.553L309.411 206.527L309.475 206.499L309.541 206.47L309.608 206.44L309.675 206.409L309.743 206.377L309.812 206.343L309.882 206.308L309.953 206.272L310.024 206.235L310.095 206.196L310.168 206.156L310.24 206.115L310.313 206.073L310.387 206.03L310.461 205.985L310.535 205.939L310.609 205.892L310.684 205.844L310.759 205.795L310.834 205.744L310.909 205.693L310.984 205.64L311.059 205.586L311.134 205.531L311.209 205.475L311.283 205.417L311.358 205.359L311.432 205.3L311.506 205.239L311.58 205.178L311.653 205.116L311.726 205.053L311.799 204.989L311.871 204.924L311.942 204.858L312.013 204.792L312.084 204.724L312.154 204.656L312.223 204.587L312.291 204.518L312.359 204.448L312.426 204.377L312.492 204.306L312.557 204.234L312.621 204.162L312.685 204.089L312.747 204.016L312.809 203.942L312.87 203.868L312.929 203.794L312.988 203.719L313.046 203.645L313.102 203.57L313.158 203.495L313.212 203.42L313.265 203.345L313.318 203.27L313.369 203.195L313.418 203.12L313.467 203.045L313.515 202.971L313.561 202.896L313.606 202.822L313.65 202.749L313.693 202.675L313.734 202.603L313.774 202.53L313.813 202.458L313.851 202.387L313.888 202.316L313.923 202.246L313.957 202.177L313.99 202.109L314.022 202.041L314.052 201.974L314.081 201.908L314.11 201.843L314.137 201.778L314.162 201.715L314.187 201.653L314.21 201.592L314.233 201.532L314.254 201.474L314.274 201.416L314.293 201.36L314.311 201.305L314.328 201.251L314.344 201.199L314.359 201.148L314.373 201.099L314.387 201.051L314.399 201.005L314.41 200.96L314.421 200.916L314.43 200.875L314.439 200.835L314.447 200.796L314.455 200.759L314.461 200.724L314.467 200.691L314.473 200.659L314.477 200.63L314.481 200.602L314.485 200.575L314.488 200.551L314.491 200.528L314.493 200.508L314.495 200.489L314.496 200.472L314.498 200.457L314.498 200.444L314.499 200.433L314.499 200.424L314.5 200.416L314.5 200.411L314.5 200.408L314.5 200.406L314.5 200.407L314.5 200.409L314.5 200.414L314.5 200.42L314.501 200.428L314.501 200.438L314.502 200.451L314.503 200.465L314.504 200.481L314.506 200.499L314.508 200.518L314.51 200.54L314.513 200.563L314.517 200.589L314.521 200.616L314.525 200.645L314.53 200.676L314.536 200.708L314.542 200.742L314.549 200.778L314.557 200.816L314.565 200.855L314.575 200.896L314.585 200.939L314.596 200.983L314.607 201.029L314.62 201.076L314.634 201.125L314.648 201.175L314.664 201.226L314.68 201.279L314.698 201.334L314.717 201.389L314.736 201.446L314.757 201.504L314.779 201.563L314.802 201.624L314.826 201.685L314.851 201.748L314.877 201.812L314.905 201.877L314.934 201.942L314.964 202.009L314.995 202.076L315.027 202.144L315.061 202.213L315.095 202.283L315.131 202.353L315.168 202.424L315.207 202.496L315.247 202.568L315.287 202.641L315.33 202.714L315.373 202.787L315.417 202.861L315.463 202.935L315.51 203.01L315.558 203.084L315.607 203.159L315.658 203.234L315.71 203.309L315.762 203.384L315.816 203.459L315.871 203.534L315.927 203.609L315.984 203.684L316.042 203.758L316.102 203.833L316.162 203.907L316.223 203.98L316.285 204.054L316.348 204.127L316.412 204.199L316.477 204.271L316.543 204.343L316.609 204.414L316.677 204.484L316.745 204.554L316.813 204.623L316.883 204.692L316.953 204.759L317.024 204.826L317.095 204.893L317.167 204.958L317.239 205.022L317.312 205.086L317.385 205.149L317.458 205.21L317.532 205.271L317.606 205.331L317.681 205.39L317.756 205.447L317.83 205.504L317.905 205.56L317.98 205.614L318.055 205.667L318.13 205.72L318.205 205.771L318.28 205.821L318.355 205.87L318.43 205.917L318.504 205.963L318.578 206.009L318.652 206.053L318.725 206.095L318.798 206.137L318.87 206.177L318.942 206.216L319.013 206.254L319.084 206.291L319.154 206.326L319.224 206.361L319.292 206.394L319.36 206.425L319.427 206.456L319.493 206.485L319.558 206.514L319.623 206.541L319.686 206.567L319.748 206.591L319.809 206.615L319.869 206.637L319.928 206.659L319.985 206.679L320.042 206.698L320.097 206.716L320.151 206.733L320.203 206.749L320.254 206.764L320.303 206.779L320.351 206.792L320.398 206.804L320.443 206.815L320.486 206.826L320.528 206.836L320.568 206.845L320.607 206.853L320.644 206.86L320.679 206.867L320.713 206.873L320.744 206.878L320.774 206.883L320.802 206.887L320.829 206.891L320.853 206.894L320.876 206.897L320.897 206.899L320.916 206.901L320.933 206.902L320.948 206.904L320.961 206.905L320.972 206.905L320.982 206.906L320.989 206.906L320.995 206.906L320.998 206.906L321 206.906L321 206.906Z" fill="#FD856D"/>
</g>
<defs>
<clipPath id="clip0_205_560">
<rect width="329" height="217.039" fill="white" transform="translate(0 0.40625)"/>
</clipPath>
<clipPath id="clip1_205_560">
<rect width="18.7097" height="18.7097" fill="white" transform="matrix(-1 0 0 1 50.3555 32.0508)"/>
</clipPath>
</defs>
</svg>
