<svg width="43" height="18" viewBox="0 0 43 18" fill="none" xmlns="http://www.w3.org/2000/svg">
<path d="M8.58733 2.85178e-06C7.86925 0.0342918 6.98254 0.489786 6.47601 1.13013C6.01162 1.68218 5.61451 2.57873 5.71513 3.42052C6.52609 3.49081 7.33672 2.99898 7.84325 2.37578C8.34203 1.73544 8.67161 0.876939 8.58733 0L8.58733 2.85178e-06ZM15.4806 1.71277V14.5711H17.5231V10.285H20.318C22.8833 10.285 24.7254 8.50626 24.7254 5.99889C24.7254 3.49151 22.917 1.71277 20.3852 1.71277H15.4806ZM17.5231 3.42722H19.888C21.6484 3.42722 22.683 4.37445 22.683 5.99889C22.683 7.62332 21.657 8.57055 19.888 8.57055H17.5231V3.42722ZM8.49327 3.85583C7.3108 3.85583 6.46543 4.49875 5.91333 4.49875C5.35262 4.49875 4.51586 3.8642 3.54838 3.8642C2.3659 3.8642 1.20782 4.60406 0.597234 5.68245C-0.657478 7.83836 0.271516 11.0299 1.48409 12.7847C2.07834 13.6539 2.7959 14.5711 3.76337 14.5711C4.65001 14.5377 4.95015 14.0353 6.02082 14.0353C7.09924 14.0353 7.41829 14.5711 8.38577 14.5711C9.35325 14.5711 9.93898 13.6874 10.5324 12.8182C11.21 11.8324 11.4869 10.8713 11.5032 10.8208C11.4869 10.8045 9.63079 10.0941 9.61359 7.95442C9.59725 6.16626 11.0767 5.3136 11.1438 5.26388C10.307 4.02777 8.92326 3.85583 8.60076 3.85583H8.49327ZM29.4116 5.14166C27.2711 5.14166 25.6892 6.33788 25.6307 7.98289H27.4448C27.5944 7.2011 28.3363 6.68868 29.3528 6.68868C30.5852 6.68868 31.2811 7.25126 31.2811 8.28593L31.2828 8.99917L28.7616 9.13143C26.4216 9.26945 25.1554 10.2066 25.1554 11.8354C25.1554 13.4804 26.4628 14.5728 28.3367 14.5728C29.6025 14.5728 30.7773 13.9456 31.3096 12.9521H31.3516V14.474H33.216V8.15534C33.2169 6.32174 31.719 5.14167 29.4116 5.14167V5.14166ZM33.9702 5.14166L37.4168 14.5276L37.2321 15.0985C36.9208 16.0663 36.4167 16.4379 35.5172 16.4379C35.3632 16.4379 35.0718 16.4224 34.9377 16.4061V17.9531C35.0736 17.9831 35.5465 18 35.6935 18C37.6775 18 38.6113 17.256 39.4274 14.998L43 5.14166H40.9324L38.5355 12.7579H38.4935L36.0966 5.14166H33.9702ZM31.2828 10.285L31.276 11.0284C31.276 12.2173 30.2432 13.0643 28.8775 13.0643C27.8034 13.0643 27.1206 12.56 27.1206 11.7868C27.1206 10.9887 27.7789 10.5245 29.0371 10.4508L31.2828 10.285Z" fill="#272727"/>
</svg>
