<svg width="162" height="54" viewBox="0 0 162 54" fill="none" xmlns="http://www.w3.org/2000/svg">
<rect y="0.835938" width="161.059" height="53.1642" rx="10" fill="#0C0D10"/>
<path d="M109.42 26.3555V29.4005H107.493V31.3974H109.42V38.1825C109.42 40.4993 110.479 41.4261 113.141 41.4261C113.609 41.4261 114.055 41.3709 114.445 41.3047V39.3299C114.111 39.363 113.899 39.385 113.531 39.385C112.339 39.385 111.815 38.8334 111.815 37.5757V31.3974H114.445V29.4005H111.815V26.3555H109.42Z" fill="white"/>
<path d="M121.228 41.5915C124.771 41.5915 126.943 39.2416 126.943 35.3471C126.943 31.4747 124.759 29.1137 121.228 29.1137C117.685 29.1137 115.501 31.4747 115.501 35.3471C115.501 39.2416 117.674 41.5915 121.228 41.5915ZM121.228 39.4843C119.144 39.4843 117.975 37.9729 117.975 35.3471C117.975 32.7434 119.144 31.2209 121.228 31.2209C123.3 31.2209 124.481 32.7434 124.481 35.3471C124.481 37.9618 123.3 39.4843 121.228 39.4843Z" fill="white"/>
<path d="M128.802 41.3599H131.197V34.2659C131.197 32.5779 132.478 31.4416 134.294 31.4416C134.718 31.4416 135.431 31.5188 135.631 31.585V29.2461C135.375 29.1799 134.918 29.1468 134.562 29.1468C132.98 29.1468 131.632 30.0073 131.286 31.1878H131.108V29.3454H128.802V41.3599Z" fill="white"/>
<path d="M141.579 31.1326C143.35 31.1326 144.509 32.3573 144.564 34.2438H138.437C138.571 32.3683 139.807 31.1326 141.579 31.1326ZM144.553 38.1163C144.108 39.0541 143.116 39.5726 141.668 39.5726C139.752 39.5726 138.515 38.2376 138.437 36.1304V35.998H147.004V35.1706C147.004 31.3974 144.966 29.1137 141.59 29.1137C138.17 29.1137 135.997 31.5519 135.997 35.3912C135.997 39.2306 138.125 41.5915 141.601 41.5915C144.375 41.5915 146.314 40.2676 146.859 38.1163H144.553Z" fill="white"/>
<path d="M93.7122 36.9231C93.8969 39.8733 96.3796 41.7601 100.075 41.7601C104.024 41.7601 106.495 39.7818 106.495 36.6258C106.495 34.1444 105.086 32.7722 101.668 31.9832L99.8322 31.5372C97.6613 31.0341 96.7837 30.3594 96.7837 29.1816C96.7837 27.6951 98.1463 26.7231 100.19 26.7231C102.13 26.7231 103.47 27.6722 103.712 29.1931H106.229C106.079 26.4144 103.608 24.459 100.225 24.459C96.5874 24.459 94.1625 26.4144 94.1625 29.3531C94.1625 31.7774 95.5366 33.2182 98.5505 33.9157L100.698 34.4303C102.904 34.9448 103.874 35.6996 103.874 36.9574C103.874 38.4211 102.35 39.4845 100.271 39.4845C98.0424 39.4845 96.495 38.4897 96.2757 36.9231H93.7122Z" fill="white"/>
<path d="M68.8993 29.1468C67.2505 29.1468 65.8244 29.9632 65.0891 31.3312H64.9109V29.3454H62.6047V45.3537H65V39.5395H65.1894C65.8244 40.8082 67.1947 41.5585 68.9216 41.5585C71.9853 41.5585 73.935 39.1644 73.935 35.3471C73.935 31.5298 71.9853 29.1468 68.8993 29.1468ZM68.2197 39.4292C66.2143 39.4292 64.9554 37.8625 64.9554 35.3581C64.9554 32.8427 66.2143 31.2761 68.2309 31.2761C70.2585 31.2761 71.4729 32.8096 71.4729 35.3471C71.4729 37.8956 70.2585 39.4292 68.2197 39.4292Z" fill="white"/>
<path d="M82.3166 29.1468C80.6677 29.1468 79.2417 29.9632 78.5064 31.3312H78.3281V29.3454H76.0219V45.3537H78.4172V39.5395H78.6066C79.2417 40.8082 80.612 41.5585 82.3388 41.5585C85.4026 41.5585 87.3523 39.1644 87.3523 35.3471C87.3523 31.5298 85.4026 29.1468 82.3166 29.1468ZM81.637 39.4292C79.6316 39.4292 78.3727 37.8625 78.3727 35.3581C78.3727 32.8427 79.6316 31.2761 81.6481 31.2761C83.6757 31.2761 84.8901 32.8096 84.8901 35.3471C84.8901 37.8956 83.6757 39.4292 81.637 39.4292Z" fill="white"/>
<path d="M58.3071 41.3599H61.0554L55.0392 24.8592H52.2563L46.2402 41.3599H48.8961L50.4319 36.9803H56.7829L58.3071 41.3599ZM53.515 27.8552H53.7113L56.1247 34.8305H51.0901L53.515 27.8552Z" fill="white"/>
<path d="M47.8496 12.4131V20.3732H50.7518C53.1471 20.3732 54.5342 18.9113 54.5342 16.3683C54.5342 13.8639 53.136 12.4131 50.7518 12.4131H47.8496ZM49.0974 13.5385H50.6126C52.2781 13.5385 53.2641 14.5866 53.2641 16.3849C53.2641 18.2108 52.2948 19.2478 50.6126 19.2478H49.0974V13.5385Z" fill="white"/>
<path d="M58.7822 20.489C60.5536 20.489 61.6399 19.314 61.6399 17.3668C61.6399 15.4306 60.548 14.2501 58.7822 14.2501C57.0108 14.2501 55.919 15.4306 55.919 17.3668C55.919 19.314 57.0052 20.489 58.7822 20.489ZM58.7822 19.4354C57.7405 19.4354 57.1556 18.6797 57.1556 17.3668C57.1556 16.0649 57.7405 15.3037 58.7822 15.3037C59.8183 15.3037 60.4088 16.0649 60.4088 17.3668C60.4088 18.6741 59.8183 19.4354 58.7822 19.4354Z" fill="white"/>
<path d="M70.8902 14.3659H69.6925L68.6118 18.95H68.5171L67.2694 14.3659H66.1218L64.8741 18.95H64.7849L63.6987 14.3659H62.4843L64.1555 20.3732H65.3865L66.6343 15.9491H66.729L67.9824 20.3732H69.2246L70.8902 14.3659Z" fill="white"/>
<path d="M72.2694 20.3732H73.4671V16.8593C73.4671 15.9215 74.0297 15.3368 74.9154 15.3368C75.8011 15.3368 76.2244 15.8167 76.2244 16.7821V20.3732H77.4221V16.4842C77.4221 15.0554 76.6756 14.2501 75.322 14.2501C74.4085 14.2501 73.8069 14.6528 73.5116 15.3202H73.4225V14.3659H72.2694V20.3732Z" fill="white"/>
<path d="M79.3083 20.3732H80.5059V12.0215H79.3083V20.3732Z" fill="white"/>
<path d="M85.0102 20.489C86.7816 20.489 87.8678 19.314 87.8678 17.3668C87.8678 15.4306 86.776 14.2501 85.0102 14.2501C83.2388 14.2501 82.147 15.4306 82.147 17.3668C82.147 19.314 83.2332 20.489 85.0102 20.489ZM85.0102 19.4354C83.9685 19.4354 83.3836 18.6797 83.3836 17.3668C83.3836 16.0649 83.9685 15.3037 85.0102 15.3037C86.0463 15.3037 86.6368 16.0649 86.6368 17.3668C86.6368 18.6741 86.0463 19.4354 85.0102 19.4354Z" fill="white"/>
<path d="M91.4363 19.474C90.7845 19.474 90.311 19.1596 90.311 18.619C90.311 18.0894 90.6898 17.8081 91.5254 17.7529L93.0071 17.6591V18.1611C93.0071 18.9058 92.3387 19.474 91.4363 19.474ZM91.1299 20.4725C91.9265 20.4725 92.5894 20.1304 92.9514 19.5292H93.0461V20.3732H94.1992V16.269C94.1992 15.0003 93.3414 14.2501 91.8206 14.2501C90.4447 14.2501 89.4643 14.912 89.3418 15.9436H90.5004C90.6341 15.5188 91.0965 15.2761 91.7649 15.2761C92.5838 15.2761 93.0071 15.6347 93.0071 16.269V16.7876L91.3638 16.8813C89.9211 16.9696 89.1078 17.5929 89.1078 18.6741C89.1078 19.7719 89.9601 20.4725 91.1299 20.4725Z" fill="white"/>
<path d="M98.2634 20.4725C99.099 20.4725 99.8064 20.0808 100.169 19.4244H100.263V20.3732H101.411V12.0215H100.213V15.3202H100.124C99.7953 14.6583 99.0934 14.2666 98.2634 14.2666C96.7316 14.2666 95.7456 15.4692 95.7456 17.3668C95.7456 19.2699 96.7204 20.4725 98.2634 20.4725ZM98.6032 15.3313C99.6059 15.3313 100.235 16.1201 100.235 17.3723C100.235 18.63 99.6115 19.4078 98.6032 19.4078C97.5894 19.4078 96.9822 18.641 96.9822 17.3668C96.9822 16.1035 97.595 15.3313 98.6032 15.3313Z" fill="white"/>
<path d="M109.177 20.489C110.948 20.489 112.035 19.314 112.035 17.3668C112.035 15.4306 110.943 14.2501 109.177 14.2501C107.406 14.2501 106.314 15.4306 106.314 17.3668C106.314 19.314 107.4 20.489 109.177 20.489ZM109.177 19.4354C108.135 19.4354 107.551 18.6797 107.551 17.3668C107.551 16.0649 108.135 15.3037 109.177 15.3037C110.213 15.3037 110.804 16.0649 110.804 17.3668C110.804 18.6741 110.213 19.4354 109.177 19.4354Z" fill="white"/>
<path d="M113.62 20.3732H114.818V16.8593C114.818 15.9215 115.38 15.3368 116.266 15.3368C117.152 15.3368 117.575 15.8167 117.575 16.7821V20.3732H118.773V16.4842C118.773 15.0554 118.026 14.2501 116.673 14.2501C115.759 14.2501 115.158 14.6528 114.862 15.3202H114.773V14.3659H113.62V20.3732Z" fill="white"/>
<path d="M124.289 12.871V14.3935H123.325V15.3919H124.289V18.7845C124.289 19.9429 124.818 20.4063 126.149 20.4063C126.383 20.4063 126.606 20.3787 126.801 20.3456V19.3582C126.634 19.3747 126.528 19.3857 126.344 19.3857C125.748 19.3857 125.486 19.1099 125.486 18.4811V15.3919H126.801V14.3935H125.486V12.871H124.289Z" fill="white"/>
<path d="M128.409 20.3732H129.606V16.8648C129.606 15.9546 130.152 15.3423 131.133 15.3423C131.979 15.3423 132.43 15.8277 132.43 16.7876V20.3732H133.628V16.4952C133.628 15.0665 132.832 14.2556 131.539 14.2556C130.626 14.2556 129.985 14.6583 129.69 15.3313H129.595V12.0215H128.409V20.3732Z" fill="white"/>
<path d="M137.949 15.2596C138.834 15.2596 139.414 15.8719 139.441 16.8151H136.378C136.445 15.8774 137.063 15.2596 137.949 15.2596ZM139.436 18.7514C139.213 19.2203 138.717 19.4795 137.993 19.4795C137.035 19.4795 136.417 18.8121 136.378 17.7584V17.6922H140.661V17.2785C140.661 15.3919 139.642 14.2501 137.954 14.2501C136.244 14.2501 135.158 15.4692 135.158 17.3888C135.158 19.3085 136.222 20.489 137.96 20.489C139.347 20.489 140.316 19.827 140.589 18.7514H139.436Z" fill="white"/>
<path d="M33.2431 27.8173C33.2722 25.5831 34.4838 23.469 36.406 22.2988C35.1934 20.5838 33.1623 19.4965 31.0492 19.431C28.7954 19.1967 26.6104 20.7665 25.462 20.7665C24.2912 20.7665 22.5229 19.4542 20.6188 19.493C18.1368 19.5724 15.823 20.9698 14.6154 23.1187C12.0197 27.5691 13.9559 34.1096 16.4424 37.707C17.6864 39.4685 19.1403 41.4362 21.0428 41.3664C22.9044 41.29 23.5997 40.1909 25.8469 40.1909C28.0732 40.1909 28.7255 41.3664 30.6666 41.3221C32.6642 41.29 33.9228 39.5527 35.1232 37.7745C36.017 36.5193 36.7049 35.1321 37.1612 33.6642C34.8136 32.681 33.2458 30.3414 33.2431 27.8173Z" fill="white"/>
<path d="M29.5768 17.0652C30.666 15.7704 31.2026 14.1061 31.0726 12.4258C29.4086 12.5989 27.8715 13.3864 26.7676 14.6316C25.6881 15.8481 25.1263 17.4831 25.2325 19.0992C26.8972 19.1162 28.5337 18.35 29.5768 17.0652Z" fill="white"/>
</svg>
