<svg width="183" height="54" viewBox="0 0 183 54" fill="none" xmlns="http://www.w3.org/2000/svg">
<rect x="0.404297" y="0.835938" width="182.595" height="53.1642" rx="10" fill="black"/>
<path d="M92.5622 29.7462C89.381 29.7462 86.7882 32.124 86.7882 35.3989C86.7882 38.6539 89.381 41.0516 92.5622 41.0516C95.7448 41.0516 98.3377 38.6539 98.3377 35.3989C98.3363 32.124 95.7435 29.7462 92.5622 29.7462ZM92.5622 38.8267C90.8188 38.8267 89.3161 37.4138 89.3161 35.4003C89.3161 33.3654 90.8201 31.9738 92.5622 31.9738C94.3057 31.9738 95.8084 33.3654 95.8084 35.4003C95.8084 37.4125 94.3057 38.8267 92.5622 38.8267ZM79.9645 29.7462C76.7833 29.7462 74.1904 32.124 74.1904 35.3989C74.1904 38.6539 76.7833 41.0516 79.9645 41.0516C83.1471 41.0516 85.7399 38.6539 85.7399 35.3989C85.7399 32.124 83.1471 29.7462 79.9645 29.7462ZM79.9645 38.8267C78.2211 38.8267 76.7184 37.4138 76.7184 35.4003C76.7184 33.3654 78.2224 31.9738 79.9645 31.9738C81.708 31.9738 83.2106 33.3654 83.2106 35.4003C83.212 37.4125 81.708 38.8267 79.9645 38.8267ZM64.9809 31.4821V33.8798H70.8212C70.6467 35.2288 70.1896 36.2137 69.4916 36.8982C68.6422 37.7328 67.3127 38.6539 64.9809 38.6539C61.3858 38.6539 58.5751 35.8056 58.5751 32.2729C58.5751 28.7401 61.3858 25.8918 64.9809 25.8918C66.9204 25.8918 68.3366 26.6415 69.3821 27.6051L71.1039 25.9131C69.6431 24.5428 67.7049 23.4941 64.9809 23.4941C60.0562 23.4941 55.916 27.4336 55.916 32.2729C55.916 37.1121 60.0562 41.0516 64.9809 41.0516C67.6386 41.0516 69.6445 40.1943 71.2121 38.5888C72.8244 37.0045 73.3262 34.7769 73.3262 32.9786C73.3262 32.4231 73.2829 31.9087 73.195 31.4807H64.9809V31.4821ZM126.263 33.3441C125.784 32.0815 124.323 29.7462 121.338 29.7462C118.374 29.7462 115.911 32.0376 115.911 35.3989C115.911 38.5675 118.353 41.0516 121.621 41.0516C124.257 41.0516 125.782 39.4673 126.415 38.5462L124.454 37.261C123.801 38.2033 122.907 38.824 121.621 38.824C120.336 38.824 119.42 38.2459 118.832 37.1108L126.524 33.9848L126.263 33.3441ZM118.418 35.2288C118.353 33.0437 120.14 31.9313 121.426 31.9313C122.428 31.9313 123.277 32.4244 123.562 33.1301L118.418 35.2288ZM112.165 40.71H114.691V24.0949H112.165V40.71ZM108.023 31.0102H107.937C107.37 30.3457 106.28 29.7462 104.908 29.7462C102.031 29.7462 99.3954 32.2303 99.3954 35.4215C99.3954 38.5901 102.031 41.0529 104.908 41.0529C106.281 41.0529 107.37 40.4535 107.937 39.769H108.023V40.5824C108.023 42.7449 106.847 43.9012 104.952 43.9012C103.404 43.9012 102.445 42.81 102.053 41.8889L99.8525 42.7887C100.484 44.2866 102.161 46.1288 104.952 46.1288C107.915 46.1288 110.421 44.4156 110.421 40.2395V30.0905H108.025V31.0102H108.023ZM105.126 38.8267C103.383 38.8267 101.923 37.3912 101.923 35.4215C101.923 33.4292 103.383 31.9738 105.126 31.9738C106.847 31.9738 108.198 33.4292 108.198 35.4215C108.198 37.3912 106.847 38.8267 105.126 38.8267ZM138.103 24.0949H132.056V40.71H134.578V34.4154H138.102C140.899 34.4154 143.65 32.4257 143.65 29.2558C143.65 26.0859 140.9 24.0949 138.103 24.0949ZM138.168 32.1027H134.578V26.4075H138.168C140.055 26.4075 141.126 27.9427 141.126 29.2558C141.126 30.5424 140.055 32.1027 138.168 32.1027ZM153.766 29.717C151.938 29.717 150.046 30.5078 149.263 32.2609L151.503 33.1793C151.981 32.2609 152.874 31.9605 153.809 31.9605C155.114 31.9605 156.441 32.7301 156.463 34.0977V34.2692C156.005 34.0127 155.026 33.6286 153.83 33.6286C151.416 33.6286 148.957 34.9324 148.957 37.3687C148.957 39.5922 150.937 41.0237 153.156 41.0237C154.852 41.0237 155.788 40.2754 156.375 39.3982H156.461V40.6808H158.898V34.3104C158.9 31.3624 156.657 29.717 153.766 29.717ZM153.46 38.8227C152.635 38.8227 151.481 38.416 151.481 37.4112C151.481 36.1286 152.917 35.6368 154.158 35.6368C155.265 35.6368 155.789 35.8721 156.463 36.1924C156.266 37.7328 154.918 38.8227 153.46 38.8227ZM167.774 30.0798L164.881 37.2836H164.794L161.792 30.0798H159.073L163.576 40.1478L161.008 45.7487H163.641L170.581 30.0798H167.774ZM145.043 40.71H147.565V24.0949H145.043V40.71Z" fill="white"/>
<path d="M64.5406 14.4506C64.5406 15.5644 64.2051 16.4509 63.5329 17.1128C62.7701 17.8996 61.7746 18.293 60.5519 18.293C59.3805 18.293 58.3837 17.8943 57.5654 17.0968C56.7458 16.298 56.3359 15.3092 56.3359 14.1289C56.3359 12.9474 56.7458 11.9585 57.5654 11.1611C58.3837 10.3623 59.3805 9.96353 60.5519 9.96353C61.1335 9.96353 61.6894 10.0752 62.2169 10.2971C62.7457 10.5204 63.1691 10.8168 63.4856 11.1876L62.7728 11.8894C62.2358 11.2581 61.4959 10.9431 60.5505 10.9431C59.6957 10.9431 58.9572 11.2381 58.3337 11.8283C57.7101 12.4184 57.399 13.1853 57.399 14.1276C57.399 15.07 57.7101 15.8368 58.3337 16.427C58.9572 17.0171 59.6957 17.3121 60.5505 17.3121C61.4567 17.3121 62.2128 17.0158 62.8174 16.4216C63.2096 16.0349 63.4369 15.4966 63.4977 14.8068H60.5505V13.8485H64.4824C64.523 14.0572 64.5406 14.2579 64.5406 14.4506Z" fill="white"/>
<path d="M70.776 11.1199H67.0808V13.6479H70.4135V14.6062H67.0808V17.1341H70.776V18.115H66.038V10.1404H70.776V11.1199Z" fill="white"/>
<path d="M75.173 18.115H74.1302V11.1199H71.8633V10.1404H77.4399V11.1199H75.173V18.115Z" fill="white"/>
<path d="M81.4745 18.115V10.1404H82.5173V18.115H81.4745Z" fill="white"/>
<path d="M87.1419 18.115H86.0991V11.1199H83.8322V10.1404H89.4088V11.1199H87.1419V18.115Z" fill="white"/>
<path d="M99.9653 17.0849C99.1672 17.8904 98.1758 18.2931 96.9896 18.2931C95.8034 18.2931 94.812 17.8904 94.0153 17.0849C93.2173 16.2795 92.8197 15.2933 92.8197 14.1277C92.8197 12.9621 93.2173 11.9759 94.0153 11.1704C94.812 10.365 95.8034 9.96094 96.9896 9.96094C98.1691 9.96094 99.1591 10.3663 99.9598 11.1757C100.761 11.9852 101.161 12.9687 101.161 14.1277C101.161 15.2933 100.762 16.2795 99.9653 17.0849ZM94.785 16.4164C95.3855 17.0145 96.1199 17.3122 96.9896 17.3122C97.8593 17.3122 98.5951 17.0132 99.1943 16.4164C99.7948 15.8183 100.096 15.0554 100.096 14.1277C100.096 13.2 99.7948 12.4371 99.1943 11.839C98.5951 11.2409 97.8593 10.9431 96.9896 10.9431C96.1199 10.9431 95.3855 11.2422 94.785 11.839C94.1858 12.4371 93.8841 13.2 93.8841 14.1277C93.8841 15.0554 94.1858 15.8183 94.785 16.4164Z" fill="white"/>
<path d="M102.624 18.115V10.1404H103.893L107.837 16.3433H107.882L107.837 14.8069V10.1404H108.88V18.115H107.791L103.665 11.6104H103.62L103.665 13.1468V18.115H102.624Z" fill="white"/>
<path d="M64.5406 14.4506C64.5406 15.5644 64.2051 16.4509 63.5329 17.1128C62.7701 17.8996 61.7746 18.293 60.5519 18.293C59.3805 18.293 58.3837 17.8943 57.5654 17.0968C56.7458 16.298 56.3359 15.3092 56.3359 14.1289C56.3359 12.9474 56.7458 11.9585 57.5654 11.1611C58.3837 10.3623 59.3805 9.96353 60.5519 9.96353C61.1335 9.96353 61.6894 10.0752 62.2169 10.2971C62.7457 10.5204 63.1691 10.8168 63.4856 11.1876L62.7728 11.8894C62.2358 11.2581 61.4959 10.9431 60.5505 10.9431C59.6957 10.9431 58.9572 11.2381 58.3337 11.8283C57.7101 12.4184 57.399 13.1853 57.399 14.1276C57.399 15.07 57.7101 15.8368 58.3337 16.427C58.9572 17.0171 59.6957 17.3121 60.5505 17.3121C61.4567 17.3121 62.2128 17.0158 62.8174 16.4216C63.2096 16.0349 63.4369 15.4966 63.4977 14.8068H60.5505V13.8485H64.4824C64.523 14.0572 64.5406 14.2579 64.5406 14.4506Z" stroke="white" stroke-width="0.2" stroke-miterlimit="10"/>
<path d="M70.776 11.1199H67.0808V13.6479H70.4135V14.6062H67.0808V17.1341H70.776V18.115H66.038V10.1404H70.776V11.1199Z" stroke="white" stroke-width="0.2" stroke-miterlimit="10"/>
<path d="M75.173 18.115H74.1302V11.1199H71.8633V10.1404H77.4399V11.1199H75.173V18.115Z" stroke="white" stroke-width="0.2" stroke-miterlimit="10"/>
<path d="M81.4745 18.115V10.1404H82.5173V18.115H81.4745Z" stroke="white" stroke-width="0.2" stroke-miterlimit="10"/>
<path d="M87.1419 18.115H86.0991V11.1199H83.8322V10.1404H89.4088V11.1199H87.1419V18.115Z" stroke="white" stroke-width="0.2" stroke-miterlimit="10"/>
<path d="M99.9653 17.0849C99.1672 17.8904 98.1758 18.2931 96.9896 18.2931C95.8034 18.2931 94.812 17.8904 94.0153 17.0849C93.2173 16.2795 92.8197 15.2933 92.8197 14.1277C92.8197 12.9621 93.2173 11.9759 94.0153 11.1704C94.812 10.365 95.8034 9.96094 96.9896 9.96094C98.1691 9.96094 99.1591 10.3663 99.9598 11.1757C100.761 11.9852 101.161 12.9687 101.161 14.1277C101.161 15.2933 100.762 16.2795 99.9653 17.0849ZM94.785 16.4164C95.3855 17.0145 96.1199 17.3122 96.9896 17.3122C97.8593 17.3122 98.5951 17.0132 99.1943 16.4164C99.7948 15.8183 100.096 15.0554 100.096 14.1277C100.096 13.2 99.7948 12.4371 99.1943 11.839C98.5951 11.2409 97.8593 10.9431 96.9896 10.9431C96.1199 10.9431 95.3855 11.2422 94.785 11.839C94.1858 12.4371 93.8841 13.2 93.8841 14.1277C93.8841 15.0554 94.1858 15.8183 94.785 16.4164Z" stroke="white" stroke-width="0.2" stroke-miterlimit="10"/>
<path d="M102.624 18.115V10.1404H103.893L107.837 16.3433H107.882L107.837 14.8069V10.1404H108.88V18.115H107.791L103.665 11.6104H103.62L103.665 13.1468V18.115H102.624Z" stroke="white" stroke-width="0.2" stroke-miterlimit="10"/>
<g filter="url(#filter0_ii_205_412)">
<path d="M14.5188 10.8548C14.1252 11.2642 13.8926 11.8995 13.8926 12.7222V42.1167C13.8926 42.9407 14.1252 43.5747 14.5188 43.9841L14.6189 44.0798L31.3757 27.6135V27.4195V27.2254L14.6189 10.7578L14.5188 10.8548Z" fill="url(#paint0_linear_205_412)"/>
<path d="M36.9597 33.1022L31.375 27.6117V27.4176V27.2236L36.9611 21.7344L37.0869 21.8048L43.7049 25.4997C45.5944 26.555 45.5944 28.2815 43.7049 29.3382L37.0869 33.0331L36.9597 33.1022Z" fill="url(#paint1_linear_205_412)"/>
<g filter="url(#filter1_i_205_412)">
<path d="M37.0883 33.0321L31.3751 27.418L14.5195 43.9826C15.1417 44.6312 16.171 44.7109 17.3301 44.065L37.0883 33.0321Z" fill="url(#paint2_linear_205_412)"/>
</g>
<path d="M37.0883 21.8044L17.3301 10.7729C16.171 10.1256 15.1417 10.2067 14.5195 10.8553L31.3765 27.4199L37.0883 21.8044Z" fill="url(#paint3_linear_205_412)"/>
</g>
<defs>
<filter id="filter0_ii_205_412" x="13.8926" y="10.3262" width="31.2285" height="34.1855" filterUnits="userSpaceOnUse" color-interpolation-filters="sRGB">
<feFlood flood-opacity="0" result="BackgroundImageFix"/>
<feBlend mode="normal" in="SourceGraphic" in2="BackgroundImageFix" result="shape"/>
<feColorMatrix in="SourceAlpha" type="matrix" values="0 0 0 0 0 0 0 0 0 0 0 0 0 0 0 0 0 0 127 0" result="hardAlpha"/>
<feOffset dy="-0.15"/>
<feComposite in2="hardAlpha" operator="arithmetic" k2="-1" k3="1"/>
<feColorMatrix type="matrix" values="0 0 0 0 0 0 0 0 0 0 0 0 0 0 0 0 0 0 0.12 0"/>
<feBlend mode="normal" in2="shape" result="effect1_innerShadow_205_412"/>
<feColorMatrix in="SourceAlpha" type="matrix" values="0 0 0 0 0 0 0 0 0 0 0 0 0 0 0 0 0 0 127 0" result="hardAlpha"/>
<feOffset dy="0.15"/>
<feComposite in2="hardAlpha" operator="arithmetic" k2="-1" k3="1"/>
<feColorMatrix type="matrix" values="0 0 0 0 1 0 0 0 0 1 0 0 0 0 1 0 0 0 0.25 0"/>
<feBlend mode="normal" in2="effect1_innerShadow_205_412" result="effect2_innerShadow_205_412"/>
</filter>
<filter id="filter1_i_205_412" x="14.5195" y="27.418" width="22.5684" height="17.0938" filterUnits="userSpaceOnUse" color-interpolation-filters="sRGB">
<feFlood flood-opacity="0" result="BackgroundImageFix"/>
<feBlend mode="normal" in="SourceGraphic" in2="BackgroundImageFix" result="shape"/>
<feColorMatrix in="SourceAlpha" type="matrix" values="0 0 0 0 0 0 0 0 0 0 0 0 0 0 0 0 0 0 127 0" result="hardAlpha"/>
<feOffset dy="-0.15"/>
<feComposite in2="hardAlpha" operator="arithmetic" k2="-1" k3="1"/>
<feColorMatrix type="matrix" values="0 0 0 0 0 0 0 0 0 0 0 0 0 0 0 0 0 0 0.08 0"/>
<feBlend mode="normal" in2="shape" result="effect1_innerShadow_205_412"/>
</filter>
<linearGradient id="paint0_linear_205_412" x1="29.8904" y1="12.4112" x2="7.58877" y2="35.1064" gradientUnits="userSpaceOnUse">
<stop stop-color="#00A0FF"/>
<stop offset="0.0066" stop-color="#00A1FF"/>
<stop offset="0.2601" stop-color="#00BEFF"/>
<stop offset="0.5122" stop-color="#00D2FF"/>
<stop offset="0.7604" stop-color="#00DFFF"/>
<stop offset="1" stop-color="#00E3FF"/>
</linearGradient>
<linearGradient id="paint1_linear_205_412" x1="46.1646" y1="27.4176" x2="13.4382" y2="27.4176" gradientUnits="userSpaceOnUse">
<stop stop-color="#FFE000"/>
<stop offset="0.4087" stop-color="#FFBD00"/>
<stop offset="0.7754" stop-color="#FFA500"/>
<stop offset="1" stop-color="#FF9C00"/>
</linearGradient>
<linearGradient id="paint2_linear_205_412" x1="33.9857" y1="30.4668" x2="3.74191" y2="61.2443" gradientUnits="userSpaceOnUse">
<stop stop-color="#FF3A44"/>
<stop offset="1" stop-color="#C31162"/>
</linearGradient>
<linearGradient id="paint3_linear_205_412" x1="10.2744" y1="1.07013" x2="23.7791" y2="14.8131" gradientUnits="userSpaceOnUse">
<stop stop-color="#32A071"/>
<stop offset="0.0685" stop-color="#2DA771"/>
<stop offset="0.4762" stop-color="#15CF74"/>
<stop offset="0.8009" stop-color="#06E775"/>
<stop offset="1" stop-color="#00F076"/>
</linearGradient>
</defs>
</svg>
