<svg width="47" height="18" viewBox="0 0 47 18" fill="none" xmlns="http://www.w3.org/2000/svg">
<path d="M21.5665 8.22952V13.827H19.8047V0.00103288H24.4749C25.6023 -0.0240246 26.6896 0.407734 27.4998 1.19801C28.3196 1.94202 28.7801 3.006 28.7629 4.11624C28.7877 5.23419 28.3253 6.30588 27.4998 7.05182C26.6819 7.83824 25.673 8.23144 24.4749 8.22952H21.5665ZM21.5665 1.70301V6.53139H24.5188C25.1743 6.55067 25.8049 6.29238 26.2616 5.81629C27.1864 4.91037 27.2093 3.41656 26.3074 2.48365C26.2921 2.46823 26.2768 2.45088 26.2616 2.43739C25.8125 1.95166 25.1762 1.68566 24.5188 1.70301H21.5665V1.70301ZM32.8216 4.05841C34.1248 4.05841 35.151 4.40922 35.9039 5.11083C36.6567 5.81244 37.0332 6.77618 37.0332 7.99629V13.8289H35.3497V12.5143H35.2733C34.5433 13.5957 33.5726 14.1373 32.363 14.1373C31.3292 14.1373 30.4655 13.8289 29.7699 13.2102C29.0954 12.6358 28.7113 11.7857 28.7266 10.8933C28.7266 9.91415 29.0935 9.13544 29.8273 8.55719C30.561 7.97894 31.5394 7.68789 32.7662 7.68789C33.8114 7.68789 34.6732 7.88064 35.3497 8.26614V7.85944C35.3535 7.25035 35.086 6.67403 34.6217 6.28853C34.1554 5.86448 33.5496 5.63318 32.921 5.64089C31.9388 5.64089 31.1591 6.05916 30.5859 6.89569L29.0362 5.91074C29.8865 4.67521 31.1496 4.05841 32.8216 4.05841ZM30.5419 10.9319C30.54 11.3906 30.7579 11.8224 31.1247 12.0903C31.5146 12.3987 31.998 12.5645 32.4929 12.5529C33.2363 12.551 33.949 12.2522 34.4745 11.7221C35.0573 11.167 35.3497 10.5194 35.3497 9.77151C34.7994 9.33012 34.035 9.10845 33.0528 9.10845C32.3382 9.10845 31.74 9.28193 31.2623 9.63081C30.7827 9.98739 30.5419 10.4172 30.5419 10.9319ZM46.7022 4.36681L40.8225 18H39.0052L41.1874 13.2294L37.3179 4.36681H39.2326L42.0282 11.1632H42.0664L44.7856 4.36681H46.7022Z" fill="#5F6368"/>
<path d="M16.1433 8.62305C16.1433 8.08143 16.0994 7.54173 16.0077 7.00781H8.58008V10.0667H12.8337C12.6579 11.0536 12.0904 11.9268 11.261 12.48V14.4672H13.8006C15.2873 13.0871 16.1433 11.0421 16.1433 8.62305Z" fill="#4285F4"/>
<path d="M8.58078 16.3872C10.7057 16.3872 12.4962 15.6837 13.8013 14.4694L11.2618 12.4821C10.5547 12.9659 9.64514 13.2416 8.58078 13.2416C6.52659 13.2416 4.78386 11.8441 4.15901 9.96289H1.54492V12.0099C2.88254 14.6949 5.60363 16.3872 8.58078 16.3872Z" fill="#34A853"/>
<path d="M4.16142 9.96167C3.83084 8.97672 3.83084 7.90695 4.16142 6.92008V4.875H1.54543C0.427565 7.12053 0.427565 9.76506 1.54543 12.0106L4.16142 9.96167Z" fill="#FBBC04"/>
<path d="M8.58078 3.64416C9.70438 3.62682 10.7879 4.05279 11.6019 4.83536L13.851 2.56862C12.4255 1.21937 10.5375 0.477287 8.58078 0.498489C5.60363 0.498489 2.88063 2.19276 1.54492 4.87583L4.16092 6.92284C4.78386 5.03967 6.52659 3.64416 8.58078 3.64416Z" fill="#EA4335"/>
</svg>
