<svg width="75" height="26" viewBox="0 0 75 26" fill="none" xmlns="http://www.w3.org/2000/svg">
<path d="M0.266182 18.6554V2.26364C0.266182 2.07899 0.325175 1.92792 0.44316 1.81041C0.561146 1.69291 0.704414 1.63416 0.872965 1.63416H11.8456C12.031 1.63416 12.1827 1.69291 12.3007 1.81041C12.4187 1.92792 12.4777 2.07899 12.4777 2.26364V4.0262C12.4777 4.21085 12.4187 4.36193 12.3007 4.47943C12.1827 4.58015 12.031 4.63051 11.8456 4.63051H3.7299V9.41459H11.34C11.5254 9.41459 11.6771 9.47335 11.795 9.59085C11.913 9.70835 11.972 9.85943 11.972 10.0441V11.8066C11.972 11.9745 11.913 12.1172 11.795 12.2347C11.6771 12.3522 11.5254 12.4109 11.34 12.4109H3.7299V14.4369C3.7299 15.5142 0.266182 19.7421 0.266182 18.6554Z" fill="#343B4E"/>
<path d="M15.3694 18.6554V6.77076C15.3694 6.60289 15.4284 6.46021 15.5464 6.34271C15.6643 6.2252 15.8076 6.16645 15.9762 6.16645H18.0746C18.26 6.16645 18.4033 6.2252 18.5044 6.34271C18.6224 6.46021 18.6814 6.60289 18.6814 6.77076V14.6203C18.6814 15.6937 15.3694 19.7222 15.3694 18.6554ZM15.875 4.00102C15.6896 4.00102 15.5379 3.95066 15.4199 3.84994C15.3188 3.73244 15.2682 3.58136 15.2682 3.39671V1.5838C15.2682 1.41594 15.3188 1.27325 15.4199 1.15575C15.5379 1.03824 15.6896 0.979492 15.875 0.979492H18.1757C18.3611 0.979492 18.5128 1.03824 18.6308 1.15575C18.7488 1.27325 18.8078 1.41594 18.8078 1.5838V3.39671C18.8078 3.58136 18.7488 3.73244 18.6308 3.84994C18.5128 3.95066 18.3611 4.00102 18.1757 4.00102H15.875Z" fill="#343B4E"/>
<path d="M21.4795 19.2597C21.3278 19.2597 21.1929 19.2094 21.0749 19.1087C20.9738 18.9912 20.9232 18.8569 20.9232 18.7058C20.9232 18.6554 20.9317 18.5967 20.9485 18.5295C20.9822 18.4624 21.0328 18.3785 21.1002 18.2778L25.3983 12.5368L21.4036 7.14845C21.3531 7.06452 21.3109 6.98898 21.2772 6.92183C21.2603 6.85469 21.2519 6.78754 21.2519 6.7204C21.2519 6.56932 21.3025 6.44342 21.4036 6.34271C21.5216 6.2252 21.6564 6.16645 21.8081 6.16645H24.0077C24.21 6.16645 24.3617 6.21681 24.4628 6.31753C24.5639 6.41825 24.6398 6.51057 24.6904 6.5945L27.5473 10.3714L30.4042 6.5945C30.4716 6.51057 30.5475 6.41825 30.6318 6.31753C30.7329 6.21681 30.8846 6.16645 31.0869 6.16645H33.1853C33.337 6.16645 33.4634 6.2252 33.5645 6.34271C33.6825 6.44342 33.7415 6.56093 33.7415 6.69522C33.7415 6.77915 33.7247 6.85469 33.691 6.92183C33.6741 6.98898 33.6404 7.06452 33.5898 7.14845L29.5446 12.5872L33.8679 18.2778C33.9354 18.3785 33.9775 18.4624 33.9944 18.5295C34.0281 18.5967 34.0449 18.6554 34.0449 18.7058C34.0449 18.8569 33.9859 18.9912 33.8679 19.1087C33.7668 19.2094 33.6404 19.2597 33.4887 19.2597H31.188C31.0026 19.2597 30.8593 19.2178 30.7582 19.1338C30.6571 19.0331 30.5728 18.9408 30.5054 18.8569L27.4714 14.8533L24.387 18.8569C24.3195 18.9408 24.2353 19.0331 24.1341 19.1338C24.0499 19.2178 23.9066 19.2597 23.7043 19.2597H21.4795Z" fill="#343B4E"/>
<path d="M36.3318 23.4395V6.77076C36.3318 6.60289 36.3908 6.46021 36.5088 6.34271C36.6268 6.2252 36.77 6.16645 36.9386 6.16645H38.9359C39.1213 6.16645 39.2646 6.2252 39.3657 6.34271C39.4837 6.46021 39.5427 6.60289 39.5427 6.77076V7.77793C39.9472 7.24077 40.4782 6.79594 41.1355 6.44343C41.7929 6.09091 42.6103 5.91466 43.5879 5.91466C44.4812 5.91466 45.2566 6.05734 45.9139 6.34271C46.5713 6.62807 47.1191 7.03934 47.5573 7.5765C47.9955 8.09687 48.3326 8.71796 48.5686 9.43977C48.8046 10.1616 48.9394 10.9589 48.9731 11.8318C48.99 12.1172 48.9984 12.4109 48.9984 12.7131C48.9984 13.0153 48.99 13.3174 48.9731 13.6196C48.9563 14.4589 48.8298 15.2394 48.5939 15.9612C48.3579 16.6663 48.0124 17.2874 47.5573 17.8245C47.1191 18.3449 46.5713 18.7562 45.9139 19.0583C45.2566 19.3605 44.4812 19.5115 43.5879 19.5115C42.6777 19.5115 41.9024 19.3521 41.2619 19.0331C40.6214 18.6974 40.0989 18.261 39.6944 17.7238V20.6883C39.6944 21.7672 36.3318 24.5118 36.3318 23.4395ZM42.6525 16.8173C43.3772 16.8173 43.9419 16.6663 44.3464 16.3641C44.7509 16.0452 45.0374 15.6339 45.206 15.1303C45.3914 14.6267 45.501 14.0728 45.5347 13.4685C45.5684 12.9649 45.5684 12.4613 45.5347 11.9577C45.501 11.3534 45.3914 10.7995 45.206 10.2959C45.0374 9.79229 44.7509 9.38942 44.3464 9.08726C43.9419 8.76832 43.3772 8.60885 42.6525 8.60885C41.9614 8.60885 41.3968 8.76832 40.9585 9.08726C40.5372 9.4062 40.2253 9.81747 40.0231 10.3211C39.8377 10.8079 39.7281 11.3114 39.6944 11.8318C39.6775 12.134 39.6691 12.4529 39.6691 12.7886C39.6691 13.1244 39.6775 13.4517 39.6944 13.7706C39.7113 14.2742 39.8292 14.761 40.0484 15.231C40.2675 15.6843 40.5877 16.062 41.0091 16.3641C41.4305 16.6663 41.9783 16.8173 42.6525 16.8173Z" fill="#343B4E"/>
<path d="M57.4999 19.5115C55.6289 19.5115 54.1457 18.9744 53.0501 17.9001C51.9545 16.8257 51.3646 15.2982 51.2803 13.3174C51.2635 13.1495 51.2551 12.9397 51.2551 12.6879C51.2551 12.4193 51.2635 12.2095 51.2803 12.0584C51.3478 10.7995 51.6343 9.70835 52.1399 8.78511C52.6625 7.86187 53.3788 7.15684 54.289 6.67004C55.1991 6.16645 56.2694 5.91466 57.4999 5.91466C58.8651 5.91466 60.0113 6.20002 60.9383 6.77076C61.8653 7.3247 62.5648 8.10527 63.0368 9.11244C63.5087 10.1028 63.7447 11.2527 63.7447 12.562V13.0908C63.7447 13.2587 63.6857 13.4013 63.5677 13.5188C63.4497 13.6363 63.298 13.6951 63.1126 13.6951H54.7188C54.7188 13.6951 54.7188 13.7203 54.7188 13.7706C54.7188 13.821 54.7188 13.863 54.7188 13.8965C54.7356 14.484 54.8452 15.0296 55.0474 15.5332C55.2666 16.02 55.5784 16.4145 55.9829 16.7166C56.4043 17.0188 56.9015 17.1699 57.4746 17.1699C57.9465 17.1699 58.3426 17.1027 58.6629 16.9684C58.9831 16.8173 59.2444 16.6495 59.4466 16.4648C59.6489 16.2802 59.7922 16.1291 59.8764 16.0116C60.0281 15.8102 60.1461 15.6927 60.2304 15.6591C60.3315 15.6087 60.4748 15.5836 60.6602 15.5836H62.8345C63.003 15.5836 63.1379 15.6339 63.239 15.7346C63.357 15.8353 63.4076 15.9612 63.3907 16.1123C63.3739 16.3809 63.2306 16.7082 62.9609 17.0943C62.7081 17.4804 62.3373 17.8581 61.8485 18.2274C61.3597 18.5967 60.7445 18.9072 60.0028 19.159C59.2781 19.394 58.4437 19.5115 57.4999 19.5115ZM54.7188 11.58H60.3062V11.5045C60.3062 10.8498 60.1967 10.2791 59.9776 9.79229C59.7584 9.30548 59.4382 8.9194 59.0168 8.63403C58.5954 8.34867 58.0898 8.20598 57.4999 8.20598C56.9099 8.20598 56.4043 8.34867 55.9829 8.63403C55.5615 8.9194 55.2413 9.30548 55.0222 9.79229C54.8199 10.2791 54.7188 10.8498 54.7188 11.5045V11.58Z" fill="#343B4E"/>
<path d="M66.4284 18.6554V6.79594C66.4284 6.61129 66.4874 6.46021 66.6054 6.34271C66.7233 6.2252 66.8666 6.16645 67.0352 6.16645H69.083C69.2516 6.16645 69.3949 6.2252 69.5128 6.34271C69.6477 6.46021 69.7151 6.61129 69.7151 6.79594V7.82829C70.1028 7.29113 70.6 6.87987 71.2068 6.5945C71.8304 6.30913 72.5468 6.16645 73.3558 6.16645H74.3924C74.5778 6.16645 74.7211 6.2252 74.8222 6.34271C74.9402 6.46021 74.9992 6.60289 74.9992 6.77076V8.58367C74.9992 8.75154 74.9402 8.89422 74.8222 9.01173C74.7211 9.12923 74.5778 9.18798 74.3924 9.18798H72.4203C71.6113 9.18798 70.9792 9.4146 70.5242 9.86782C70.0859 10.3211 69.8668 10.9421 69.8668 11.7311V14.9871C69.8668 16.0618 66.4284 19.7394 66.4284 18.6554Z" fill="#343B4E"/>
<path d="M0.265625 14.1241V19.9472C2.17871 19.9472 3.72957 18.4027 3.72957 16.4974V14.1241H0.265625Z" fill="#343B4E"/>
<path d="M15.3687 14.1241V19.9472C17.1988 19.9472 18.6825 18.4697 18.6825 16.647V14.1241H15.3687Z" fill="#343B4E"/>
<path d="M36.3316 20.1769V26C38.1887 26 39.6941 24.5007 39.6941 22.6512V20.1769H36.3316Z" fill="#343B4E"/>
<path d="M66.43 14.1241V19.9472C68.3284 19.9472 69.8673 18.4146 69.8673 16.5239V14.1241H66.43Z" fill="#343B4E"/>
</svg>
