<svg width="32" height="46" viewBox="0 0 32 46" fill="none" xmlns="http://www.w3.org/2000/svg">
<path d="M0 1.18429C0 0.530227 0.530227 0 1.1843 0H31.033C31.033 5.96391 26.1983 10.7986 20.2344 10.7986H1.1843C0.530227 10.7986 0 10.2684 0 9.61431V1.18429Z" fill="#8B4EE7"/>
<path d="M0 14.6843C0 14.0302 0.530227 13.5 1.1843 13.5H23.9291C23.9291 19.4639 19.0944 24.2986 13.1305 24.2986H1.1843C0.530227 24.2986 0 23.7684 0 23.1143V14.6843Z" fill="#F9C758"/>
<path d="M1.1843 27.3691C0.530227 27.3691 0 27.8994 0 28.5534L0 45.6151C5.98835 45.6151 10.8429 40.7605 10.8429 34.7722V28.5534C10.8429 27.8994 10.3126 27.3691 9.65857 27.3691H1.1843Z" fill="#F97228"/>
</svg>
