<svg width="125" height="42" viewBox="0 0 125 42" fill="none" xmlns="http://www.w3.org/2000/svg">
<path d="M0.444288 29.7587V2.43908C0.444288 2.13133 0.542609 1.87953 0.739252 1.68369C0.935894 1.48785 1.17467 1.38993 1.45559 1.38993H19.7433C20.0523 1.38993 20.3052 1.48785 20.5018 1.68369C20.6984 1.87953 20.7968 2.13133 20.7968 2.43908V5.37667C20.7968 5.68442 20.6984 5.93621 20.5018 6.13206C20.3052 6.29992 20.0523 6.38385 19.7433 6.38385H6.21714V14.3573H18.9006C19.2096 14.3573 19.4624 14.4552 19.6591 14.6511C19.8557 14.8469 19.954 15.0987 19.954 15.4065V18.3441C19.954 18.6238 19.8557 18.8616 19.6591 19.0575C19.4624 19.2533 19.2096 19.3512 18.9006 19.3512H6.21714V22.7278C6.21714 24.5234 0.444288 31.5697 0.444288 29.7587Z" fill="#343B4E"/>
<path d="M25.6163 29.7587V9.95093C25.6163 9.67116 25.7146 9.43335 25.9112 9.23751C26.1079 9.04167 26.3466 8.94375 26.6276 8.94375H30.125C30.434 8.94375 30.6728 9.04167 30.8413 9.23751C31.038 9.43335 31.1363 9.67116 31.1363 9.95093V23.0335C31.1363 24.8225 25.6163 31.5366 25.6163 29.7587ZM26.459 5.33471C26.15 5.33471 25.8972 5.25078 25.7005 5.08291C25.532 4.88707 25.4477 4.63528 25.4477 4.32753V1.306C25.4477 1.02623 25.532 0.788427 25.7005 0.592586C25.8972 0.396748 26.15 0.298828 26.459 0.298828H30.2935C30.6025 0.298828 30.8554 0.396748 31.052 0.592586C31.2487 0.788427 31.347 1.02623 31.347 1.306V4.32753C31.347 4.63528 31.2487 4.88707 31.052 5.08291C30.8554 5.25078 30.6025 5.33471 30.2935 5.33471H26.459Z" fill="#343B4E"/>
<path d="M35.7997 30.7659C35.5469 30.7659 35.3222 30.682 35.1255 30.5141C34.957 30.3183 34.8727 30.0944 34.8727 29.8427C34.8727 29.7587 34.8868 29.6608 34.9148 29.5489C34.971 29.437 35.0553 29.2971 35.1677 29.1292L42.3311 19.5611L35.6733 10.5804C35.5891 10.4405 35.5188 10.3146 35.4626 10.2027C35.4345 10.0908 35.4205 9.97891 35.4205 9.867C35.4205 9.6152 35.5048 9.40538 35.6733 9.23751C35.87 9.04167 36.0947 8.94375 36.3475 8.94375H40.0135C40.3506 8.94375 40.6034 9.02769 40.772 9.19555C40.9405 9.36341 41.0669 9.51729 41.1512 9.65717L45.9128 15.952L50.6743 9.65717C50.7867 9.51729 50.9131 9.36341 51.0536 9.19555C51.2221 9.02769 51.4749 8.94375 51.812 8.94375H55.3095C55.5623 8.94375 55.773 9.04167 55.9415 9.23751C56.1382 9.40538 56.2365 9.60122 56.2365 9.82503C56.2365 9.96492 56.2084 10.0908 56.1522 10.2027C56.1241 10.3146 56.0679 10.4405 55.9837 10.5804L49.2416 19.645L56.4472 29.1292C56.5596 29.2971 56.6298 29.437 56.6579 29.5489C56.7141 29.6608 56.7421 29.7587 56.7421 29.8427C56.7421 30.0944 56.6438 30.3183 56.4472 30.5141C56.2786 30.682 56.0679 30.7659 55.8151 30.7659H51.9806C51.6716 30.7659 51.4328 30.696 51.2643 30.5561C51.0957 30.3882 50.9552 30.2343 50.8429 30.0944L45.7864 23.4219L40.6456 30.0944C40.5332 30.2343 40.3927 30.3882 40.2242 30.5561C40.0837 30.696 39.845 30.7659 39.5079 30.7659H35.7997Z" fill="#343B4E"/>
<path d="M60.5536 37.7322V9.95093C60.5536 9.67116 60.652 9.43335 60.8486 9.23751C61.0452 9.04167 61.284 8.94375 61.5649 8.94375H64.8938C65.2028 8.94375 65.4416 9.04167 65.6101 9.23751C65.8068 9.43335 65.9051 9.67116 65.9051 9.95093V11.6296C66.5793 10.7343 67.4642 9.9929 68.5598 9.40538C69.6554 8.81786 71.0178 8.5241 72.6471 8.5241C74.136 8.5241 75.4282 8.7619 76.5238 9.23751C77.6194 9.71313 78.5324 10.3986 79.2627 11.2938C79.9931 12.1611 80.555 13.1963 80.9482 14.3993C81.3415 15.6023 81.5663 16.9312 81.6225 18.386C81.6505 18.8616 81.6646 19.3512 81.6646 19.8548C81.6646 20.3584 81.6505 20.862 81.6225 21.3656C81.5944 22.7644 81.3837 24.0654 80.9904 25.2684C80.5971 26.4434 80.0212 27.4786 79.2627 28.3739C78.5324 29.2411 77.6194 29.9266 76.5238 30.4302C75.4282 30.9338 74.136 31.1856 72.6471 31.1856C71.1302 31.1856 69.838 30.9198 68.7705 30.3882C67.703 29.8287 66.8321 29.1013 66.1579 28.206V33.1468C66.1579 34.945 60.5536 39.5193 60.5536 37.7322ZM71.088 26.6952C72.296 26.6952 73.2371 26.4434 73.9113 25.9398C74.5855 25.4083 75.063 24.7228 75.3439 23.8835C75.6529 23.0442 75.8355 22.121 75.8917 21.1138C75.9479 20.2745 75.9479 19.4352 75.8917 18.5959C75.8355 17.5887 75.6529 16.6654 75.3439 15.8261C75.063 14.9868 74.5855 14.3154 73.9113 13.8118C73.2371 13.2802 72.296 13.0144 71.088 13.0144C69.9363 13.0144 68.9952 13.2802 68.2648 13.8118C67.5625 14.3433 67.0428 15.0288 66.7057 15.8681C66.3967 16.6794 66.2141 17.5187 66.1579 18.386C66.1298 18.8896 66.1158 19.4212 66.1158 19.9807C66.1158 20.5403 66.1298 21.0858 66.1579 21.6174C66.186 22.4567 66.3827 23.268 66.7479 24.0514C67.1131 24.8068 67.6468 25.4363 68.3491 25.9398C69.0514 26.4434 69.9644 26.6952 71.088 26.6952Z" fill="#343B4E"/>
<path d="M95.8337 31.1856C92.7155 31.1856 90.2434 30.2903 88.4175 28.4998C86.5915 26.7092 85.6083 24.1633 85.4678 20.862C85.4398 20.5822 85.4257 20.2325 85.4257 19.8129C85.4257 19.3652 85.4398 19.0155 85.4678 18.7637C85.5802 16.6654 86.0578 14.8469 86.9005 13.3082C87.7714 11.7694 88.9653 10.5944 90.4822 9.78307C91.9992 8.94375 93.783 8.5241 95.8337 8.5241C98.1091 8.5241 100.019 8.99971 101.564 9.95093C103.109 10.8742 104.275 12.1751 105.062 13.8537C105.848 15.5044 106.242 17.4208 106.242 19.603V20.4843C106.242 20.7641 106.143 21.0019 105.947 21.1977C105.75 21.3936 105.497 21.4915 105.188 21.4915H91.1986C91.1986 21.4915 91.1986 21.5335 91.1986 21.6174C91.1986 21.7013 91.1986 21.7713 91.1986 21.8272C91.2266 22.8064 91.4092 23.7157 91.7463 24.555C92.1115 25.3663 92.6312 26.0238 93.3054 26.5274C94.0077 27.031 94.8364 27.2828 95.7916 27.2828C96.5781 27.2828 97.2383 27.1708 97.772 26.947C98.3058 26.6952 98.7412 26.4155 99.0783 26.1077C99.4154 25.8 99.6542 25.5482 99.7946 25.3523C100.047 25.0166 100.244 24.8208 100.385 24.7648C100.553 24.6809 100.792 24.6389 101.101 24.6389H104.725C105.006 24.6389 105.23 24.7228 105.399 24.8907C105.596 25.0586 105.68 25.2684 105.652 25.5202C105.624 25.9678 105.385 26.5134 104.935 27.1569C104.514 27.8003 103.896 28.4298 103.081 29.0453C102.267 29.6608 101.241 30.1784 100.005 30.598C98.7974 30.9897 97.4068 31.1856 95.8337 31.1856ZM91.1986 17.9664H100.511V17.8405C100.511 16.7494 100.328 15.7981 99.9632 14.9868C99.598 14.1755 99.0643 13.532 98.362 13.0564C97.6597 12.5808 96.8169 12.343 95.8337 12.343C94.8505 12.343 94.0077 12.5808 93.3054 13.0564C92.6031 13.532 92.0694 14.1755 91.7042 14.9868C91.3671 15.7981 91.1986 16.7494 91.1986 17.8405V17.9664Z" fill="#343B4E"/>
<path d="M110.715 29.7587V9.9929C110.715 9.68515 110.813 9.43335 111.009 9.23751C111.206 9.04167 111.445 8.94375 111.726 8.94375H115.139C115.42 8.94375 115.659 9.04167 115.855 9.23751C116.08 9.43335 116.192 9.68515 116.192 9.9929V11.7135C116.839 10.8182 117.667 10.1328 118.679 9.65717C119.718 9.18156 120.912 8.94375 122.26 8.94375H123.988C124.297 8.94375 124.536 9.04167 124.704 9.23751C124.901 9.43335 124.999 9.67116 124.999 9.95093V12.9725C124.999 13.2522 124.901 13.49 124.704 13.6859C124.536 13.8817 124.297 13.9796 123.988 13.9796H120.701C119.353 13.9796 118.299 14.3573 117.541 15.1127C116.81 15.8681 116.445 16.9032 116.445 18.2182V23.6448C116.445 25.436 110.715 31.5653 110.715 29.7587Z" fill="#343B4E"/>
<path d="M0.443359 22.2065V31.9117C3.63183 31.9117 6.21659 29.3375 6.21659 26.1621V22.2065H0.443359Z" fill="#343B4E"/>
<path d="M25.6151 22.2065V31.9117C28.6654 31.9117 31.1381 29.4491 31.1381 26.4113V22.2065H25.6151Z" fill="#343B4E"/>
<path d="M60.5533 32.2944V41.9997C63.6484 41.9997 66.1575 39.5008 66.1575 36.4184V32.2944H60.5533Z" fill="#343B4E"/>
<path d="M110.717 22.2065V31.9117C113.881 31.9117 116.446 29.3573 116.446 26.2062V22.2065H110.717Z" fill="#343B4E"/>
</svg>
