<svg width="19" height="28" viewBox="0 0 19 28" fill="none" xmlns="http://www.w3.org/2000/svg">
<path d="M0 1.1843C0 0.530227 0.530227 0 1.1843 0H18.6198C18.6198 3.57835 15.719 6.47917 12.1407 6.47917H1.1843C0.530228 6.47917 0 5.94894 0 5.29487V1.1843Z" fill="#8B4EE7"/>
<path d="M0 9.28293C0 8.62886 0.530227 8.09863 1.1843 8.09863H14.3575C14.3575 11.677 11.4566 14.5778 7.87829 14.5778H1.1843C0.530227 14.5778 0 14.0476 0 13.3935V9.28293Z" fill="#F9C758"/>
<path d="M1.1843 16.4219C0.530227 16.4219 0 16.9521 0 17.6062L0 27.3694C3.59301 27.3694 6.50572 24.4567 6.50572 20.8637V17.4023C6.50572 16.8608 6.06676 16.4219 5.52527 16.4219H1.1843Z" fill="#F97228"/>
</svg>
