<svg width="41" height="41" viewBox="0 0 41 41" fill="none" xmlns="http://www.w3.org/2000/svg">
<circle cx="20.5" cy="20.5" r="20.5" fill="#343B4E"/>
<path d="M26.8782 22.6959L26.9346 22.3479H26.582H20.7994V19.2648H30.36C30.4411 19.7825 30.4813 20.2776 30.4813 20.7506C30.4813 22.7257 30.0675 24.4781 29.2471 26.0153C28.4275 27.5509 27.2611 28.7489 25.743 29.6138C24.2265 30.4778 22.4815 30.9137 20.4994 30.9137C19.0789 30.9137 17.7286 30.6403 16.4457 30.0937C15.1582 29.5452 14.0515 28.8058 13.1223 27.8766C12.1931 26.9474 11.4537 25.8407 10.9052 24.5532C10.3586 23.2703 10.0852 21.9199 10.0852 20.4994C10.0852 19.0789 10.3586 17.7286 10.9052 16.4457C11.4537 15.1582 12.1931 14.0515 13.1223 13.1223C14.0515 12.1931 15.1582 11.4537 16.4457 10.9052C17.7286 10.3586 19.0789 10.0852 20.4994 10.0852C23.1069 10.0852 25.3506 10.9212 27.245 12.5954L24.7645 14.981C23.598 13.9476 22.1704 13.4333 20.4994 13.4333C19.2465 13.4333 18.0844 13.7497 17.019 14.3821C15.9557 15.0133 15.1122 15.8717 14.4915 16.9531C13.8694 18.0368 13.5588 19.2208 13.5588 20.4994C13.5588 21.7781 13.8694 22.9621 14.4915 24.0458C15.1122 25.1272 15.9557 25.9856 17.019 26.6168C18.0844 27.2492 19.2465 27.5656 20.4994 27.5656C21.3363 27.5656 22.1124 27.4502 22.8253 27.2158C23.5272 26.985 24.1176 26.6923 24.5881 26.3319C25.0459 25.9812 25.4463 25.581 25.7884 25.1314C26.1255 24.6884 26.3804 24.2605 26.5464 23.848C26.7068 23.4497 26.8182 23.0654 26.8782 22.6959Z" fill="white" stroke="#343B4E" stroke-width="0.6"/>
</svg>
