<svg width="34" height="33" viewBox="0 0 34 33" fill="none" xmlns="http://www.w3.org/2000/svg">
<path d="M22.4561 6.875C21.203 6.875 19.9622 7.12396 18.8045 7.60766C17.6468 8.09136 16.5949 8.80033 15.7089 9.6941C14.8228 10.5879 14.1199 11.6489 13.6404 12.8167C13.1609 13.9844 12.9141 15.236 12.9141 16.5C12.9141 17.764 13.1609 19.0156 13.6404 20.1833C14.1199 21.3511 14.8228 22.4121 15.7089 23.3059C16.5949 24.1997 17.6468 24.9086 18.8045 25.3923C19.9622 25.876 21.203 26.125 22.4561 26.125C23.7092 26.125 24.95 25.876 26.1077 25.3923C27.2654 24.9086 28.3173 24.1997 29.2033 23.3059C30.0894 22.4121 30.7922 21.3511 31.2718 20.1833C31.7513 19.0156 31.9981 17.764 31.9981 16.5C31.9981 15.236 31.7513 13.9844 31.2718 12.8167C30.7922 11.6489 30.0894 10.5879 29.2033 9.6941C28.3173 8.80033 27.2654 8.09136 26.1077 7.60766C24.95 7.12396 23.7092 6.875 22.4561 6.875V6.875Z" fill="#FF9800"/>
<path d="M11.5518 6.875C10.2987 6.875 9.05791 7.12396 7.90022 7.60766C6.74252 8.09136 5.69062 8.80033 4.80456 9.6941C3.9185 10.5879 3.21564 11.6489 2.73611 12.8167C2.25658 13.9844 2.00977 15.236 2.00977 16.5C2.00977 17.764 2.25658 19.0156 2.73611 20.1833C3.21564 21.3511 3.9185 22.4121 4.80456 23.3059C5.69062 24.1997 6.74252 24.9086 7.90022 25.3923C9.05791 25.876 10.2987 26.125 11.5518 26.125C12.8049 26.125 14.0457 25.876 15.2034 25.3923C16.3611 24.9086 17.413 24.1997 18.299 23.3059C19.1851 22.4121 19.8879 21.3511 20.3675 20.1833C20.847 19.0156 21.0938 17.764 21.0938 16.5C21.0938 15.236 20.847 13.9844 20.3675 12.8167C19.8879 11.6489 19.1851 10.5879 18.299 9.6941C17.413 8.80033 16.3611 8.09136 15.2034 7.60766C14.0457 7.12396 12.8049 6.875 11.5518 6.875V6.875Z" fill="#D50000"/>
<path d="M12.9141 16.4999C12.9141 19.769 14.5335 22.653 17.0035 24.3924C19.4735 22.653 21.0929 19.769 21.0929 16.4999C21.0929 13.2309 19.4735 10.3468 17.0035 8.60742C14.5335 10.3468 12.9141 13.2309 12.9141 16.4999Z" fill="#FF3D00"/>
</svg>
