<svg width="17" height="21" viewBox="0 0 17 21" fill="none" xmlns="http://www.w3.org/2000/svg">
<path d="M8.5 0.34375C4.19452 0.34375 0.687492 3.85077 0.6875 8.15625C0.687508 10.3696 1.7888 12.6528 3.21741 14.7892C4.64602 16.9257 6.43293 18.9127 7.94763 20.4274C8.25273 20.7324 8.74726 20.7324 9.05237 20.4274C10.6016 18.8781 12.3883 16.8903 13.8085 14.7618C15.2288 12.6333 16.3125 10.3649 16.3125 8.15625C16.3125 3.85077 12.8055 0.34375 8.5 0.34375ZM8.5 1.90625C11.961 1.90625 14.75 4.69521 14.75 8.15625C14.75 9.83089 13.8429 11.8976 12.51 13.8951C11.3343 15.6571 9.86347 17.351 8.5 18.7596C7.16256 17.3765 5.69781 15.687 4.51593 13.9195C3.17384 11.9124 2.25 9.82618 2.25 8.15625C2.24999 4.69521 5.03896 1.90625 8.5 1.90625Z" fill="#8B4EE7"/>
<path d="M8.5 5.03125C6.78337 5.03125 5.375 6.43962 5.375 8.15625C5.375 9.87288 6.78337 11.2812 8.5 11.2812C10.2166 11.2812 11.625 9.87288 11.625 8.15625C11.625 6.43962 10.2166 5.03125 8.5 5.03125ZM8.5 6.59375C9.3722 6.59375 10.0625 7.28405 10.0625 8.15625C10.0625 9.02845 9.3722 9.71875 8.5 9.71875C7.6278 9.71875 6.9375 9.02845 6.9375 8.15625C6.9375 7.28405 7.6278 6.59375 8.5 6.59375Z" fill="#8B4EE7"/>
</svg>
