<svg width="29" height="28" viewBox="0 0 29 28" fill="none" xmlns="http://www.w3.org/2000/svg">
<path fill-rule="evenodd" clip-rule="evenodd" d="M28.3555 13.9999L28.3534 14L28.3471 14.0001L28.3366 14.0003L28.3219 14.0008L28.303 14.0017L28.28 14.003L28.2529 14.0047L28.2216 14.0071L28.1862 14.0101L28.1467 14.0139L28.1032 14.0185L28.0556 14.024L28.0041 14.0304L27.9485 14.038L27.8891 14.0467L27.8258 14.0566L27.7587 14.0677L27.6878 14.0803L27.6132 14.0943L27.5348 14.1097L27.4529 14.1268L27.3674 14.1454L27.2783 14.1658L27.1858 14.188L27.09 14.212L26.9908 14.2378L26.8883 14.2656L26.7827 14.2954L26.6739 14.3273L26.5621 14.3613L26.4474 14.3974L26.3298 14.4357L26.2093 14.4763L26.0862 14.5192L25.9604 14.5644L25.832 14.612L25.7012 14.662L25.568 14.7144L25.4325 14.7693L25.2949 14.8267L25.1551 14.8866L25.0133 14.9491L24.8695 15.0142L24.724 15.0818L24.5767 15.1521L24.4278 15.2249L24.2773 15.3004L24.1254 15.3785L23.9721 15.4593L23.8177 15.5427L23.662 15.6287L23.5053 15.7174L23.3477 15.8087L23.1893 15.9026L23.03 15.9991L22.8702 16.0983L22.7098 16.2L22.5489 16.3042L22.3877 16.411L22.2263 16.5202L22.0647 16.632L21.903 16.7462L21.7414 16.8628L21.5799 16.9818L21.4187 17.1031L21.2578 17.2267L21.0973 17.3525L20.9374 17.4805L20.778 17.6107L20.6193 17.743L20.4615 17.8773L20.3045 18.0137L20.1484 18.1519L19.9934 18.292L19.8396 18.4339L19.6869 18.5776L19.5356 18.7229L19.3856 18.8698L19.237 19.0182L19.09 19.1681L18.9446 19.3193L18.8008 19.4719L18.6587 19.6257L18.5185 19.7806L18.3801 19.9365L18.2436 20.0935L18.1091 20.2513L17.9767 20.4099L17.8463 20.5692L17.7181 20.7291L17.5921 20.8895L17.4683 21.0504L17.3468 21.2116L17.2277 21.3731L17.1109 21.5347L16.9965 21.6963L16.8845 21.8579L16.7751 22.0194L16.6681 22.1806L16.5636 22.3415L16.4618 22.502L16.3624 22.6619L16.2657 22.8211L16.1716 22.9797L16.0801 23.1374L15.9912 23.2941L15.9049 23.4498L15.8213 23.6044L15.7404 23.7578L15.662 23.9098L15.5863 24.0604L15.5133 24.2094L15.4428 24.3568L15.375 24.5025L15.3097 24.6464L15.247 24.7884L15.1869 24.9283L15.1293 25.0662L15.0742 25.2019L15.0215 25.3352L14.9714 25.4662L14.9236 25.5948L14.8782 25.7208L14.8351 25.8442L14.7944 25.9648L14.7559 26.0827L14.7196 26.1976L14.6854 26.3097L14.6534 26.4187L14.6234 26.5245L14.5955 26.6273L14.5694 26.7267L14.5453 26.8229L14.523 26.9156L14.5025 27.0049L14.4837 27.0908L14.4665 27.173L14.4509 27.2516L14.4368 27.3265L14.4242 27.3977L14.4129 27.4652L14.4029 27.5288L14.3941 27.5885L14.3865 27.6443L14.3799 27.6962L14.3744 27.7441L14.3697 27.7879L14.3659 27.8277L14.3628 27.8634L14.3604 27.8951L14.3586 27.9226L14.3573 27.9459L14.3564 27.9651L14.3559 27.9801L14.3556 27.9909L14.3555 27.9976L14.3554 28L14.3554 27.9982L14.3553 27.9923L14.3551 27.9821L14.3546 27.9678L14.3538 27.9492L14.3525 27.9266L14.3508 27.8997L14.3485 27.8688L14.3455 27.8337L14.3418 27.7945L14.3373 27.7513L14.3319 27.7041L14.3255 27.6528L14.318 27.5977L14.3095 27.5385L14.2997 27.4756L14.2886 27.4087L14.2762 27.3381L14.2623 27.2638L14.247 27.1858L14.23 27.1041L14.2115 27.0188L14.1912 26.9301L14.1692 26.8379L14.1454 26.7423L14.1197 26.6433L14.0921 26.5411L14.0624 26.4357L14.0307 26.3272L13.9969 26.2157L13.961 26.1012L13.9228 25.9838L13.8824 25.8636L13.8397 25.7406L13.7947 25.615L13.7473 25.4869L13.6975 25.3563L13.6453 25.2233L13.5906 25.0879L13.5333 24.9504L13.4736 24.8108L13.4113 24.6692L13.3465 24.5256L13.2791 24.3802L13.209 24.233L13.1364 24.0842L13.0611 23.9339L12.9832 23.7821L12.9026 23.6289L12.8194 23.4745L12.7336 23.319L12.6452 23.1624L12.5541 23.0048L12.4604 22.8464L12.364 22.6873L12.2651 22.5275L12.1636 22.3671L12.0596 22.2063L11.953 22.0451L11.844 21.8837L11.7324 21.7221L11.6184 21.5604L11.502 21.3988L11.3832 21.2373L11.2621 21.0761L11.1387 20.9151L11.013 20.7546L10.8851 20.5946L10.7551 20.4352L10.623 20.2765L10.4888 20.1185L10.3527 19.9615L10.2146 19.8053L10.0746 19.6503L9.93285 19.4963L9.78934 19.3436L9.64416 19.1921L9.49738 19.042L9.34907 18.8933L9.1993 18.7462L9.04815 18.6006L8.8957 18.4567L8.74203 18.3145L8.58721 18.1741L8.43134 18.0356L8.27449 17.8989L8.11675 17.7643L7.95821 17.6317L7.79896 17.5011L7.63908 17.3727L7.47868 17.2465L7.31783 17.1226L7.15664 17.0009L6.9952 16.8816L6.83361 16.7646L6.67196 16.65L6.51034 16.5379L6.34886 16.4282L6.18761 16.321L6.0267 16.2164L5.86621 16.1143L5.70626 16.0148L5.54694 15.9178L5.38834 15.8235L5.23058 15.7318L5.07375 15.6427L4.91794 15.5562L4.76326 15.4724L4.60981 15.3912L4.45769 15.3127L4.30699 15.2368L4.15782 15.1635L4.01026 15.0928L3.86442 15.0248L3.72039 14.9593L3.57827 14.8964L3.43815 14.8361L3.30013 14.7783L3.16429 14.723L3.03072 14.6702L2.89953 14.6198L2.77078 14.5718L2.64457 14.5262L2.52099 14.483L2.40012 14.442L2.28204 14.4034L2.16683 14.3669L2.05457 14.3326L1.94533 14.3004L1.83919 14.2702L1.73623 14.2421L1.6365 14.2159L1.54009 14.1917L1.44706 14.1692L1.35747 14.1486L1.27138 14.1296L1.18885 14.1123L1.10995 14.0966L1.03472 14.0824L0.963212 14.0696L0.895483 14.0583L0.831577 14.0482L0.771539 14.0393L0.71541 14.0316L0.66323 14.0249L0.615034 14.0193L0.570857 14.0146L0.530729 14.0107L0.494678 14.0075L0.46273 14.0051L0.434906 14.0032L0.411227 14.0019L0.391708 14.001L0.376363 14.0004L0.365204 14.0001L0.358237 14L0.355469 13.9999L0.3569 13.9999L0.36253 13.9999L0.372354 13.9996L0.386367 13.9992L0.404557 13.9984L0.426913 13.9972L0.453419 13.9955L0.484056 13.9932L0.518802 13.9903L0.557634 13.9867L0.600525 13.9822L0.647444 13.9769L0.698359 13.9705L0.753234 13.9632L0.812031 13.9547L0.87471 13.945L0.941226 13.934L1.01153 13.9217L1.08558 13.908L1.16332 13.8927L1.2447 13.8759L1.32966 13.8575L1.41815 13.8374L1.51009 13.8156L1.60543 13.7919L1.70411 13.7663L1.80605 13.7388L1.91118 13.7093L2.01944 13.6778L2.13075 13.6442L2.24503 13.6084L2.3622 13.5704L2.4822 13.5302L2.60492 13.4877L2.7303 13.4429L2.85825 13.3957L2.98867 13.3461L3.12149 13.294L3.25662 13.2395L3.39396 13.1825L3.53342 13.123L3.67491 13.0609L3.81834 12.9963L3.96362 12.929L4.11063 12.8592L4.25931 12.7868L4.40953 12.7117L4.56121 12.634L4.71425 12.5536L4.86854 12.4707L5.024 12.385L5.18052 12.2968L5.338 12.2059L5.49634 12.1124L5.65544 12.0163L5.8152 11.9176L5.97553 11.8163L6.13632 11.7125L6.29747 11.6061L6.45888 11.4972L6.62047 11.3859L6.78212 11.2721L6.94374 11.1558L7.10524 11.0372L7.26652 10.9163L7.42749 10.7931L7.58804 10.6676L7.74809 10.5399L7.90755 10.41L8.06633 10.2781L8.22433 10.1441L8.38148 10.0081L8.53767 9.87013L8.69283 9.73032L8.84688 9.58869L8.99973 9.44532L9.1513 9.30027L9.30152 9.15362L9.4503 9.00543L9.59758 8.85577L9.74328 8.70473L9.88732 8.55238L10.0296 8.3988L10.1702 8.24407L10.3089 8.08827L10.4457 7.9315L10.5805 7.77383L10.7133 7.61535L10.844 7.45615L10.9725 7.29632L11.0989 7.13595L11.223 6.97514L11.3449 6.81398L11.4644 6.65255L11.5816 6.49097L11.6964 6.32931L11.8087 6.16769L11.9186 6.00619L12.0259 5.84492L12.1308 5.68398L12.2331 5.52346L12.3328 5.36346L12.43 5.20408L12.5245 5.04542L12.6164 4.88759L12.7057 4.73068L12.7924 4.57479L12.8764 4.42001L12.9578 4.26646L13.0366 4.11423L13.1127 3.96341L13.1862 3.81411L13.257 3.66642L13.3253 3.52044L13.391 3.37627L13.4541 3.23399L13.5146 3.09371L13.5726 2.95551L13.6281 2.8195L13.6811 2.68575L13.7317 2.55436L13.7798 2.42541L13.8256 2.299L13.869 2.17521L13.9102 2.05412L13.949 1.93581L13.9857 1.82037L14.0202 1.70787L14.0525 1.59839L14.0828 1.492L14.1111 1.38878L14.1374 1.28879L14.1619 1.19212L14.1844 1.09881L14.2052 1.00894L14.2243 0.922573L14.2417 0.839761L14.2576 0.760565L14.2719 0.685038L14.2848 0.613235L14.2963 0.545203L14.3065 0.480991L14.3154 0.420643L14.3232 0.364202L14.33 0.311705L14.3357 0.263191L14.3405 0.218693L14.3444 0.178241L14.3476 0.141864L14.3501 0.109588L14.352 0.0814352L14.3534 0.0574249L14.3544 0.0375741L14.355 0.0218967L14.3553 0.0104037L14.3554 0.0031031L14.3554 0L14.3554 0.00109659L14.3555 0.00639211L14.3557 0.0158828L14.3562 0.0295622L14.357 0.0474205L14.3581 0.0694453L14.3598 0.0956212L14.362 0.12593L14.3648 0.16035L14.3684 0.198858L14.3728 0.241427L14.3781 0.288026L14.3843 0.338625L14.3916 0.393186L14.4 0.451672L14.4096 0.514044L14.4204 0.580256L14.4327 0.650263L14.4463 0.724017L14.4614 0.801467L14.478 0.882558L14.4963 0.967235L14.5163 1.05544L14.538 1.14711L14.5616 1.24219L14.587 1.3406L14.6143 1.44228L14.6436 1.54716L14.675 1.65518L14.7085 1.76624L14.7441 1.88029L14.7819 1.99724L14.8219 2.11701L14.8642 2.23952L14.9089 2.36469L14.9559 2.49244L15.0053 2.62267L15.0571 2.7553L15.1115 2.89025L15.1683 3.02741L15.2276 3.16671L15.2895 3.30805L15.3539 3.45133L15.4209 3.59646L15.4905 3.74334L15.5628 3.89188L15.6376 4.04199L15.7151 4.19356L15.7952 4.34649L15.878 4.50069L15.9634 4.65606L16.0515 4.8125L16.1421 4.9699L16.2354 5.12818L16.3313 5.28722L16.4298 5.44694L16.5309 5.60722L16.6345 5.76798L16.7407 5.92911L16.8494 6.09051L16.9606 6.25208L17.0742 6.41373L17.1902 6.57536L17.3086 6.73687L17.4294 6.89817L17.5524 7.05917L17.6777 7.21976L17.8052 7.37986L17.9349 7.53937L18.0667 7.6982L18.2006 7.85627L18.3364 8.01348L18.4742 8.16976L18.6139 8.32501L18.7553 8.47915L18.8986 8.63209L19.0435 8.78377L19.19 8.9341L19.3381 9.083L19.4876 9.2304L19.6386 9.37622L19.7908 9.52041L19.9443 9.66287L20.0989 9.80356L20.2547 9.9424L20.4114 10.0793L20.569 10.2143L20.7274 10.3473L20.8865 10.4781L21.0463 10.6068L21.2066 10.7334L21.3674 10.8577L21.5286 10.9798L21.69 11.0995L21.8515 11.2168L22.0132 11.3318L22.1748 11.4443L22.3363 11.5544L22.4976 11.662L22.6586 11.767L22.8191 11.8695L22.9792 11.9695L23.1386 12.0668L23.2973 12.1616L23.4552 12.2537L23.6122 12.3432L23.7682 12.4301L23.9231 12.5143L24.0767 12.5959L24.2291 12.6749L24.38 12.7512L24.5294 12.8249L24.6772 12.896L24.8234 12.9645L24.9677 13.0303L25.1101 13.0936L25.2506 13.1544L25.3889 13.2126L25.5251 13.2683L25.659 13.3215L25.7906 13.3723L25.9198 13.4206L26.0464 13.4666L26.1704 13.5102L26.2917 13.5515L26.4102 13.5905L26.5259 13.6274L26.6386 13.662L26.7484 13.6945L26.855 13.725L26.9585 13.7534L27.0587 13.7799L27.1557 13.8045L27.2492 13.8272L27.3394 13.8481L27.426 13.8674L27.5091 13.8849L27.5886 13.9009L27.6644 13.9153L27.7365 13.9283L27.8049 13.9399L27.8694 13.9502L27.93 13.9593L27.9868 13.9672L28.0396 13.974L28.0884 13.9798L28.1333 13.9846L28.174 13.9887L28.2107 13.9919L28.2433 13.9945L28.2718 13.9964L28.2962 13.9978L28.3163 13.9988L28.3324 13.9994L28.3442 13.9998L28.3518 13.9999L28.3555 13.9999Z" fill="#FD856D"/>
</svg>
