<svg width="30" height="28" viewBox="0 0 30 28" fill="none" xmlns="http://www.w3.org/2000/svg">
<path fill-rule="evenodd" clip-rule="evenodd" d="M30 13.5797L29.9978 13.5797L29.991 13.5798L29.9798 13.5801L29.964 13.5806L29.9438 13.5814L29.9192 13.5826L29.8901 13.5844L29.8565 13.5866L29.8186 13.5896L29.7763 13.5932L29.7297 13.5977L29.6787 13.603L29.6235 13.6093L29.564 13.6166L29.5004 13.625L29.4325 13.6346L29.3606 13.6455L29.2846 13.6576L29.2047 13.6712L29.1208 13.6862L29.0329 13.7027L28.9413 13.7209L28.8459 13.7406L28.7468 13.7621L28.6441 13.7854L28.5378 13.8104L28.428 13.8374L28.3149 13.8663L28.1983 13.8972L28.0786 13.9302L27.9556 13.9652L27.8296 14.0024L27.7006 14.0418L27.5686 14.0834L27.4338 14.1272L27.2963 14.1734L27.1562 14.2219L27.0135 14.2727L26.8683 14.326L26.7208 14.3817L26.571 14.4398L26.4191 14.5004L26.2651 14.5635L26.1091 14.6291L25.9513 14.6972L25.7917 14.7679L25.6305 14.8411L25.4678 14.9169L25.3036 14.9953L25.1381 15.0762L24.9713 15.1596L24.8034 15.2456L24.6346 15.3342L24.4648 15.4253L24.2942 15.5189L24.1229 15.615L23.951 15.7137L23.7787 15.8148L23.606 15.9184L23.433 16.0244L23.2599 16.1328L23.0867 16.2435L22.9135 16.3566L22.7405 16.472L22.5678 16.5897L22.3954 16.7096L22.2234 16.8316L22.052 16.9558L21.8813 17.0821L21.7113 17.2104L21.5421 17.3407L21.3739 17.473L21.2067 17.607L21.0407 17.7429L20.8758 17.8806L20.7123 18.0199L20.5501 18.1609L20.3894 18.3034L20.2302 18.4473L20.0727 18.5927L19.9169 18.7394L19.7628 18.8874L19.6106 19.0366L19.4604 19.1868L19.3121 19.3381L19.1659 19.4903L19.0218 19.6434L18.8799 19.7972L18.7402 19.9517L18.6028 20.1069L18.4678 20.2625L18.3352 20.4185L18.205 20.5749L18.0773 20.7315L17.9522 20.8883L17.8297 21.0451L17.7097 21.2018L17.5924 21.3585L17.4778 21.5148L17.3659 21.6709L17.2567 21.8265L17.1503 21.9816L17.0467 22.1361L16.9458 22.2899L16.8478 22.4429L16.7526 22.5949L16.6601 22.746L16.5706 22.8959L16.4838 23.0446L16.3999 23.1921L16.3188 23.3382L16.2405 23.4827L16.165 23.6257L16.0923 23.7671L16.0224 23.9066L15.9552 24.0443L15.8908 24.1801L15.8291 24.3138L15.77 24.4454L15.7137 24.5748L15.6599 24.7018L15.6087 24.8265L15.5601 24.9487L15.5139 25.0684L15.4703 25.1854L15.429 25.2998L15.3901 25.4113L15.3535 25.5199L15.3192 25.6257L15.2871 25.7284L15.2571 25.828L15.2293 25.9245L15.2034 26.0177L15.1795 26.1077L15.1575 26.1943L15.1374 26.2776L15.119 26.3574L15.1023 26.4336L15.0872 26.5063L15.0736 26.5754L15.0615 26.6408L15.0508 26.7025L15.0414 26.7604L15.0332 26.8145L15.0262 26.8648L15.0202 26.9113L15.0153 26.9538L15.0112 26.9924L15.0079 27.0271L15.0053 27.0578L15.0033 27.0844L15.0019 27.1071L15.001 27.1257L15.0004 27.1402L15.0001 27.1507L15 27.1572L14.9999 27.152L14.9996 27.1422L14.9991 27.1283L14.9982 27.1103L14.9969 27.0883L14.995 27.0623L14.9925 27.0322L14.9894 26.9982L14.9854 26.9602L14.9806 26.9183L14.9747 26.8725L14.9679 26.8228L14.9599 26.7693L14.9507 26.7119L14.9402 26.6508L14.9283 26.586L14.915 26.5175L14.9002 26.4454L14.8837 26.3697L14.8656 26.2905L14.8457 26.2078L14.824 26.1217L14.8005 26.0323L14.7749 25.9395L14.7474 25.8436L14.7178 25.7444L14.686 25.6422L14.652 25.537L14.6158 25.4288L14.5773 25.3177L14.5364 25.2038L14.4931 25.0872L14.4474 24.968L14.3992 24.8462L14.3484 24.7219L14.295 24.5952L14.2391 24.4661L14.1804 24.3349L14.1192 24.2015L14.0552 24.0661L13.9884 23.9287L13.919 23.7894L13.8467 23.6484L13.7717 23.5056L13.6938 23.3613L13.6132 23.2155L13.5297 23.0682L13.4434 22.9197L13.3543 22.7699L13.2623 22.619L13.1675 22.4671L13.0699 22.3143L12.9695 22.1607L12.8663 22.0063L12.7603 21.8513L12.6516 21.6957L12.5401 21.5397L12.426 21.3834L12.3091 21.2268L12.1896 21.0701L12.0674 20.9132L11.9427 20.7565L11.8154 20.5998L11.6857 20.4434L11.5534 20.2873L11.4188 20.1316L11.2818 19.9764L11.1425 19.8218L11.0009 19.6678L10.8572 19.5146L10.7113 19.3623L10.5633 19.2109L10.4134 19.0604L10.2615 18.9111L10.1077 18.7629L9.95217 18.616L9.79491 18.4704L9.636 18.3262L9.47554 18.1835L9.31359 18.0423L9.15025 17.9027L8.9856 17.7648L8.81972 17.6286L8.65271 17.4942L8.48466 17.3617L8.31566 17.2311L8.14579 17.1024L7.97516 16.9758L7.80387 16.8513L7.63201 16.7289L7.45968 16.6086L7.28697 16.4906L7.114 16.3748L6.94087 16.2614L6.76767 16.1502L6.59451 16.0415L6.42149 15.9351L6.24873 15.8311L6.07632 15.7296L5.90437 15.6306L5.73299 15.534L5.56229 15.44L5.39237 15.3485L5.22333 15.2596L5.0553 15.1731L4.88836 15.0893L4.72264 15.008L4.55823 14.9292L4.39524 14.853L4.23377 14.7794L4.07394 14.7083L3.91585 14.6398L3.75959 14.5738L3.60528 14.5103L3.45301 14.4493L3.30288 14.3908L3.15499 14.3347L3.00945 14.281L2.86635 14.2298L2.72578 14.1809L2.58783 14.1344L2.45261 14.0902L2.32021 14.0483L2.1907 14.0085L2.06418 13.971L1.94074 13.9356L1.82046 13.9024L1.70342 13.8711L1.5897 13.8419L1.47938 13.8146L1.37254 13.7892L1.26924 13.7657L1.16956 13.7439L1.07357 13.7239L0.981333 13.7055L0.892913 13.6887L0.808371 13.6735L0.727766 13.6597L0.651153 13.6473L0.578587 13.6363L0.510116 13.6265L0.44579 13.6179L0.385652 13.6104L0.329744 13.6039L0.278106 13.5985L0.230773 13.5939L0.187779 13.5901L0.149153 13.5871L0.114923 13.5847L0.0851116 13.5829L0.0597407 13.5816L0.0388276 13.5807L0.0223871 13.5801L0.0104306 13.5799L0.00296646 13.5797L0 13.5797L0.00153324 13.5797L0.00756512 13.5796L0.0180914 13.5794L0.0331047 13.5789L0.0525946 13.5782L0.0765474 13.577L0.104946 13.5754L0.137772 13.5732L0.175 13.5704L0.216606 13.5668L0.26256 13.5625L0.312831 13.5573L0.367382 13.5512L0.426177 13.5441L0.489174 13.5358L0.55633 13.5264L0.627597 13.5158L0.702926 13.5038L0.782266 13.4905L0.86556 13.4757L0.952751 13.4594L1.04378 13.4416L1.13858 13.4221L1.23709 13.4009L1.33925 13.3779L1.44497 13.3531L1.55419 13.3264L1.66684 13.2978L1.78283 13.2673L1.90208 13.2346L2.02453 13.1999L2.15007 13.1631L2.27864 13.1241L2.41013 13.0828L2.54446 13.0393L2.68155 12.9936L2.82129 12.9454L2.9636 12.895L3.10837 12.8421L3.25552 12.7868L3.40495 12.7291L3.55655 12.6689L3.71022 12.6062L3.86587 12.5409L4.02339 12.4732L4.18268 12.4029L4.34364 12.3301L4.50615 12.2548L4.67012 12.1768L4.83544 12.0963L5.002 12.0133L5.1697 11.9277L5.33842 11.8395L5.50807 11.7488L5.67854 11.6556L5.84971 11.5599L6.02149 11.4616L6.19376 11.3609L6.36643 11.2577L6.53937 11.1521L6.7125 11.0441L6.8857 10.9337L7.05887 10.821L7.2319 10.7059L7.4047 10.5886L7.57716 10.4691L7.74919 10.3474L7.92067 10.2235L8.09152 10.0976L8.26164 9.96957L8.43093 9.83958L8.59929 9.70766L8.76665 9.57387L8.93289 9.43825L9.09794 9.30087L9.26171 9.16181L9.42411 9.02111L9.58505 8.87886L9.74446 8.73511L9.90226 8.58995L10.0584 8.44344L10.2127 8.29566L10.3652 8.14669L10.5158 7.99661L10.6644 7.84549L10.8109 7.69342L10.9554 7.54048L11.0976 7.38676L11.2377 7.23234L11.3754 7.07731L11.5108 6.92176L11.6438 6.76577L11.7744 6.60944L11.9024 6.45287L12.028 6.29613L12.1509 6.13933L12.2713 5.98256L12.389 5.82591L12.5041 5.66948L12.6164 5.51337L12.726 5.35766L12.8329 5.20246L12.9369 5.04787L13.0382 4.89398L13.1367 4.74088L13.2324 4.58868L13.3253 4.43747L13.4153 4.28734L13.5025 4.1384L13.5869 3.99073L13.6684 3.84445L13.7472 3.69963L13.8231 3.55637L13.8962 3.41477L13.9666 3.27492L14.0342 3.13692L14.0991 3.00085L14.1612 2.8668L14.2207 2.73486L14.2775 2.60513L14.3317 2.47768L14.3833 2.35261L14.4323 2.22999L14.4788 2.10992L14.5229 1.99246L14.5645 1.8777L14.6038 1.76573L14.6408 1.6566L14.6754 1.55041L14.7079 1.44721L14.7382 1.34709L14.7664 1.25011L14.7926 1.15633L14.8167 1.06583L14.839 0.978658L14.8595 0.89488L14.8781 0.814554L14.8951 0.737735L14.9105 0.664476L14.9243 0.594827L14.9366 0.528838L14.9475 0.466553L14.9571 0.408017L14.9655 0.35327L14.9727 0.302349L14.9788 0.255291L14.984 0.212128L14.9882 0.172891L14.9916 0.137606L14.9943 0.106299L14.9963 0.0789908L14.9978 0.0557012L14.9988 0.0364463L14.9995 0.0212395L14.9998 0.0100914L14.9999 0.00300995L15 0L15 0.00106368L15.0001 0.00620024L15.0003 0.0154061L15.0008 0.0286748L15.0016 0.0459971L15.0028 0.0673608L15.0046 0.092751L15.007 0.12215L15.01 0.155537L15.0139 0.192889L15.0186 0.23418L15.0242 0.279381L15.0309 0.32846L15.0387 0.381384L15.0477 0.438115L15.058 0.498614L15.0696 0.562838L15.0827 0.630745L15.0973 0.702285L15.1135 0.77741L15.1313 0.856067L15.1509 0.938202L15.1723 1.02376L15.1956 1.11268L15.2208 1.2049L15.248 1.30036L15.2773 1.39899L15.3087 1.50072L15.3423 1.60549L15.3782 1.71323L15.4163 1.82385L15.4568 1.93729L15.4998 2.05346L15.5451 2.1723L15.5929 2.29371L15.6433 2.41762L15.6962 2.54395L15.7518 2.6726L15.81 2.80349L15.8708 2.93654L15.9344 3.07166L16.0007 3.20875L16.0697 3.34773L16.1415 3.4885L16.2161 3.63098L16.2935 3.77506L16.3737 3.92066L16.4568 4.06768L16.5426 4.21602L16.6313 4.36559L16.7228 4.5163L16.8171 4.66804L16.9143 4.82072L17.0142 4.97425L17.117 5.12852L17.2225 5.28344L17.3308 5.43891L17.4419 5.59484L17.5556 5.75113L17.6721 5.90769L17.7912 6.06441L17.9129 6.22121L18.0372 6.37799L18.1641 6.53466L18.2935 6.69111L18.4253 6.84728L18.5596 7.00305L18.6962 7.15834L18.8351 7.31306L18.9763 7.46713L19.1197 7.62045L19.2653 7.77295L19.4129 7.92453L19.5626 8.07512L19.7141 8.22463L19.8676 8.37299L20.0229 8.52011L20.1799 8.66593L20.3385 8.81036L20.4988 8.95333L20.6605 9.09478L20.8236 9.23464L20.988 9.37283L21.1537 9.50929L21.3206 9.64397L21.4885 9.77679L21.6573 9.90771L21.827 10.0367L21.9976 10.1636L22.1688 10.2885L22.3405 10.4112L22.5128 10.5318L22.6854 10.6502L22.8584 10.7663L23.0315 10.8801L23.2047 10.9917L23.3779 11.1008L23.5509 11.2076L23.7237 11.3119L23.8962 11.4138L24.0682 11.5132L24.2397 11.6102L24.4105 11.7046L24.5806 11.7965L24.7498 11.8859L24.918 11.9727L25.0851 12.057L25.251 12.1387L25.4156 12.2178L25.5788 12.2944L25.7406 12.3685L25.9007 12.44L26.059 12.5089L26.2156 12.5753L26.3702 12.6392L26.5228 12.7006L26.6733 12.7595L26.8216 12.816L26.9675 12.87L27.111 12.9216L27.252 12.9709L27.3903 13.0178L27.526 13.0623L27.6588 13.1046L27.7888 13.1447L27.9158 13.1826L28.0397 13.2183L28.1605 13.2519L28.2781 13.2835L28.3924 13.313L28.5032 13.3406L28.6106 13.3663L28.7145 13.3901L28.8148 13.4122L28.9113 13.4325L29.0042 13.4511L29.0932 13.4681L29.1784 13.4836L29.2596 13.4976L29.3369 13.5102L29.4101 13.5215L29.4792 13.5315L29.5442 13.5403L29.605 13.5479L29.6616 13.5545L29.7139 13.5602L29.7619 13.5649L29.8056 13.5688L29.8449 13.5719L29.8799 13.5744L29.9104 13.5763L29.9365 13.5777L29.9581 13.5786L29.9752 13.5792L29.9879 13.5795L29.9961 13.5797L30 13.5797Z" fill="#F9C758"/>
</svg>
