<svg width="10" height="10" viewBox="0 0 10 10" fill="none" xmlns="http://www.w3.org/2000/svg">
<path fill-rule="evenodd" clip-rule="evenodd" d="M10 4.99998L9.99925 4.99999L9.997 5.00002L9.99325 5.00012L9.98801 5.0003L9.98128 5.00061L9.97306 5.00106L9.96336 5.00169L9.95218 5.00253L9.93954 5.00361L9.92544 5.00496L9.90989 5.0066L9.8929 5.00856L9.87449 5.01087L9.85467 5.01357L9.83345 5.01667L9.81085 5.0202L9.78687 5.02419L9.76155 5.02867L9.73489 5.03366L9.70692 5.03919L9.67765 5.04527L9.64711 5.05195L9.61531 5.05923L9.58227 5.06714L9.54803 5.0757L9.5126 5.08493L9.47601 5.09487L9.43828 5.10551L9.39945 5.11689L9.35952 5.12902L9.31854 5.14193L9.27653 5.15562L9.23352 5.17011L9.18954 5.18542L9.14461 5.20157L9.09877 5.21856L9.05205 5.23642L9.00448 5.25514L8.9561 5.27475L8.90692 5.29525L8.857 5.31666L8.80635 5.33897L8.75502 5.3622L8.70304 5.38636L8.65043 5.41145L8.59725 5.43747L8.54351 5.46443L8.48926 5.49233L8.43453 5.52118L8.37935 5.55096L8.32377 5.58169L8.26781 5.61336L8.21152 5.64597L8.15492 5.67951L8.09806 5.71398L8.04097 5.74938L7.98368 5.7857L7.92623 5.82293L7.86866 5.86106L7.811 5.90008L7.75329 5.94L7.69555 5.98078L7.63784 6.02242L7.58017 6.06491L7.52258 6.10824L7.46512 6.15238L7.4078 6.19732L7.35067 6.24305L7.29376 6.28955L7.2371 6.33679L7.18071 6.38477L7.12464 6.43345L7.06891 6.48282L7.01356 6.53286L6.95861 6.58354L6.90409 6.63484L6.85003 6.68674L6.79647 6.73921L6.74341 6.79222L6.6909 6.84575L6.63896 6.89977L6.58761 6.95425L6.53688 7.00917L6.48679 7.06449L6.43736 7.12019L6.38862 7.17623L6.34059 7.23259L6.29329 7.28923L6.24673 7.34613L6.20094 7.40324L6.15593 7.46055L6.11173 7.518L6.06834 7.57558L6.02578 7.63324L5.98407 7.69096L5.94322 7.74869L5.90324 7.80641L5.86414 7.86407L5.82594 7.92165L5.78864 7.97911L5.75224 8.03641L5.71677 8.09352L5.68223 8.1504L5.64861 8.20702L5.61593 8.26334L5.58418 8.31933L5.55338 8.37494L5.52352 8.43015L5.4946 8.48492L5.46663 8.53921L5.43959 8.59299L5.4135 8.64622L5.38833 8.69887L5.3641 8.75091L5.3408 8.80229L5.31841 8.85299L5.29693 8.90298L5.27636 8.95221L5.25668 9.00066L5.23788 9.0483L5.21996 9.09509L5.2029 9.141L5.18669 9.186L5.17131 9.23005L5.15675 9.27315L5.143 9.31524L5.13003 9.3563L5.11784 9.39631L5.1064 9.43524L5.0957 9.47305L5.08571 9.50974L5.07642 9.54526L5.0678 9.57959L5.05984 9.61272L5.05251 9.64462L5.04579 9.67527L5.03966 9.70464L5.03409 9.73272L5.02906 9.75948L5.02454 9.78491L5.02051 9.80899L5.01694 9.83171L5.01381 9.85304L5.01108 9.87297L5.00874 9.89149L5.00675 9.90859L5.00508 9.92426L5.00372 9.93847L5.00262 9.95123L5.00176 9.96252L5.00111 9.97234L5.00065 9.98068L5.00033 9.98753L5.00014 9.9929L5.00004 9.99676L5 9.99913L4.99996 9.99724L4.99987 9.99361L4.99969 9.98849L4.9994 9.98187L4.99895 9.97377L4.99834 9.96419L4.99751 9.95313L4.99646 9.9406L4.99513 9.92662L4.99352 9.91118L4.99158 9.89431L4.9893 9.87602L4.98663 9.85631L4.98357 9.8352L4.98007 9.8127L4.97611 9.78884L4.97167 9.76362L4.96673 9.73707L4.96124 9.7092L4.9552 9.68003L4.94858 9.64959L4.94135 9.61789L4.93349 9.58495L4.92498 9.55081L4.9158 9.51547L4.90592 9.47897L4.89533 9.44133L4.88401 9.40258L4.87194 9.36274L4.8591 9.32185L4.84547 9.27992L4.83105 9.23698L4.8158 9.19308L4.79972 9.14822L4.78279 9.10246L4.76501 9.05581L4.74635 9.0083L4.72682 8.95998L4.70639 8.91087L4.68505 8.861L4.66281 8.81041L4.63965 8.75913L4.61557 8.7072L4.59056 8.65464L4.56461 8.6015L4.53772 8.54781L4.5099 8.4936L4.48113 8.4389L4.45142 8.38376L4.42077 8.32821L4.38917 8.27228L4.35664 8.21601L4.32317 8.15944L4.28877 8.1026L4.25345 8.04552L4.2172 7.98825L4.18005 7.93081L4.14199 7.87325L4.10303 7.81559L4.06319 7.75788L4.02248 7.70015L3.9809 7.64243L3.93848 7.58476L3.89522 7.52716L3.85114 7.46969L3.80626 7.41236L3.7606 7.35521L3.71416 7.29828L3.66697 7.24159L3.61906 7.18519L3.57043 7.12909L3.52111 7.07334L3.47112 7.01795L3.42049 6.96297L3.36924 6.90841L3.31739 6.85432L3.26497 6.80071L3.212 6.74761L3.15851 6.69506L3.10453 6.64307L3.05008 6.59167L2.9952 6.54089L2.93991 6.49075L2.88424 6.44127L2.82822 6.39247L2.77189 6.34438L2.71526 6.29702L2.65839 6.2504L2.60129 6.20455L2.544 6.15948L2.48656 6.11521L2.42899 6.07176L2.37133 6.02913L2.31362 5.98735L2.25589 5.94643L2.19817 5.90638L2.1405 5.86721L2.08291 5.82894L2.02544 5.79156L1.96812 5.7551L1.911 5.71956L1.8541 5.68494L1.79746 5.65124L1.74111 5.61849L1.6851 5.58667L1.62945 5.55579L1.57421 5.52586L1.51941 5.49686L1.46508 5.46881L1.41126 5.4417L1.35798 5.41553L1.30528 5.3903L1.2532 5.36599L1.20176 5.34261L1.151 5.32015L1.10096 5.2986L1.05166 5.27796L1.00315 5.25821L0.955448 5.23934L0.908592 5.22135L0.862611 5.20422L0.817538 5.18794L0.773402 5.17249L0.730234 5.15787L0.688062 5.14405L0.646915 5.13103L0.606821 5.11877L0.567808 5.10727L0.529901 5.09651L0.493128 5.08647L0.457513 5.07712L0.42308 5.06845L0.389854 5.06044L0.357857 5.05306L0.327111 5.0463L0.297638 5.04012L0.269457 5.03451L0.242589 5.02943L0.217051 5.02487L0.192862 5.02081L0.170039 5.0172L0.148597 5.01403L0.128551 5.01128L0.109915 5.0089L0.0927021 5.00689L0.0769245 5.0052L0.062593 5.00381L0.0497178 5.00269L0.0383076 5.00181L0.0283705 5.00115L0.0199136 5.00067L0.0129425 5.00034L0.00746235 5.00014L0.00347685 5.00003L0.000988821 4.99999L0 4.99998L0.000511081 4.99998L0.00252171 4.99995L0.00603047 4.99987L0.0110349 4.9997L0.0175315 4.99941L0.0255158 4.99899L0.0349821 4.99838L0.0459238 4.99758L0.0583334 4.99654L0.072202 4.99524L0.0875201 4.99365L0.104277 4.99174L0.122461 4.98948L0.142059 4.98685L0.163058 4.98382L0.185443 4.98035L0.209199 4.97644L0.234309 4.97204L0.260755 4.96713L0.28852 4.96169L0.317584 4.9557L0.347927 4.94912L0.379528 4.94194L0.412365 4.93413L0.446416 4.92567L0.481657 4.91654L0.518064 4.90673L0.555612 4.8962L0.594275 4.88493L0.634028 4.87292L0.674842 4.86014L0.716691 4.84658L0.759545 4.83221L0.803376 4.81703L0.848154 4.80102L0.893849 4.78416L0.94043 4.76645L0.987866 4.74786L1.03612 4.72839L1.08517 4.70804L1.13498 4.68678L1.18552 4.66461L1.23674 4.64152L1.28862 4.61751L1.34113 4.59257L1.39423 4.5667L1.44788 4.53989L1.50205 4.51214L1.55671 4.48344L1.61181 4.45381L1.66733 4.42323L1.72323 4.39171L1.77947 4.35925L1.83602 4.32586L1.89285 4.29153L1.9499 4.25628L2.00716 4.22011L2.06459 4.18303L2.12214 4.14504L2.17979 4.10615L2.2375 4.06638L2.29523 4.02574L2.35296 3.98423L2.41063 3.94187L2.46823 3.89868L2.52572 3.85467L2.58306 3.80985L2.64022 3.76425L2.69717 3.71787L2.75388 3.67074L2.81031 3.62288L2.86643 3.57431L2.92221 3.52505L2.97763 3.47511L3.03265 3.42453L3.08724 3.37333L3.14137 3.32153L3.19502 3.26915L3.24815 3.21622L3.30075 3.16277L3.35279 3.10883L3.40423 3.05442L3.45507 2.99957L3.50526 2.94431L3.55479 2.88867L3.60364 2.83268L3.65179 2.77637L3.69921 2.71977L3.74589 2.66291L3.7918 2.60583L3.83693 2.54855L3.88127 2.49112L3.92479 2.43356L3.96748 2.37591L4.00933 2.3182L4.05031 2.26047L4.09043 2.20275L4.12967 2.14507L4.16802 2.08747L4.20547 2.02999L4.242 1.97266L4.27762 1.91552L4.31232 1.8586L4.34608 1.80194L4.37891 1.74557L4.4108 1.68953L4.44176 1.63385L4.47177 1.57858L4.50084 1.52374L4.52896 1.46937L4.55615 1.4155L4.58239 1.36218L4.6077 1.30944L4.63208 1.2573L4.65553 1.20581L4.67807 1.155L4.69969 1.1049L4.72041 1.05554L4.74023 1.00696L4.75916 0.959195L4.77722 0.91227L4.79442 0.866219L4.81077 0.821072L4.82628 0.77686L4.84097 0.733613L4.85485 0.691361L4.86794 0.650131L4.88025 0.609952L4.89181 0.570852L4.90263 0.532856L4.91273 0.495992L4.92213 0.460284L4.93085 0.425756L4.93891 0.392433L4.94634 0.360337L4.95316 0.32949L4.95938 0.299915L4.96504 0.27163L4.97016 0.244657L4.97475 0.219012L4.97886 0.194715L4.9825 0.171783L4.9857 0.15023L4.98849 0.130072L4.99089 0.111323L4.99294 0.0939968L4.99465 0.0781045L4.99606 0.0636575L4.9972 0.0506658L4.9981 0.0391387L4.99878 0.029084L4.99927 0.0205089L4.99961 0.0134193L4.99982 0.00782027L4.99993 0.00371561L4.99998 0.00110825L4.99999 0L4.99999 0.00039164L5.00002 0.0022829L5.0001 0.00567244L5.00026 0.0105579L5.00053 0.0169359L5.00095 0.0248019L5.00153 0.0341504L5.00232 0.044975L5.00334 0.057268L5.00462 0.0710208L5.00619 0.0862239L5.00807 0.102867L5.0103 0.120937L5.0129 0.140424L5.0159 0.161312L5.01933 0.183587L5.02321 0.207234L5.02757 0.232237L5.03243 0.258578L5.03783 0.286238L5.04378 0.315199L5.05031 0.345441L5.05744 0.376943L5.0652 0.409682L5.0736 0.443638L5.08267 0.478785L5.09244 0.5151L5.10291 0.552558L5.11411 0.591134L5.12606 0.630801L5.13878 0.671532L5.15228 0.7133L5.16658 0.756075L5.1817 0.799829L5.19765 0.844533L5.21443 0.890156L5.23208 0.936668L5.2506 0.984037L5.26999 1.03223L5.29028 1.08122L5.31147 1.13097L5.33357 1.18145L5.35658 1.23262L5.38051 1.28445L5.40538 1.33691L5.43118 1.38996L5.45791 1.44357L5.48559 1.4977L5.51421 1.55232L5.54377 1.60739L5.57427 1.66288L5.60571 1.71875L5.6381 1.77497L5.67142 1.83149L5.70567 1.88829L5.74085 1.94534L5.77694 2.00258L5.81396 2.05999L5.85187 2.11754L5.89069 2.17518L5.93039 2.23289L5.97096 2.29062L6.0124 2.34834L6.05469 2.40603L6.09782 2.46363L6.14176 2.52113L6.18652 2.57849L6.23206 2.63566L6.27838 2.69263L6.32544 2.74936L6.37325 2.80581L6.42176 2.86196L6.47097 2.91777L6.52085 2.97322L6.57138 3.02827L6.62254 3.08289L6.67429 3.13706L6.72663 3.19075L6.77951 3.24393L6.83292 3.29657L6.88682 3.34865L6.9412 3.40014L6.99601 3.45103L7.05124 3.50127L7.10685 3.55086L7.16282 3.59976L7.2191 3.64797L7.27568 3.69545L7.33252 3.74218L7.38958 3.78816L7.44684 3.83336L7.50426 3.87775L7.56182 3.92134L7.61946 3.9641L7.67717 4.00601L7.7349 4.04707L7.79262 4.08726L7.8503 4.12657L7.90791 4.16499L7.9654 4.20251L8.02274 4.23911L8.0799 4.27481L8.13684 4.30958L8.19352 4.34341L8.24992 4.37632L8.30599 4.40829L8.36169 4.43932L8.417 4.4694L8.47188 4.49855L8.52628 4.52675L8.58019 4.55401L8.63355 4.58033L8.68635 4.60571L8.73853 4.63016L8.79007 4.65369L8.84094 4.6763L8.8911 4.69799L8.94052 4.71878L8.98916 4.73867L9.03699 4.75768L9.08398 4.77581L9.13011 4.79307L9.17533 4.80949L9.21961 4.82506L9.26294 4.83982L9.30527 4.85376L9.34658 4.86691L9.38685 4.87929L9.42603 4.89091L9.46412 4.90178L9.50107 4.91194L9.53687 4.9214L9.5715 4.93017L9.60492 4.93829L9.63711 4.94576L9.66806 4.95263L9.69774 4.9589L9.72612 4.9646L9.7532 4.96976L9.77895 4.9744L9.80336 4.97854L9.8264 4.98222L9.84806 4.98545L9.86833 4.98827L9.88719 4.99071L9.90463 4.99278L9.92064 4.99452L9.9352 4.99595L9.94831 4.99711L9.95996 4.99803L9.97013 4.99872L9.97882 4.99923L9.98603 4.99958L9.99174 4.9998L9.99597 4.99992L9.9987 4.99997L10 4.99998Z" fill="#F9C758"/>
</svg>
