<svg width="19" height="19" viewBox="0 0 19 19" fill="none" xmlns="http://www.w3.org/2000/svg">
<path fill-rule="evenodd" clip-rule="evenodd" d="M19 9.49996L18.9986 9.49997L18.9943 9.50004L18.9872 9.50022L18.9772 9.50057L18.9644 9.50115L18.9488 9.50201L18.9304 9.50321L18.9091 9.50481L18.8851 9.50686L18.8583 9.50942L18.8288 9.51253L18.7965 9.51626L18.7615 9.52066L18.7239 9.52578L18.6836 9.53167L18.6406 9.53838L18.5951 9.54597L18.5469 9.55448L18.4963 9.56396L18.4431 9.57446L18.3875 9.58602L18.3295 9.5987L18.2691 9.61253L18.2063 9.62756L18.1413 9.64383L18.0739 9.66137L18.0044 9.68024L17.9327 9.70047L17.8589 9.72209L17.7831 9.74514L17.7052 9.76966L17.6254 9.79567L17.5437 9.82321L17.4601 9.8523L17.3748 9.88298L17.2877 9.91527L17.1989 9.94919L17.1085 9.98477L17.0166 10.022L16.9232 10.061L16.8283 10.1016L16.7321 10.144L16.6345 10.1882L16.5358 10.2341L16.4358 10.2818L16.3348 10.3312L16.2327 10.3824L16.1296 10.4354L16.0256 10.4902L15.9208 10.5468L15.8152 10.6052L15.7088 10.6654L15.6019 10.7273L15.4944 10.7911L15.3863 10.8566L15.2778 10.9238L15.169 10.9928L15.0598 11.0636L14.9505 11.136L14.8409 11.2102L14.7312 11.286L14.6216 11.3635L14.5119 11.4426L14.4023 11.5233L14.2929 11.6056L14.1837 11.6895L14.0748 11.7749L13.9663 11.8618L13.8581 11.9501L13.7505 12.0399L13.6434 12.1311L13.5368 12.2236L13.4309 12.3174L13.3258 12.4124L13.2214 12.5087L13.1178 12.6062L13.0151 12.7048L12.9133 12.8045L12.8125 12.9052L12.7127 13.0069L12.614 13.1096L12.5165 13.2131L12.4201 13.3174L12.3249 13.4225L12.231 13.5284L12.1384 13.6348L12.0471 13.7419L11.9572 13.8495L11.8688 13.9576L11.7818 14.0662L11.6963 14.175L11.6123 14.2842L11.5298 14.3936L11.449 14.5032L11.3697 14.6128L11.2921 14.7225L11.2162 14.8322L11.1419 14.9417L11.0693 15.0511L10.9984 15.1603L10.9293 15.2692L10.8619 15.3777L10.7962 15.4858L10.7324 15.5933L10.6703 15.7004L10.6099 15.8067L10.5514 15.9124L10.4947 16.0173L10.4397 16.1213L10.3866 16.2245L10.3352 16.3267L10.2856 16.4278L10.2378 16.5279L10.1918 16.6267L10.1475 16.7244L10.105 16.8207L10.0642 16.9157L10.0251 17.0092L9.98769 17.1013L9.95198 17.1918L9.91793 17.2807L9.88551 17.3679L9.8547 17.4534L9.82549 17.5371L9.79782 17.619L9.77169 17.6989L9.74706 17.777L9.72389 17.853L9.70216 17.9269L9.68182 17.9988L9.66284 18.0685L9.64519 18.136L9.62882 18.2012L9.6137 18.2642L9.59977 18.3248L9.58701 18.383L9.57536 18.4388L9.56477 18.4922L9.55521 18.543L9.54663 18.5913L9.53897 18.6371L9.53219 18.6802L9.52623 18.7208L9.52106 18.7586L9.5166 18.7938L9.51282 18.8263L9.50966 18.8561L9.50706 18.8831L9.50498 18.9073L9.50334 18.9288L9.50211 18.9475L9.50122 18.9633L9.50063 18.9763L9.50026 18.9865L9.50007 18.9938L9.49999 18.9983L9.49991 18.9948L9.49974 18.9879L9.49941 18.9781L9.49885 18.9656L9.49801 18.9502L9.49684 18.932L9.49528 18.9109L9.49326 18.8871L9.49075 18.8606L9.48768 18.8312L9.484 18.7992L9.47966 18.7644L9.4746 18.727L9.46878 18.6869L9.46213 18.6441L9.45462 18.5988L9.44618 18.5509L9.43678 18.5004L9.42636 18.4475L9.41488 18.3921L9.4023 18.3342L9.38856 18.274L9.37363 18.2114L9.35746 18.1465L9.34002 18.0794L9.32125 18.01L9.30114 17.9385L9.27963 17.8649L9.25669 17.7892L9.23229 17.7115L9.2064 17.6318L9.17898 17.5503L9.15002 17.4668L9.11946 17.3816L9.08731 17.2947L9.05352 17.206L9.01807 17.1158L8.98095 17.024L8.94213 16.9307L8.9016 16.8359L8.85934 16.7398L8.81534 16.6424L8.76958 16.5437L8.72205 16.4438L8.67275 16.3429L8.62167 16.2408L8.5688 16.1378L8.51414 16.0339L8.4577 15.9291L8.39946 15.8236L8.33943 15.7173L8.27761 15.6104L8.21403 15.5029L8.14867 15.3949L8.08155 15.2865L8.01268 15.1777L7.94209 15.0685L7.86977 14.9592L7.79576 14.8496L7.72006 14.74L7.6427 14.6303L7.56371 14.5206L7.48311 14.411L7.40092 14.3016L7.31717 14.1924L7.2319 14.0835L7.14513 13.9749L7.0569 13.8667L6.96725 13.759L6.8762 13.6519L6.78381 13.5453L6.69011 13.4393L6.59513 13.3341L6.49894 13.2296L6.40156 13.126L6.30304 13.0232L6.20344 12.9213L6.1028 12.8205L6.00117 12.7206L5.89861 12.6218L5.79516 12.5242L5.69088 12.4277L5.58582 12.3324L5.48005 12.2384L5.37362 12.1457L5.26658 12.0543L5.159 11.9643L5.05094 11.8758L4.94245 11.7886L4.83361 11.703L4.72446 11.6189L4.61508 11.5363L4.50553 11.4554L4.39588 11.376L4.28619 11.2982L4.17652 11.2221L4.06694 11.1477L3.95753 11.075L3.84833 11.004L3.73943 10.9347L3.63089 10.8672L3.52278 10.8014L3.41516 10.7374L3.30811 10.6751L3.20169 10.6147L3.09596 10.556L2.991 10.4991L2.88688 10.444L2.78365 10.3907L2.68139 10.3392L2.58016 10.2895L2.48004 10.2416L2.38107 10.1954L2.28334 10.151L2.1869 10.1083L2.09182 10.0673L1.99816 10.0281L1.90598 9.99059L1.81535 9.95475L1.72632 9.92056L1.63896 9.88802L1.55332 9.85708L1.46946 9.82774L1.38744 9.79996L1.30732 9.7737L1.22914 9.74895L1.15296 9.72567L1.07883 9.70382L1.00681 9.68337L0.936943 9.66429L0.869274 9.64653L0.803853 9.63006L0.740723 9.61484L0.679928 9.60082L0.621511 9.58797L0.565511 9.57623L0.511968 9.56556L0.460918 9.55592L0.412397 9.54726L0.366438 9.53953L0.323074 9.53268L0.282333 9.52666L0.244246 9.52143L0.208838 9.51692L0.176134 9.51308L0.146156 9.50987L0.118927 9.50723L0.0944637 9.50511L0.0727844 9.50344L0.053904 9.50218L0.0378358 9.50127L0.0245908 9.50065L0.0141785 9.50026L0.00660602 9.50006L0.00187876 9.49998L0 9.49996L0.000971054 9.49996L0.00479124 9.4999L0.0114579 9.49975L0.0209663 9.49943L0.0333099 9.49889L0.04848 9.49807L0.066466 9.49693L0.0872553 9.4954L0.110833 9.49342L0.137184 9.49095L0.166288 9.48793L0.198126 9.4843L0.232676 9.48002L0.269912 9.47501L0.30981 9.46925L0.352342 9.46267L0.397478 9.45523L0.445187 9.44687L0.495435 9.43755L0.548188 9.42721L0.603409 9.41582L0.661061 9.40332L0.721102 9.38968L0.783493 9.37485L0.84819 9.35878L0.915147 9.34143L0.984321 9.32278L1.05566 9.30277L1.12912 9.28137L1.20465 9.25855L1.2822 9.23427L1.36171 9.2085L1.44314 9.18121L1.52641 9.15236L1.61149 9.12194L1.69831 9.08991L1.78682 9.05625L1.87694 9.02094L1.96864 8.98395L2.06183 8.94527L2.15647 8.90487L2.25248 8.86275L2.34981 8.81889L2.44839 8.77327L2.54815 8.72588L2.64903 8.67673L2.75097 8.62578L2.85389 8.57306L2.95774 8.51854L3.06244 8.46224L3.16793 8.40414L3.27414 8.34425L3.381 8.28258L3.48845 8.21913L3.59641 8.15391L3.70482 8.08694L3.81361 8.01821L3.92272 7.94775L4.03207 7.87557L4.1416 7.80169L4.25125 7.72612L4.36094 7.6489L4.47062 7.57004L4.5802 7.48956L4.68964 7.40749L4.79887 7.32387L4.90782 7.23872L5.01642 7.15207L5.12463 7.06396L5.23237 6.97441L5.33959 6.88348L5.44622 6.79119L5.55221 6.69759L5.6575 6.60272L5.76203 6.50661L5.86575 6.40933L5.9686 6.3109L6.07053 6.21138L6.17149 6.11082L6.27143 6.00927L6.3703 5.90678L6.46804 5.8034L6.56462 5.69918L6.65999 5.59419L6.7541 5.48847L6.84692 5.38209L6.9384 5.2751L7.0285 5.16756L7.11718 5.05953L7.20442 4.95107L7.29017 4.84225L7.37441 4.73313L7.4571 4.62377L7.53821 4.51423L7.61772 4.40458L7.6956 4.29489L7.77182 4.18522L7.84638 4.07563L7.91924 3.9662L7.99039 3.85699L8.0598 3.74806L8.12748 3.63949L8.1934 3.53134L8.25755 3.42368L8.31993 3.31658L8.38053 3.2101L8.43934 3.10432L8.49636 2.99929L8.55159 2.8951L8.60503 2.7918L8.65668 2.68946L8.70654 2.58815L8.75463 2.48793L8.80095 2.38887L8.84552 2.29104L8.88833 2.19449L8.92941 2.0993L8.96877 2.00553L9.00643 1.91323L9.04241 1.82247L9.07672 1.73331L9.1094 1.64582L9.14046 1.56004L9.16993 1.47603L9.19783 1.39387L9.22421 1.31359L9.24908 1.23525L9.27248 1.15891L9.29444 1.08462L9.31499 1.01243L9.33418 0.942385L9.35205 0.874539L9.36862 0.808936L9.38394 0.745622L9.39805 0.68464L9.411 0.626032L9.42282 0.569838L9.43357 0.516097L9.44329 0.464847L9.45203 0.416123L9.45983 0.369959L9.46675 0.326387L9.47283 0.285437L9.47813 0.247137L9.48269 0.211514L9.48658 0.178594L9.48984 0.148399L9.49252 0.120949L9.49469 0.0962651L9.49639 0.0743635L9.49768 0.0552596L9.49862 0.0389669L9.49926 0.0254967L9.49966 0.0148585L9.49988 0.00705966L9.49996 0.00210567L9.49998 0L9.49999 0.000744116L9.50003 0.0043375L9.50018 0.0107776L9.50049 0.02006L9.50101 0.0321782L9.50179 0.0471236L9.50291 0.0648858L9.50441 0.0854525L9.50635 0.108809L9.50877 0.13494L9.51175 0.163825L9.51533 0.195447L9.51956 0.229781L9.5245 0.266805L9.53021 0.306492L9.53672 0.348815L9.54409 0.393745L9.55237 0.44125L9.56162 0.491297L9.57187 0.543852L9.58318 0.598879L9.59558 0.656338L9.60913 0.716191L9.62387 0.778397L9.63984 0.842911L9.65708 0.909691L9.67563 0.97869L9.69553 1.04986L9.71682 1.12315L9.73952 1.19852L9.76369 1.27591L9.78934 1.35527L9.81651 1.43654L9.84523 1.51968L9.87552 1.60461L9.90742 1.6913L9.94095 1.77967L9.97613 1.86967L10.013 1.96124L10.0515 2.05432L10.0918 2.14884L10.1338 2.24475L10.1775 2.34197L10.223 2.44045L10.2702 2.54012L10.3192 2.64092L10.37 2.74278L10.4226 2.84563L10.477 2.9494L10.5332 3.05404L10.5911 3.15947L10.6509 3.26562L10.7124 3.37243L10.7757 3.47983L10.8408 3.58776L10.9076 3.69614L10.9762 3.8049L11.0465 3.91398L11.1186 4.02332L11.1923 4.13284L11.2677 4.24248L11.3448 4.35217L11.4236 4.46185L11.5039 4.57145L11.5859 4.6809L11.6694 4.79015L11.7544 4.89912L11.8409 5.00776L11.9289 5.116L12.0183 5.22378L12.1092 5.33104L12.2013 5.43772L12.2948 5.54376L12.3896 5.64911L12.4856 5.75371L12.5828 5.85749L12.6812 5.96042L12.7806 6.06242L12.8811 6.16346L12.9825 6.26348L13.085 6.36244L13.1883 6.46027L13.2924 6.55695L13.3974 6.65241L13.503 6.74663L13.6094 6.83955L13.7163 6.93114L13.8238 7.02135L13.9318 7.11015L14.0402 7.1975L14.149 7.28337L14.2581 7.36773L14.3674 7.45055L14.477 7.53178L14.5866 7.61142L14.6963 7.68943L14.806 7.76579L14.9156 7.84048L15.025 7.91348L15.1343 7.98476L15.2432 8.05432L15.3518 8.12213L15.46 8.18819L15.5677 8.25249L15.6748 8.31501L15.7814 8.37575L15.8872 8.4347L15.9923 8.49186L16.0966 8.54723L16.1999 8.60082L16.3024 8.65261L16.4037 8.70262L16.5041 8.75085L16.6032 8.79731L16.7011 8.84201L16.7978 8.88496L16.8931 8.92618L16.987 8.96568L17.0794 9.00347L17.1703 9.03958L17.2596 9.07403L17.3472 9.10684L17.4331 9.13803L17.5173 9.16762L17.5996 9.19565L17.68 9.22215L17.7585 9.24713L17.835 9.27065L17.9095 9.29272L17.9818 9.31339L18.052 9.33269L18.1201 9.35065L18.1858 9.36732L18.2493 9.38274L18.3105 9.39695L18.3693 9.40999L18.4257 9.4219L18.4796 9.43274L18.5311 9.44254L18.58 9.45135L18.6264 9.45923L18.6702 9.46621L18.7113 9.47236L18.7498 9.47772L18.7857 9.48234L18.8188 9.48628L18.8492 9.48958L18.8769 9.49231L18.9018 9.49451L18.9239 9.49625L18.9432 9.49757L18.9598 9.49854L18.9735 9.4992L18.9843 9.49962L18.9923 9.49984L18.9975 9.49994L19 9.49996Z" fill="#343B4E"/>
</svg>
