<svg width="20" height="20" viewBox="0 0 20 20" fill="none" xmlns="http://www.w3.org/2000/svg">
<path d="M16.6401 8.554C16.6959 8.99144 16.3545 9.37855 15.9135 9.37855H15.8917C15.5248 9.37855 15.2133 9.10657 15.1666 8.74225C14.8809 6.51674 13.1177 4.75297 10.8922 4.4678C10.5278 4.42112 10.2559 4.10957 10.2559 3.7422V3.72039C10.2559 3.27944 10.643 2.93846 11.0799 2.99428C13.9757 3.36418 16.2697 5.65819 16.6401 8.554L16.6401 8.554Z" fill="#FF7826"/>
<path d="M19.6303 8.58647C19.6658 9.01219 19.3274 9.37702 18.9001 9.37702H18.8788C18.4962 9.37702 18.1816 9.08171 18.1492 8.70013C17.8249 4.8646 14.7677 1.80794 10.9322 1.4837C10.5512 1.45123 10.2559 1.13613 10.2559 0.753536V0.732225C10.2559 0.304982 10.6201 -0.0329541 11.0459 0.00256507C15.6111 0.382109 19.2508 4.02128 19.6303 8.58647H19.6303Z" fill="#FF7826"/>
<path d="M13.5972 8.45451C13.7256 8.9193 13.3724 9.378 12.8904 9.378H12.8681C12.5433 9.378 12.2516 9.16489 12.1653 8.85131C11.9811 8.18101 11.4528 7.65275 10.7821 7.4681C10.4685 7.38184 10.2559 7.09058 10.2559 6.76533V6.74301C10.2559 6.26096 10.7141 5.90831 11.1788 6.03618C12.3511 6.3594 13.274 7.28238 13.5972 8.45451H13.5972Z" fill="#FF7826"/>
<path d="M16.5061 15.6806L14.3654 13.5399C13.7677 12.9417 12.7985 12.9417 12.2008 13.5399L11.3098 14.4309L5.56886 8.69002L6.45987 7.799C7.05761 7.20127 7.05761 6.23211 6.45987 5.63438L4.3191 3.4936C3.72137 2.89536 2.75221 2.89536 2.15448 3.4936L1.26346 4.38462C-0.421153 6.06872 -0.421153 8.79962 1.26346 10.4837L9.51551 18.7363C11.1978 20.4196 13.9305 20.4209 15.6151 18.7363L16.5061 17.8453C17.1039 17.2476 17.1039 16.2784 16.5061 15.6806Z" fill="#FF7826"/>
<path d="M16.505 15.6852C17.1027 16.2829 17.1027 17.2521 16.505 17.8498L15.614 18.7409L11.3086 14.4354L12.1996 13.5444C12.7973 12.9461 13.7665 12.9461 14.3642 13.5444L16.505 15.6852Z" fill="#FF7826"/>
<path d="M6.45813 5.63438C7.05587 6.23211 7.05587 7.20127 6.45813 7.799L5.56712 8.69002L1.26172 4.38462L2.15274 3.4936C2.75047 2.89536 3.71963 2.89536 4.31736 3.4936L6.45813 5.63438Z" fill="#FF7826"/>
</svg>
