<svg width="41" height="41" viewBox="0 0 41 41" fill="none" xmlns="http://www.w3.org/2000/svg">
<circle cx="20.5" cy="20.5" r="20.5" fill="#343B4E"/>
<path d="M24.4233 22.2371L22.9812 23.0495C22.8082 23.1469 22.608 23.185 22.4112 23.158C22.2145 23.131 22.0319 23.0403 21.8916 22.8998L17.0785 18.0867C16.9381 17.9463 16.8475 17.7638 16.8205 17.5671C16.7934 17.3703 16.8315 17.1702 16.9288 16.9971L17.7412 15.555C17.8875 15.2955 17.9447 14.9952 17.9042 14.7001C17.8638 14.4049 17.7278 14.1311 17.5171 13.9205L15.3557 11.7592C15.229 11.6324 15.0786 11.5319 14.9131 11.4633C14.7475 11.3947 14.5701 11.3594 14.3909 11.3594C14.2117 11.3594 14.0342 11.3947 13.8687 11.4633C13.7031 11.5319 13.5527 11.6324 13.426 11.7592L12.4447 12.7398C11.8708 13.3137 11.5052 14.063 11.4061 14.8685C11.307 15.674 11.4801 16.4895 11.8978 17.1854L12.3902 18.0061C14.9048 22.197 18.4542 25.6716 22.6978 28.0964L22.795 28.1523C24.2447 28.9805 26.0357 28.7392 27.1964 27.5792L28.2212 26.5543C28.348 26.4276 28.4485 26.2772 28.5171 26.1117C28.5857 25.9461 28.621 25.7687 28.621 25.5895C28.621 25.4103 28.5857 25.2329 28.5171 25.0673C28.4485 24.9018 28.348 24.7514 28.2212 24.6247L26.0585 22.4619C25.8479 22.2509 25.574 22.1147 25.2787 22.0741C24.9834 22.0335 24.683 22.0908 24.4233 22.2371Z" fill="white"/>
</svg>
